<svg xmlns="http://www.w3.org/2000/svg" viewBox="0 0 74.04 74.04"><defs><style>.cls-1{fill:#fff;}</style></defs><title>Asset 8</title><g id="Layer_2" data-name="Layer 2"><g id="Layer_1-2" data-name="Layer 1"><path class="cls-1" d="M37,0A37,37,0,1,0,74,37,37,37,0,0,0,37,0ZM51.49,38.67h-25l6.71,6.71a1.65,1.65,0,0,1,0,2.34,1.67,1.67,0,0,1-2.34,0l-9.52-9.53a1.49,1.49,0,0,1-.27-.35,1.13,1.13,0,0,1-.09-.2,1.51,1.51,0,0,1-.13-.63l.49-1.16,9.52-9.54a1.68,1.68,0,0,1,2.34,0,1.62,1.62,0,0,1,.48,1.18,1.6,1.6,0,0,1-.48,1.17l-6.71,6.71h25a1.65,1.65,0,1,1,0,3.3Z"/></g></g></svg>