<svg xmlns="http://www.w3.org/2000/svg" viewBox="0 0 111.4 100.15"><defs><style>.cls-1{fill:#444172;}.cls-2{fill:#837db2;}.cls-3{fill:#d0d2d3;}</style></defs><title>Asset 30</title><g id="Layer_2" data-name="Layer 2"><g id="Layer_1-2" data-name="Layer 1"><rect class="cls-1" width="100.15" height="100.15"/><rect class="cls-2" x="11.25" width="100.15" height="100.15"/><circle class="cls-1" cx="61.32" cy="50.07" r="42.46"/><circle class="cls-3" cx="61.32" cy="50.07" r="36.48"/><path class="cls-1" d="M80,51.22H61.32a1.15,1.15,0,0,1,0-2.29H80a1.15,1.15,0,0,1,0,2.29Z"/><path class="cls-1" d="M61.32,51.22a1.14,1.14,0,0,1-1.14-1.15V22.4a1.15,1.15,0,0,1,2.29,0V50.07A1.15,1.15,0,0,1,61.32,51.22Z"/><circle class="cls-1" cx="61.32" cy="17.3" r="1.81"/><path class="cls-1" d="M85.78,28.17a1.81,1.81,0,1,1,0-2.55A1.8,1.8,0,0,1,85.78,28.17Z"/><path class="cls-1" d="M94.1,51.88a1.81,1.81,0,1,1,1.81-1.81A1.81,1.81,0,0,1,94.1,51.88Z"/><path class="cls-1" d="M83.22,74.53a1.81,1.81,0,1,1,2.56,0A1.81,1.81,0,0,1,83.22,74.53Z"/><circle class="cls-1" cx="61.32" cy="82.85" r="1.81"/><path class="cls-1" d="M36.87,72a1.8,1.8,0,1,1,0,2.55A1.79,1.79,0,0,1,36.87,72Z"/><circle class="cls-1" cx="28.54" cy="50.07" r="1.81"/><path class="cls-1" d="M39.42,25.62a1.8,1.8,0,1,1-2.55,0A1.79,1.79,0,0,1,39.42,25.62Z"/></g></g></svg>