<svg xmlns="http://www.w3.org/2000/svg" viewBox="0 0 153.3 180.4"><defs><style>.cls-1{fill:#444172;}.cls-2{fill:#837db2;}.cls-3{fill:#6c6399;}.cls-4{opacity:0.81;}</style></defs><title>Asset 16</title><g id="Layer_2" data-name="Layer 2"><g id="Layer_1-2" data-name="Layer 1"><path class="cls-1" d="M24.88,86.78c-3,1-7.34,1.16-10.6,1.08A2.39,2.39,0,0,1,12,85.75c-.16-1.35-.39-3.09-.67-5.09a2.22,2.22,0,0,1,2.2-2.55,31.34,31.34,0,0,1,5.68.44c8.42,1.51,16.52-1.64,17.09-5.21s-2.67-6.48-12.06-2.85a28.48,28.48,0,0,1-12.5,1.74,2.19,2.19,0,0,1-2-1.85c-.21-1.29-.42-2.6-.64-3.93a1.71,1.71,0,0,1,1.22-1.93c2.93-.79,6.58-1.55,9-1.25,4.67.57,15.18.66,15.18-5.68s-10.44-5.24-13.48-3a32.58,32.58,0,0,1-11.5,4.48,1.7,1.7,0,0,1-1.94-1.37c-.23-1.33-.47-2.65-.72-4-.16-.91-.33-1.81-.51-2.72A7.76,7.76,0,0,1,6,48.75c.36-2.12,4.15-2,5.64-1.91,1.94.06,3.77.87,5.69,1a17.72,17.72,0,0,0,4.82-.26c2.62-.51,6.05-2,5.74-5.18-.53-5.59-9.14-5.83-15.4-2.8A20.27,20.27,0,0,1,8,41.18a3.73,3.73,0,0,1-4.38-2.67c-.09-.34-.18-.66-.27-.95-.31-.79-.59-1.57-.85-2.32A3.66,3.66,0,0,1,6,30.38a10,10,0,0,1,2.84.44c5.8,1.82,9.9,1.08,11.42-1.43,1.22-5.64-6.21-6.75-13.18-5.78a13.15,13.15,0,0,1-4,0,3.68,3.68,0,0,1-3-3.9c.53-7.45,4-10.35,4-10.35,3.19-3.23,8-4.75,13-5.25A3.73,3.73,0,0,1,20.63,6a10.83,10.83,0,0,1,1.46,4.9c.19,5.44.84,8.55,4.43,7.59,2.39-.65,1.91-4.54,1.67-6.31A31,31,0,0,0,27,7c-.47-1.48-.31-2.84,1.64-2.51,1.45.24,2.89.56,4.31.93a3.7,3.7,0,0,1,2.78,3.32,15.35,15.35,0,0,1-1.19,7.53c-2.7,5.57-3.43,13.73,1.3,14.29s5-7.47,4-13.46a20.07,20.07,0,0,1,0-4.24A3.74,3.74,0,0,1,45,9.78c2.74,1.22,5.44,2.54,8.14,3.89A5.16,5.16,0,0,1,56,18.55c-.22,3.61-1.13,7.52-3.58,10.48-6.08,7.31-4.72,16.45.94,16.39S61.11,37.48,60.93,30a15.62,15.62,0,0,1,1-4.24,5.23,5.23,0,0,1,7.78-2.46c.93.63,1.85,1.27,2.77,1.92a4.34,4.34,0,0,1,1.68,4.6c-.19.71-.39,1.42-.62,2.12C71.42,38.68,65,42.41,62.06,48.59c-1.9,4-1.23,10.67,4.54,10a7.77,7.77,0,0,0,4.33-2c4.61-4.15,4-10.93,6.88-16.06.14-.24.9-1.38,1.85-2.8a4.39,4.39,0,0,1,6.75-.67l0,0q2.26,2.66,4.14,5.35a5.1,5.1,0,0,1,.24,5.43c-2.31,4-5.85,8.29-11,10.12C68.64,62,64.59,68,67.6,73.06s12.06,1.32,17.46-5.81a29.28,29.28,0,0,1,8.66-7.13,3.88,3.88,0,0,1,5.76,2.57,46.25,46.25,0,0,1,.92,9,6.07,6.07,0,0,1-3.5,5.42c-4.78,2.28-9.75,2-14.85,2.58-3.23.37-6.5,1.77-7.35,5.19-1.17,4.71,3.8,9.22,16.33,2.92a14.13,14.13,0,0,1,2.38-1.1,2.46,2.46,0,0,1,3.11,3.3,48.49,48.49,0,0,1-18.59,21.33c-20.24,10.8-35.17,9.1-45.66,3a1.33,1.33,0,0,1,.22-2.39,14.67,14.67,0,0,1,3.28-.84c8-1.61,18.8-5.62,17.11-11.21s-9.77-4.32-16.14,1.24c-3.44,3-8.45,4.57-12.32,5.36a2.45,2.45,0,0,1-2.37-.79A48.86,48.86,0,0,1,17,98.6a2.44,2.44,0,0,1,1.71-3.67,51.24,51.24,0,0,1,10.19-.63C37.45,94.73,41,91.21,40,87.1,37.58,80.61,30.36,84.93,24.88,86.78Z"/><path class="cls-2" d="M7.13,10.94c-.38.93,1.76,1.85,2.35,2.25C12.09,15,14.55,16.94,17,19A103.94,103.94,0,0,1,30.1,32.53l1.5,1.83L33,36.25c.92,1.28,1.9,2.52,2.78,3.82,1.72,2.64,3.53,5.21,5.05,8,.78,1.36,1.61,2.7,2.35,4.09l2.13,4.18,1.07,2.09c.3.65.55,1.36.84,2.11L48.91,65c4.54,12,9.78,23.8,16.66,34.82q2.58,4.14,5.53,8.06a78.3,78.3,0,0,0,6.36,7.54,54.65,54.65,0,0,0,16.09,12,3.1,3.1,0,1,0,2.67-5.6l-.07,0-.06,0A48.91,48.91,0,0,1,81.46,111.5a74.76,74.76,0,0,1-6.17-6.87c-2-2.41-3.79-4.93-5.52-7.53C62.82,86.7,57.3,75.29,52.45,63.59l-1.82-4.41c-.3-.73-.61-1.51-1-2.3l-1.18-2.13-2.34-4.26c-.81-1.4-1.7-2.74-2.54-4.11-1.65-2.78-3.58-5.36-5.42-8-.95-1.31-2-2.55-3-3.82l-1.5-1.89-1.6-1.82A106.45,106.45,0,0,0,18.26,17.41c-2.54-2-5.11-3.92-7.83-5.64-.69-.45-2.23-1.91-3.06-1.15A.77.77,0,0,0,7.13,10.94Z"/><path class="cls-2" d="M141.71,78.06c3,.18,7-.76,10-1.63a2.26,2.26,0,0,0,1.59-2.51c-.19-1.27-.4-2.91-.64-4.82A2.11,2.11,0,0,0,150,67.31a29.23,29.23,0,0,0-5.09,1.81c-7.34,3.46-15.53,2.57-16.94-.56S128.82,62,138.31,63a26.88,26.88,0,0,0,11.87-1.5,2.07,2.07,0,0,0,1.35-2.18c-.13-1.23-.26-2.48-.38-3.75a1.62,1.62,0,0,0-1.6-1.46c-2.88,0-6.4.2-8.56,1.07-4.13,1.68-13.74,4.36-15.3-1.45s8.26-7.37,11.61-6a30.73,30.73,0,0,0,11.63,1.26,1.6,1.6,0,0,0,1.43-1.74c-.11-1.27-.21-2.53-.32-3.81-.07-.87-.13-1.74-.2-2.61a7.38,7.38,0,0,0-.21-2.21c-.85-1.84-4.27-.76-5.63-.35-1.76.54-3.23,1.73-5,2.34a17.06,17.06,0,0,1-4.47.95c-2.53.18-6-.29-6.54-3.32-.89-5.25,6.93-7.59,13.4-6.37a19.27,19.27,0,0,0,4.46.33,3.52,3.52,0,0,0,3.35-3.52c0-.33,0-.65,0-.94.09-.8.15-1.58.2-2.33a3.46,3.46,0,0,0-4.35-3.6,9.78,9.78,0,0,0-2.49,1.1c-4.86,3.1-8.8,3.44-10.81,1.51-2.51-4.86,4-7.7,10.64-8.54a12.36,12.36,0,0,0,3.69-1,3.51,3.51,0,0,0,1.78-4.32C145.58,3.8,141.66,2,141.66,2c-3.72-2.17-8.51-2.37-13.17-1.6A3.5,3.5,0,0,0,125.65,3a10.38,10.38,0,0,0-.13,4.85c1.17,5,1.34,8-2.18,8-2.34,0-2.87-3.68-3.08-5.36a29.59,29.59,0,0,1-.17-5c.06-1.48-.42-2.68-2.12-1.9-1.27.58-2.51,1.23-3.72,1.92a3.51,3.51,0,0,0-1.72,3.73,14.46,14.46,0,0,0,2.94,6.59c3.85,4.44,6.53,11.73,2.35,13.4s-6.45-5.59-7-11.34a18.27,18.27,0,0,0-1.06-3.87,3.54,3.54,0,0,0-5.53-1.55c-2.21,1.79-4.36,3.66-6.5,5.56a4.9,4.9,0,0,0-1.39,5.18c1.08,3.25,2.88,6.6,5.86,8.7,7.37,5.19,8.37,13.9,3.18,15.24S96.37,41.87,94.7,35a14.67,14.67,0,0,0-2-3.62A5,5,0,0,0,85,31.05c-.7.81-1.39,1.62-2.07,2.45a4.12,4.12,0,0,0-.4,4.62c.35.61.71,1.21,1.09,1.79,3.65,5.61,10.49,7.43,14.66,12.37,2.74,3.24,3.76,9.46-1.69,10.3a7.41,7.41,0,0,1-4.45-.78c-5.25-2.66-6.39-9-10.27-13-.18-.19-1.16-1-2.38-2.11a4.15,4.15,0,0,0-6.34,1.06l0,0q-1.43,3-2.47,5.92a4.83,4.83,0,0,0,1.12,5c3.12,3.13,7.4,6.15,12.57,6.55,11.23.87,16.42,5.4,14.91,10.76S88.5,80.23,81.8,75a27.68,27.68,0,0,0-9.69-4.39,3.67,3.67,0,0,0-4.63,3.78,43.58,43.58,0,0,0,1.39,8.51A5.74,5.74,0,0,0,73.41,87c4.94.91,9.42-.57,14.23-1.3,3-.46,6.39,0,8,2.94,2.23,4-1.2,9.38-14.22,6.7A13.15,13.15,0,0,0,79,95a2.34,2.34,0,0,0-2,3.79,45.9,45.9,0,0,0,22.28,14.94c21.2,4.88,34.45-.36,42.54-8.57A1.26,1.26,0,0,0,141,103a14.27,14.27,0,0,0-3.21,0c-7.71.51-18.59-.5-18.43-6s7.88-6.36,15.08-2.84C138.3,96,143.26,96.23,147,96a2.34,2.34,0,0,0,2-1.31,46.49,46.49,0,0,0,2.89-7.76A2.33,2.33,0,0,0,149.38,84a49.64,49.64,0,0,0-9.48,1.94c-7.73,2.51-11.87.17-11.94-3.85C128.56,75.54,136.24,77.72,141.71,78.06Z"/><path class="cls-1" d="M139.24,4.25c.58.76-1.15,2.13-1.6,2.65A89.27,89.27,0,0,0,132.2,14a100.11,100.11,0,0,0-8.66,15.67l-.92,2-.82,2.08c-.54,1.4-1.12,2.77-1.61,4.18-.92,2.85-1.94,5.65-2.65,8.55-.38,1.45-.81,2.88-1.14,4.33l-.92,4.35L115,57.4c-.11.67-.16,1.38-.24,2.14l-.44,4.51a186.27,186.27,0,0,1-6.65,36c-.89,2.95-1.9,5.87-3.07,8.75a74.67,74.67,0,0,1-4,8.47,52,52,0,0,1-11.76,15,2.94,2.94,0,1,1-3.83-4.46l.06,0,.05,0a46.59,46.59,0,0,0,10.85-13,71.54,71.54,0,0,0,4-7.82q1.77-4,3.19-8.25a182.72,182.72,0,0,0,7.58-34.95l.57-4.49c.1-.74.19-1.54.35-2.35l.55-2.24,1.09-4.47c.39-1.49.88-2.93,1.31-4.4.82-2.95,2-5.79,3-8.66.54-1.43,1.19-2.82,1.77-4.23l.91-2.1,1-2.06a101.33,101.33,0,0,1,9.35-15.72,91.21,91.21,0,0,1,5.77-7.1c.52-.57,1.57-2.29,2.52-1.8A.8.8,0,0,1,139.24,4.25Z"/><polygon class="cls-3" points="112.25 180.4 51.49 180.4 37.52 124.32 126.22 124.32 112.25 180.4"/><g class="cls-4"><path class="cls-1" d="M86.67,170.09a31.13,31.13,0,0,1-30.21-23.62l-5.52-22.15H37.52l14,56.08h60.77l2.56-10.31Z"/></g><rect class="cls-3" x="31.24" y="116.5" width="101.26" height="15.65" rx="4.34" ry="4.34"/><g class="cls-4"><path class="cls-1" d="M46.43,128a4.34,4.34,0,0,1-4.34-4.34v-7a1.75,1.75,0,0,1,0-.24H35.58a4.33,4.33,0,0,0-4.34,4.33v7a4.34,4.34,0,0,0,4.34,4.34h92.58a4.33,4.33,0,0,0,4.32-4.1Z"/></g></g></g></svg>