<svg xmlns="http://www.w3.org/2000/svg" viewBox="0 0 94.23 73.27"><defs><style>.cls-1{fill:#e9eefa;}.cls-2{fill:#837db2;}.cls-3{fill:#444172;}.cls-4{fill:#d0d2d3;}.cls-5{fill:#393963;}</style></defs><title>Asset 26</title><g id="Layer_2" data-name="Layer 2"><g id="Layer_1-2" data-name="Layer 1"><polygon class="cls-1" points="78.37 63.53 41.81 63.53 41.81 1.42 78.37 4.03 78.37 63.53"/><rect class="cls-2" x="38.38" y="6.73" width="36.55" height="59.5"/><rect class="cls-3" x="76.96" y="4.03" width="17.27" height="69.24"/><rect class="cls-4" x="79.57" y="55.4" width="12.05" height="5.12" rx="1.6" ry="1.6"/><rect class="cls-4" x="79.57" y="63.67" width="12.05" height="5.12" rx="1.6" ry="1.6"/><polygon class="cls-3" points="76.96 4.03 36.07 41.36 36.07 73.27 76.96 73.27 76.96 4.03"/><path class="cls-5" d="M80.48,52.46V4H77V73.27H94.23v-3.9A17.28,17.28,0,0,1,80.48,52.46Z"/><polygon class="cls-5" points="76.96 4.03 56.52 52.63 36.07 63.67 36.07 73.27 76.96 73.27 76.96 4.03"/><polygon class="cls-1" points="42.29 63.53 5.74 63.53 5.74 0 42.29 4.03 42.29 63.53"/><rect class="cls-2" x="2.31" y="6.73" width="36.55" height="59.5"/><rect class="cls-3" x="40.88" y="4.03" width="17.27" height="69.24"/><path class="cls-5" d="M44.41,52.46V4H40.88V73.27H58.16v-3.9A17.28,17.28,0,0,1,44.41,52.46Z"/><rect class="cls-4" x="43.5" y="55.4" width="12.05" height="5.12" rx="1.6" ry="1.6"/><rect class="cls-4" x="43.5" y="63.67" width="12.05" height="5.12" rx="1.6" ry="1.6"/><polygon class="cls-3" points="40.88 4.03 0 41.36 0 73.27 40.88 73.27 40.88 4.03"/><polygon class="cls-5" points="40.88 4.03 20.44 52.63 0 63.67 0 73.27 40.88 73.27 40.88 4.03"/></g></g></svg>