<svg xmlns="http://www.w3.org/2000/svg" viewBox="0 0 48.16 52.03"><defs><style>.cls-1{isolation:isolate;}.cls-2,.cls-3{fill:#9ea7ab;}.cls-3,.cls-5{opacity:0.5;mix-blend-mode:multiply;}.cls-4,.cls-5{fill:#d3dee2;}.cls-6{fill:#444172;}.cls-7{fill:#837db2;}.cls-8{fill:#fefefe;}</style></defs><title>Asset 25</title><g class="cls-1"><g id="Layer_2" data-name="Layer 2"><g id="Layer_1-2" data-name="Layer 1"><path class="cls-2" d="M39.67,45,33.43,5.12a6.05,6.05,0,0,0-6-5.12H17.07a6.05,6.05,0,0,0-6,5.12L.07,45a6.05,6.05,0,0,0,6,7H33.69A6.05,6.05,0,0,0,39.67,45Z"/><path class="cls-3" d="M3.13,34,.07,45a6.05,6.05,0,0,0,6,7H33.69a6.05,6.05,0,0,0,6-7L37,28c-7.66-6.79-15.69-13.2-18.88-14C18.12,14,13.86,29.34,3.13,34Z"/><path class="cls-4" d="M48.09,45,44.24,5.12a6.05,6.05,0,0,0-6-5.12H25.49a6.05,6.05,0,0,0-6,5.12L13.27,45a6.05,6.05,0,0,0,6,7H42.11A6.05,6.05,0,0,0,48.09,45Z"/><path class="cls-5" d="M19.24,52H42.11a6.05,6.05,0,0,0,6-7l-2.65-27.4S43,46.05,13.27,45A6.05,6.05,0,0,0,19.24,52Z"/><circle class="cls-6" cx="32.13" cy="37.13" r="10.64" transform="translate(-11.41 59.84) rotate(-76.67)"/><path class="cls-7" d="M32.13,45A7.91,7.91,0,1,1,40,37.13,7.91,7.91,0,0,1,32.13,45Z"/><path class="cls-8" d="M32.13,42.29a5.16,5.16,0,1,1,5.16-5.16A5.16,5.16,0,0,1,32.13,42.29Z"/><path class="cls-6" d="M40.88,13.41a8.75,8.75,0,1,1-8.75-8.74A8.74,8.74,0,0,1,40.88,13.41Z"/><path class="cls-7" d="M32.13,19.91a6.5,6.5,0,1,1,6.5-6.5A6.5,6.5,0,0,1,32.13,19.91Z"/><path class="cls-8" d="M32.13,17.64a4.24,4.24,0,1,1,4.24-4.23A4.24,4.24,0,0,1,32.13,17.64Z"/></g></g></g></svg>