<svg xmlns="http://www.w3.org/2000/svg" viewBox="0 0 47.35 70.56"><defs><style>.cls-1{fill:#837db2;}.cls-2{opacity:0.6;}.cls-3{fill:#444172;}.cls-4{fill:#393963;}.cls-5{fill:#d0d2d3;}.cls-6{opacity:0.3;}</style></defs><title>Asset 20</title><g id="Layer_2" data-name="Layer 2"><g id="Layer_1-2" data-name="Layer 1"><rect class="cls-1" x="13.84" y="65.93" width="18.21" height="4.64" rx="0.48" ry="0.48"/><g class="cls-2"><path class="cls-3" d="M13.84,67.17v2.14a1.24,1.24,0,0,0,1.24,1.25h1.55a3.3,3.3,0,0,1-.3-1.92l5-.52s1.32-1.27,1.59-1.66c0-.09,0-.29-.2-.53H15.08A1.24,1.24,0,0,0,13.84,67.17Z"/></g><path class="cls-4" d="M5.84,17.81a5.41,5.41,0,0,1,2.71.53,5.16,5.16,0,0,1-2,1.93.39.39,0,0,1-.17.11c-.4.12-.89-.36-1.1-1.06s-.06-1.38.34-1.5A.44.44,0,0,1,5.84,17.81Z"/><path class="cls-4" d="M17.81,42.19a7.28,7.28,0,0,1-3.7.28A7.14,7.14,0,0,1,16,39.27a.7.7,0,0,1,.18-.2c.48-.29,1.29.15,1.81,1s.56,1.76.09,2.06A.79.79,0,0,1,17.81,42.19Z"/><path class="cls-4" d="M33.85,26.85a7.07,7.07,0,0,0,3.48-1.29,7.24,7.24,0,0,0-3-2.12.55.55,0,0,0-.25-.1c-.55-.07-1.1.67-1.22,1.65s.22,1.83.78,1.9A.61.61,0,0,0,33.85,26.85Z"/><path class="cls-4" d="M28.07,42.19a7.28,7.28,0,0,0,3.7.28,7.14,7.14,0,0,0-1.88-3.2.7.7,0,0,0-.18-.2c-.48-.29-1.29.15-1.81,1s-.56,1.76-.09,2.06A.79.79,0,0,0,28.07,42.19Z"/><path class="cls-4" d="M32.7,12.77a7.19,7.19,0,0,0,1.11-3.54,7.09,7.09,0,0,0-3.54,1.1.49.49,0,0,0-.23.14c-.4.39-.15,1.28.55,2s1.58.94,2,.55A.76.76,0,0,0,32.7,12.77Z"/><path class="cls-4" d="M45.92,24.42a6.4,6.4,0,0,0,1.43-3A6.4,6.4,0,0,0,44.1,22a.65.65,0,0,0-.23.09c-.39.3-.29,1.11.23,1.82s1.27,1,1.67.74A.7.7,0,0,0,45.92,24.42Z"/><path class="cls-5" d="M13.82,25.47a11.6,11.6,0,0,1-3.65.72,9.88,9.88,0,0,1-3.85-.61,9.68,9.68,0,0,1-3.48-2.24A12.28,12.28,0,0,1,1.5,21.78c-.39-.55-.7-1.13-1-1.7A3.21,3.21,0,1,1,6,16.78a3.67,3.67,0,0,1,.31.67l.09.29c.1.34.17.73.29,1.07a7,7,0,0,0,.43,1A4.64,4.64,0,0,0,8.4,21.32a5.51,5.51,0,0,0,2.06.95,7.24,7.24,0,0,0,1.25.19,8.36,8.36,0,0,0,1.22,0h.31a1.55,1.55,0,0,1,.58,3Z"/><g class="cls-2"><path class="cls-3" d="M3.07,15.23c.29,2.2,1.12,5.44,3.53,7.36a7.39,7.39,0,0,0,4.76,1.56,13,13,0,0,0,3.24-.45.52.52,0,0,0,.18-.1,1.54,1.54,0,0,0-.55-.81c-2.94.74-5.3.42-7-.95-2-1.64-2.83-4.47-3.13-6.5A3.34,3.34,0,0,0,3.07,15.23Z"/></g><g class="cls-2"><path class="cls-3" d="M14.48,24.4a11.27,11.27,0,0,1-8.83-1.25,13.85,13.85,0,0,1-5-6.62,3.15,3.15,0,0,0-.54,1.23,14.17,14.17,0,0,0,5,6.19,11.18,11.18,0,0,0,6.2,1.77,15.77,15.77,0,0,0,2.42-.22l.08,0a1.57,1.57,0,0,0,1-1A.51.51,0,0,0,14.48,24.4Z"/></g><g class="cls-6"><path class="cls-4" d="M13.82,25.47a1.55,1.55,0,0,0-.58-3h-.31a8.36,8.36,0,0,1-1.22,0,7.24,7.24,0,0,1-1.25-.19,6.15,6.15,0,0,1-1.12-.39,12.92,12.92,0,0,0-.41,2.42A11.26,11.26,0,0,1,.31,19.76a3.13,3.13,0,0,0,.15.32c.34.57.65,1.15,1,1.7a12.28,12.28,0,0,0,1.34,1.56,9.68,9.68,0,0,0,3.48,2.24,9.88,9.88,0,0,0,3.85.61,11.6,11.6,0,0,0,3.65-.72Z"/></g><path class="cls-5" d="M29.22,32.85A14.44,14.44,0,0,0,31,32.6a13,13,0,0,0,1.78-.49,8.88,8.88,0,0,0,2.89-1.64,5.2,5.2,0,0,0,1.56-2.29,8.06,8.06,0,0,0,.45-2.8l0-.29a4.2,4.2,0,1,1,8.17,1.54,22.57,22.57,0,0,1-.94,2.73l-.66,1.33A11.31,11.31,0,0,1,43.46,32,12.1,12.1,0,0,1,39,35.77a14.87,14.87,0,0,1-5.17,1.46,17.78,17.78,0,0,1-2.52.08A18.41,18.41,0,0,1,28.76,37a2.09,2.09,0,0,1,.18-4.15Z"/><g class="cls-2"><path class="cls-3" d="M30.5,34.07a.48.48,0,0,0,.41.54,3,3,0,0,0,.58,0,8.1,8.1,0,0,0,5-1.8c2.8-2.2,4.51-6.14,5.12-11.69a4.12,4.12,0,0,0-1,.19c-.6,5.11-2.17,8.73-4.69,10.72A7,7,0,0,1,31,33.66.48.48,0,0,0,30.5,34.07Z"/></g><g class="cls-2"><path class="cls-3" d="M40.34,33.59c3.44-3.18,4.48-8.05,4.79-10.92a4.08,4.08,0,0,0-.9-.81c-.21,2.56-1.07,7.8-4.54,11C37.36,35,34.23,36,30.38,35.59a.49.49,0,0,0-.53.44.48.48,0,0,0,.44.52,16.31,16.31,0,0,0,1.69.08A11.84,11.84,0,0,0,40.34,33.59Z"/></g><g class="cls-6"><path class="cls-4" d="M44.94,29.36a22.57,22.57,0,0,0,.94-2.73,4.23,4.23,0,0,0,.21-1.07A4.35,4.35,0,0,0,46,24.3c-.68,2.15-3.81,10.51-11.71,10.35.19-.88.39-2.31.55-3.52a9.54,9.54,0,0,1-2,1A13,13,0,0,1,31,32.6a14.44,14.44,0,0,1-1.79.25l-.28,0A2.09,2.09,0,0,0,28.76,37a18.41,18.41,0,0,0,2.54.28,17.78,17.78,0,0,0,2.52-.08A14.87,14.87,0,0,0,39,35.77,12.1,12.1,0,0,0,43.46,32a11.31,11.31,0,0,0,.82-1.26Z"/></g><path class="cls-1" d="M25,4.88S24.47.32,22.94,0c-1.53.32-2,4.88-2,4.88a5.5,5.5,0,0,0-4,0c1,3.19,6,3.92,6,3.92s4.93-.73,6-3.92A5.5,5.5,0,0,0,25,4.88Z"/><g class="cls-2"><path class="cls-3" d="M28.71,4.81a6.24,6.24,0,0,1-1.3,1.05,7.26,7.26,0,0,1-7.75-.12,5.57,5.57,0,0,1-1.33-1.19A5.67,5.67,0,0,0,17,4.88c1,3.19,6,3.92,6,3.92s4.93-.73,6-3.92Z"/></g><path class="cls-5" d="M35,20.6a15.69,15.69,0,0,0-2.63-8.51,11.61,11.61,0,0,0-18.94,0,15.69,15.69,0,0,0-2.63,8.51C10.28,33.68,19,44.81,19,44.81h7.88S35.6,33.68,35,20.6Z"/><g class="cls-2"><path class="cls-3" d="M13.49,22.16c0,8.77,4,18.44,5.88,22.65h1.07c-1.8-3.86-6-13.76-6-22.65A21.84,21.84,0,0,1,20.32,7.49a11.39,11.39,0,0,0-1.74.56A22.46,22.46,0,0,0,13.49,22.16Z"/></g><g class="cls-2"><path class="cls-3" d="M32.39,22.16A22.46,22.46,0,0,0,27.3,8.05a11.39,11.39,0,0,0-1.74-.56,21.84,21.84,0,0,1,5.86,14.67c0,8.89-4.18,18.79-6,22.65h1.07C28.43,40.6,32.39,30.93,32.39,22.16Z"/></g><g class="cls-2"><path class="cls-3" d="M21.26,44.81h1A138.4,138.4,0,0,1,19.9,22.16,44.06,44.06,0,0,1,22.26,7.24a9.88,9.88,0,0,0-1.08.11,45.53,45.53,0,0,0-2.24,14.81A138.19,138.19,0,0,0,21.26,44.81Z"/></g><g class="cls-2"><path class="cls-3" d="M24.62,44.81a138.19,138.19,0,0,0,2.32-22.65A45.53,45.53,0,0,0,24.7,7.35a9.63,9.63,0,0,0-1.08-.11A44.06,44.06,0,0,1,26,22.16a138.4,138.4,0,0,1-2.34,22.65Z"/></g><g class="cls-6"><path class="cls-4" d="M25.44,43a7.3,7.3,0,0,1-6.31-3.59C16.59,35,13,27.31,13.34,18.74A15.8,15.8,0,0,1,16,10.23a11.35,11.35,0,0,1,1.38-1.6,11.08,11.08,0,0,0-3.87,3.46,15.69,15.69,0,0,0-2.63,8.51C10.28,33.68,19,44.81,19,44.81h7.88s.52-.67,1.3-1.86Z"/></g><path class="cls-4" d="M28.88,21.29A7,7,0,0,0,32,19.35a7.21,7.21,0,0,0-3.39-1.49.47.47,0,0,0-.26-.05c-.56,0-1,.86-.89,1.85s.57,1.75,1.13,1.72A.58.58,0,0,0,28.88,21.29Z"/><path class="cls-4" d="M23.65,14.88A7.21,7.21,0,0,0,26.81,13a7.18,7.18,0,0,0-3.39-1.5.86.86,0,0,0-.27,0c-.55,0-.95.87-.89,1.85S22.83,15,23.39,15A.62.62,0,0,0,23.65,14.88Z"/><path class="cls-4" d="M28.11,35.48a7.15,7.15,0,0,0,3.71-.1,7.32,7.32,0,0,0-2.19-3,.61.61,0,0,0-.21-.18c-.5-.24-1.26.28-1.69,1.16s-.39,1.81.12,2.05A.76.76,0,0,0,28.11,35.48Z"/><path class="cls-4" d="M12,26.85a7.07,7.07,0,0,1-3.48-1.29,7.24,7.24,0,0,1,3-2.12.55.55,0,0,1,.25-.1c.55-.07,1.1.67,1.22,1.65s-.22,1.83-.77,1.9A.63.63,0,0,1,12,26.85Z"/><path class="cls-4" d="M1.51,16.63a5.33,5.33,0,0,1,.65-2.69A5.43,5.43,0,0,1,4,16a.64.64,0,0,1,.1.18c.1.4-.4.88-1.11,1.06s-1.38,0-1.48-.41A.45.45,0,0,1,1.51,16.63Z"/><path class="cls-4" d="M13.18,12.77a7.19,7.19,0,0,1-1.11-3.54,7.09,7.09,0,0,1,3.54,1.1.49.49,0,0,1,.23.14c.4.39.15,1.28-.55,2s-1.58.94-2,.55A.76.76,0,0,1,13.18,12.77Z"/><path class="cls-4" d="M17,21.29a7.09,7.09,0,0,1-3.16-1.94,7.21,7.21,0,0,1,3.39-1.49.48.48,0,0,1,.26-.05c.56,0,1,.86.89,1.85s-.57,1.75-1.13,1.72A.58.58,0,0,1,17,21.29Z"/><path class="cls-4" d="M22.53,28a7.28,7.28,0,0,1-3.7-.3,7.18,7.18,0,0,1,2.35-2.87.5.5,0,0,1,.22-.16c.51-.22,1.24.34,1.63,1.24s.28,1.83-.24,2.05A.75.75,0,0,1,22.53,28Z"/><path class="cls-4" d="M23.19,39a7.25,7.25,0,0,1-3.69-.3,7.17,7.17,0,0,1,2.35-2.87.54.54,0,0,1,.21-.16c.51-.22,1.24.34,1.63,1.25s.28,1.82-.23,2A.77.77,0,0,1,23.19,39Z"/><path class="cls-4" d="M17.77,35.48a7.11,7.11,0,0,1-3.7-.1,7.22,7.22,0,0,1,2.18-3,.72.72,0,0,1,.21-.18c.5-.24,1.26.28,1.69,1.16s.39,1.81-.12,2.05A.76.76,0,0,1,17.77,35.48Z"/><path class="cls-4" d="M42.37,22.52a6.44,6.44,0,0,0-1.92-2.69,6.45,6.45,0,0,0-1.12,3.11.45.45,0,0,0,0,.23c.06.5.82.8,1.69.68s1.52-.61,1.46-1.11A.85.85,0,0,0,42.37,22.52Z"/><path class="cls-4" d="M42.31,29.74a6.44,6.44,0,0,0,3.29-.27,6.4,6.4,0,0,0-2.09-2.55.62.62,0,0,0-.19-.14c-.46-.2-1.11.3-1.45,1.11s-.25,1.62.21,1.81A.59.59,0,0,0,42.31,29.74Z"/><path class="cls-4" d="M2.92,21.85a5.4,5.4,0,0,1-2.77,0,5.44,5.44,0,0,1,1.59-2.26.49.49,0,0,1,.15-.14c.37-.19,1,.19,1.29.84s.31,1.34-.07,1.53A.32.32,0,0,1,2.92,21.85Z"/><path class="cls-1" d="M23,49.85H10.26s.09,10,1.91,15a4.2,4.2,0,0,0,3.14,2.68,40.06,40.06,0,0,0,7.73.58,40.19,40.19,0,0,0,7.74-.58,4.2,4.2,0,0,0,3.14-2.68c1.81-5.05,1.9-15,1.9-15Z"/><g class="cls-2"><path class="cls-3" d="M26.47,68c.49,0,1,0,1.41-.09l.73-.08,1-.11.59-.1.64-.12a4.2,4.2,0,0,0,2.72-1.93,25.47,25.47,0,0,1-7.78,1c-8,0-9.85-2-9.85-2-2.08-2.65-2.69-10.71-2.86-14.72H10.26s.09,10,1.91,15a4.15,4.15,0,0,0,1.21,1.75,4.3,4.3,0,0,0,1.93.93,40.06,40.06,0,0,0,7.73.58c1,0,1.87,0,2.68,0Z"/></g><rect class="cls-1" x="8.39" y="44.64" width="29.1" height="5.87" rx="0.63" ry="0.63"/><g class="cls-2"><path class="cls-3" d="M15.11,48.87a4.22,4.22,0,0,1-4.22-4.22H10a1.64,1.64,0,0,0-1.65,1.64v2.58A1.64,1.64,0,0,0,10,50.5h25.8a1.65,1.65,0,0,0,1.65-1.63Z"/></g></g></g></svg>