<svg xmlns="http://www.w3.org/2000/svg" viewBox="0 0 178.11 28.72"><defs><style>.cls-1{fill:#837db2;}.cls-2{fill:#d0d2d3;}.cls-3{opacity:0.5;}.cls-4{fill:#6c6399;}.cls-5{fill:#f9fcfb;}.cls-6{fill:#bababa;}.cls-7{fill:#444172;}</style></defs><title>Asset 19</title><g id="Layer_2" data-name="Layer 2"><g id="Layer_1-2" data-name="Layer 1"><path class="cls-1" d="M8.39,0a7.18,7.18,0,0,0,0,14.36H59.88V0Z"/><path class="cls-2" d="M16.75,13.2s-2.2-1.72-2.2-5.8a9.11,9.11,0,0,1,2.2-6.24H23a9.11,9.11,0,0,0-2.2,6.24c0,4.08,2.2,5.8,2.2,5.8Z"/><path class="cls-2" d="M31.76,0H28.51a11,11,0,0,0-3,7.33,9.91,9.91,0,0,0,2.93,7H32a8.52,8.52,0,0,1-4.15-7C27.81,3.91,30,1.43,31.76,0Z"/><path class="cls-2" d="M9.16,7.33c0-3.42,2.22-5.9,3.95-7.33H9.87A11,11,0,0,0,6.92,7.33a10,10,0,0,0,2.92,7h3.47A8.54,8.54,0,0,1,9.16,7.33Z"/><g class="cls-3"><path class="cls-4" d="M1.55,5.11a7.12,7.12,0,0,0-.34,2.07h0a7.18,7.18,0,0,0,7.18,7.18H59.88V10.22H8.39A7.15,7.15,0,0,1,1.55,5.11Z"/></g><path class="cls-5" d="M38.7,2.21H82.3a0,0,0,0,1,0,0v10a0,0,0,0,1,0,0H38.7a1.82,1.82,0,0,1-1.82-1.82V4A1.82,1.82,0,0,1,38.7,2.21Z"/><path class="cls-6" d="M41.85,2.21H84.54V0H40.44a7.18,7.18,0,0,0-7.18,7.18h0a7.17,7.17,0,0,0,7.18,7.18h44.1v-2.2H41.85a5,5,0,0,1-5-5h0A5,5,0,0,1,41.85,2.21Z"/><polygon class="cls-1" points="44.67 4.44 44.67 10.22 47.45 8.83 49.62 10.22 49.62 4.44 44.67 4.44"/><path class="cls-4" d="M7.18,14.36A7.18,7.18,0,0,0,0,21.54H0a7.17,7.17,0,0,0,7.18,7.18H58.67V14.36Z"/><path class="cls-2" d="M9.64,21.52A11.76,11.76,0,0,1,12,14.36H7.18c-.13,0-.25,0-.39,0a16.2,16.2,0,0,0-1.63,7.12,17,17,0,0,0,1.6,7.16c.14,0,.28,0,.42,0h4.7A13.08,13.08,0,0,1,9.64,21.52Z"/><path class="cls-2" d="M28.84,21.52a11.76,11.76,0,0,1,2.37-7.16H26a16.2,16.2,0,0,0-1.66,7.16A17,17,0,0,0,26,28.72h5.11A13.08,13.08,0,0,1,28.84,21.52Z"/><g class="cls-3"><path class="cls-7" d="M.34,19.47A7.12,7.12,0,0,0,0,21.54H0a7.18,7.18,0,0,0,7.18,7.18H58.67V24.59H7.18A7.16,7.16,0,0,1,.34,19.47Z"/></g><path class="cls-5" d="M37.49,16.57h43.6a0,0,0,0,1,0,0v10a0,0,0,0,1,0,0H37.49a1.82,1.82,0,0,1-1.82-1.82v-6.3A1.82,1.82,0,0,1,37.49,16.57Z"/><path class="cls-6" d="M40.64,16.57H83.33V14.36H39.23a7.18,7.18,0,0,0-7.18,7.18h0a7.17,7.17,0,0,0,7.18,7.18h44.1v-2.2H40.64a5,5,0,0,1-5-5h0A5,5,0,0,1,40.64,16.57Z"/><polygon class="cls-1" points="59.5 20.2 59.5 25.99 62.28 24.6 64.45 25.99 64.45 20.2 59.5 20.2"/><path class="cls-1" d="M153.45,28.72h-56a2.63,2.63,0,0,1-2.63-2.63V17a2.63,2.63,0,0,1,2.63-2.63h56Z"/><g class="cls-3"><path class="cls-4" d="M95.12,19.47a7.12,7.12,0,0,0-.34,2.07h0A7.17,7.17,0,0,0,102,28.72h51.49V24.59H102A7.16,7.16,0,0,1,95.12,19.47Z"/></g><path class="cls-5" d="M132.27,16.57h43.6a0,0,0,0,1,0,0v10a0,0,0,0,1,0,0h-43.6a1.82,1.82,0,0,1-1.82-1.82v-6.3A1.82,1.82,0,0,1,132.27,16.57Z"/><path class="cls-6" d="M135.42,16.57h42.69V14.36H134a7.19,7.19,0,0,0-7.18,7.18h0A7.18,7.18,0,0,0,134,28.72h44.11v-2.2H135.42a5,5,0,0,1-5-5h0A5,5,0,0,1,135.42,16.57Z"/><polygon class="cls-1" points="134.1 20.2 134.1 25.99 136.88 24.6 139.05 25.99 139.05 20.2 134.1 20.2"/></g></g></svg>