<svg xmlns="http://www.w3.org/2000/svg" viewBox="0 0 1912.19 1060.22"><defs><style>.cls-1{opacity:0.03;}.cls-2{fill:#e0eaf9;}</style></defs><title>Asset 31</title><g id="Layer_2" data-name="Layer 2"><g id="Layer_1-2" data-name="Layer 1"><g class="cls-1"><polygon class="cls-2" points="1901.92 106.26 1886.28 117.99 1886.28 121.53 1903.61 108.53 1901.92 106.26"/><polygon class="cls-2" points="1897.81 325.51 1898.3 322.73 1886.28 320.61 1886.28 323.48 1897.81 325.51"/><polygon class="cls-2" points="1886.28 481.41 1898.37 478.62 1897.73 475.87 1886.28 478.51 1886.28 481.41"/><polygon class="cls-2" points="1887.08 589.12 1886.28 587.97 1886.28 589.69 1887.08 589.12"/><rect class="cls-2" x="1886.27" y="636.02" width="25.91" height="2.82"/><polygon class="cls-2" points="1903.61 786.98 1901.92 784.71 1886.28 796.45 1886.28 799.98 1903.61 786.98"/><polygon class="cls-2" points="1897.81 1003.97 1898.3 1001.18 1886.28 999.06 1886.28 1001.93 1897.81 1003.97"/><polygon class="cls-2" points="1247 363.06 1225.8 379.55 1227.54 381.77 1248.74 365.28 1247 363.06"/><rect class="cls-2" x="1867.19" y="6.05" width="2.83" height="30.71" transform="translate(847.34 1586.39) rotate(-57.53)"/><polygon class="cls-2" points="1883.07 120.4 1884.76 122.66 1886.28 121.53 1886.28 117.99 1883.07 120.4"/><rect class="cls-2" x="1864.83" y="193.13" width="2.83" height="33.48" transform="translate(521.23 1520.54) rotate(-50.68)"/><polygon class="cls-2" points="1857.76 318.45 1886.28 323.48 1886.28 320.61 1858.25 315.66 1857.76 318.45"/><polygon class="cls-2" points="1807.05 308.74 1805.31 306.52 1784.11 323.01 1785.85 325.23 1807.05 308.74"/><rect class="cls-2" x="1855.65" y="155.45" width="28.27" height="2.82"/><polygon class="cls-2" points="1860.07 391.88 1857.41 390.89 1849.74 411.28 1852.77 411.28 1860.07 391.88"/><polygon class="cls-2" points="1795.37 389.95 1799.45 411.28 1802.33 411.28 1798.14 389.42 1795.37 389.95"/><rect class="cls-2" x="1734.6" y="155.81" width="2.83" height="32.04" transform="translate(198.42 995.89) rotate(-33.84)"/><polygon class="cls-2" points="1658.97 400.31 1658.55 411.28 1661.37 411.28 1661.79 400.42 1658.97 400.31"/><rect class="cls-2" x="1583.21" y="381.28" width="30.72" height="2.83" transform="translate(374.36 1479.59) rotate(-55.32)"/><polygon class="cls-2" points="1496.79 395.01 1508.06 411.28 1511.5 411.28 1499.11 393.4 1496.79 395.01"/><rect class="cls-2" x="1676.29" y="103.23" width="33.48" height="2.82" transform="translate(493.97 1304.45) rotate(-48.55)"/><polygon class="cls-2" points="1369.4 395.63 1358.76 411.28 1362.18 411.28 1371.74 397.23 1369.4 395.63"/><rect class="cls-2" x="1278.92" y="379.35" width="40.66" height="2.82" transform="translate(653 1570.47) rotate(-77.82)"/><polygon class="cls-2" points="1237.04 406.38 1240.57 411.28 1244.04 411.28 1239.33 404.74 1237.04 406.38"/><rect class="cls-2" x="1449.03" y="377.31" width="28.27" height="2.83" transform="translate(1028.52 1826.27) rotate(-87.8)"/><rect class="cls-2" x="1288.86" y="143.72" width="2.82" height="38.06" transform="translate(31.84 490.83) rotate(-21.8)"/><rect class="cls-2" x="1247.29" y="74.18" width="41.21" height="2.82" transform="translate(550.75 1123.91) rotate(-59.04)"/><rect class="cls-2" x="1260.79" y="315.64" width="37.77" height="2.83" transform="translate(883.42 1574.46) rotate(-86.42)"/><rect class="cls-2" x="1270.89" y="244.97" width="31.69" height="2.82" transform="translate(242.82 1037.98) rotate(-48.01)"/><polygon class="cls-2" points="1383.35 320.23 1406.91 353.21 1409.21 351.57 1385.65 318.59 1383.35 320.23"/><rect class="cls-2" x="1462" y="8.22" width="28.76" height="2.83" transform="translate(261.35 848.38) rotate(-34.99)"/><rect class="cls-2" x="1737.62" y="29.03" width="2.83" height="29.52" transform="translate(867.85 1549.51) rotate(-61.39)"/><rect class="cls-2" x="1440.8" y="88.2" width="2.82" height="36.04" transform="matrix(0.2, -0.98, 0.98, 0.2, 1055.21, 1499.59)"/><polygon class="cls-2" points="1505.49 200.4 1503.8 198.13 1484.95 212.27 1486.64 214.53 1505.49 200.4"/><rect class="cls-2" x="1466.71" y="285" width="2.83" height="33.48" transform="translate(304.93 1246.95) rotate(-50.71)"/><rect class="cls-2" x="1500.87" y="335.39" width="2.83" height="22.22" transform="translate(412.25 1436.8) rotate(-58)"/><rect class="cls-2" x="1457.53" y="247.32" width="28.27" height="2.82"/><rect class="cls-2" x="1563.3" y="8.41" width="2.83" height="30.72" transform="translate(704.61 1331.1) rotate(-57.53)"/><rect class="cls-2" x="1554.77" y="143.67" width="24.59" height="2.82" transform="translate(977.82 1604.38) rotate(-73.3)"/><rect class="cls-2" x="1560.94" y="195.48" width="2.83" height="33.48" transform="translate(408.77 1287.05) rotate(-50.71)"/><rect class="cls-2" x="1569.19" y="281.21" width="2.83" height="22.22" transform="translate(490.31 1469.27) rotate(-58)"/><rect class="cls-2" x="1772.94" y="150.91" width="28.27" height="2.82"/><polygon class="cls-2" points="1418.29 136.86 1416.67 139.18 1440.23 155.67 1441.85 153.35 1418.29 136.86"/><rect class="cls-2" x="1357.17" y="54.15" width="2.83" height="28.76" transform="translate(523.35 1142.22) rotate(-55.01)"/><rect class="cls-2" x="1320.9" y="108.34" width="28.27" height="2.83"/><rect class="cls-2" x="1349.12" y="170.76" width="30.71" height="2.83" transform="matrix(0.84, -0.54, 0.54, 0.84, 121.17, 760.08)"/><rect class="cls-2" x="1650.86" y="35.02" width="26.86" height="2.83" transform="translate(251.72 917.26) rotate(-33.2)"/><rect class="cls-2" x="1647.97" y="336.84" width="2.83" height="28.75" transform="translate(1229.85 1984.57) rotate(-87.62)"/><polygon class="cls-2" points="1667.77 311.62 1645.32 294.45 1643.6 296.7 1666.05 313.86 1667.77 311.62"/><rect class="cls-2" x="1715.57" y="257.07" width="2.82" height="30.71" transform="translate(11.28 608.32) rotate(-20.16)"/><polygon class="cls-2" points="1639.73 160.38 1663.29 143.89 1661.67 141.57 1638.11 158.06 1639.73 160.38"/><polygon class="cls-2" points="1629.08 205.33 1659.71 214.75 1660.54 212.05 1629.91 202.63 1629.08 205.33"/><rect class="cls-2" x="1730.56" y="335.85" width="2.83" height="30.71" transform="matrix(0.54, -0.84, 0.84, 0.54, 505.82, 1623.86)"/><rect class="cls-2" x="1801.23" y="95.57" width="2.83" height="30.72" transform="translate(741.27 1572.2) rotate(-57.53)"/><polygon class="cls-2" points="1774.71 235.83 1776.4 238.09 1795.25 223.96 1793.55 221.69 1774.71 235.83"/><rect class="cls-2" x="1405.33" y="-2.38" width="2.83" height="28.75" transform="translate(1336.24 1417.02) rotate(-87.62)"/><rect class="cls-2" x="1763.4" y="-9.13" width="2.82" height="26.14" transform="translate(1416.16 1733.98) rotate(-78.73)"/><rect class="cls-2" x="1350.11" y="257.98" width="2.83" height="30.98" transform="translate(-25.91 209.62) rotate(-8.78)"/><rect class="cls-2" x="1367.64" y="234.37" width="33.73" height="2.82" transform="translate(-18.67 295.32) rotate(-12.09)"/><polygon class="cls-2" points="1521.83 48.86 1526.55 81.84 1529.34 81.45 1524.63 48.47 1521.83 48.86"/><polygon class="cls-2" points="1229.83 28.46 1253.39 11.97 1251.77 9.65 1228.21 26.14 1229.83 28.46"/><rect class="cls-2" x="1809.36" y="49.12" width="30.72" height="2.83" transform="translate(745.64 1522.86) rotate(-55.35)"/><rect class="cls-2" x="1388.72" y="272.33" width="27.28" height="2.83" transform="translate(793.49 1566.35) rotate(-75.82)"/><polygon class="cls-2" points="1487.31 148.66 1489 150.93 1507.85 136.79 1506.15 134.53 1487.31 148.66"/><rect class="cls-2" x="1238.21" y="201.27" width="2.82" height="36.04" transform="translate(781.47 1391.83) rotate(-78.69)"/><rect class="cls-2" x="1841.7" y="243.83" width="2.83" height="32.04" transform="translate(167.87 1071.1) rotate(-33.86)"/><rect class="cls-2" x="1423.41" y="57.67" width="27.06" height="2.82" transform="translate(1037.69 1440.7) rotate(-76.24)"/><polygon class="cls-2" points="1628.65 80.35 1609.81 94.48 1611.5 96.75 1630.34 82.61 1628.65 80.35"/><polygon class="cls-2" points="1750.56 402.81 1748.2 401.24 1741.51 411.28 1744.91 411.28 1750.56 402.81"/><polygon class="cls-2" points="1223.46 106.26 1207.82 117.99 1207.82 121.53 1225.16 108.53 1223.46 106.26"/><polygon class="cls-2" points="1219.36 325.51 1219.84 322.73 1207.82 320.61 1207.82 323.48 1219.36 325.51"/><polygon class="cls-2" points="1261.17 511.44 1235.26 530.28 1236.92 532.57 1262.84 513.72 1261.17 511.44"/><polygon class="cls-2" points="1227.54 1060.22 1248.74 1043.73 1247 1041.51 1225.8 1058 1227.54 1060.22"/><polygon class="cls-2" points="1867.11 482.94 1867.74 485.69 1886.28 481.41 1886.28 478.51 1867.11 482.94"/><polygon class="cls-2" points="1863.53 605.61 1886.28 589.69 1886.28 587.97 1885.46 586.8 1861.91 603.29 1863.53 605.61"/><rect class="cls-2" x="1883.92" y="636.02" width="2.36" height="2.82"/><rect class="cls-2" x="1867.19" y="684.5" width="2.83" height="30.72" transform="translate(274.94 1900.58) rotate(-57.53)"/><polygon class="cls-2" points="1886.28 799.98 1886.28 796.45 1883.07 798.85 1884.76 801.11 1886.28 799.98"/><rect class="cls-2" x="1864.83" y="871.58" width="2.83" height="33.48" transform="translate(-3.05 1770.2) rotate(-50.71)"/><polygon class="cls-2" points="1886.28 999.06 1858.25 994.11 1857.76 996.9 1886.28 1001.93 1886.28 999.06"/><polygon class="cls-2" points="1805.31 984.97 1784.11 1001.46 1785.85 1003.69 1807.05 987.2 1805.31 984.97"/><rect class="cls-2" x="1855.65" y="833.9" width="28.27" height="2.82"/><rect class="cls-2" x="1744.02" y="546.86" width="2.83" height="32.04" transform="translate(-17.89 1066.93) rotate(-33.83)"/><polygon class="cls-2" points="1454.89 538.66 1470.48 562.82 1472.85 561.28 1457.26 537.13 1454.89 538.66"/><rect class="cls-2" x="1606.77" y="506.13" width="30.72" height="2.83" transform="translate(282.28 1553.36) rotate(-55.35)"/><rect class="cls-2" x="1734.6" y="834.26" width="2.83" height="32.04" transform="translate(-179.41 1110.83) rotate(-33.84)"/><polygon class="cls-2" points="1667.47 594.87 1651.89 570.71 1649.51 572.24 1665.1 596.41 1667.47 594.87"/><rect class="cls-2" x="1676.29" y="781.68" width="33.48" height="2.82" transform="translate(-14.59 1533.84) rotate(-48.55)"/><rect class="cls-2" x="1291.22" y="449.88" width="2.82" height="35.88" transform="translate(353.44 1471.64) rotate(-66.8)"/><polygon class="cls-2" points="1251.17 576.07 1248.82 606.7 1251.63 606.92 1253.99 576.29 1251.17 576.07"/><rect class="cls-2" x="1288.86" y="822.18" width="2.82" height="38.06" transform="translate(-220.13 539.36) rotate(-21.8)"/><rect class="cls-2" x="1247.29" y="752.63" width="41.21" height="2.82" transform="translate(-31.5 1452.4) rotate(-59)"/><rect class="cls-2" x="1456.99" y="464.05" width="31.69" height="2.82" transform="translate(141.59 1248.85) rotate(-48.01)"/><polygon class="cls-2" points="1553.2 480.68 1555.03 478.52 1524.4 452.61 1522.58 454.77 1553.2 480.68"/><rect class="cls-2" x="1695.22" y="445.13" width="2.83" height="35.96" transform="translate(413.02 1665.35) rotate(-58.39)"/><rect class="cls-2" x="1675.12" y="524.12" width="35.96" height="2.83" transform="translate(358.17 1692.04) rotate(-58.39)"/><rect class="cls-2" x="1766.21" y="486.43" width="51.67" height="2.83" transform="translate(-42.35 778.35) rotate(-24.23)"/><rect class="cls-2" x="1813" y="538.26" width="28.76" height="2.83" transform="translate(20.27 1143.75) rotate(-34.94)"/><rect class="cls-2" x="1383.09" y="456.04" width="2.82" height="28.27"/><rect class="cls-2" x="1325.43" y="504.1" width="30.98" height="2.83" transform="translate(-61.51 210.9) rotate(-8.79)"/><rect class="cls-2" x="1397.22" y="545.38" width="2.83" height="30.98" transform="translate(-69.02 219.19) rotate(-8.75)"/><rect class="cls-2" x="1405.33" y="498.21" width="33.73" height="2.82" transform="translate(-73.12 309.09) rotate(-12.1)"/><polygon class="cls-2" points="1320.06 593.89 1294.15 612.74 1295.82 615.02 1321.73 596.17 1320.06 593.89"/><rect class="cls-2" x="1260.79" y="994.09" width="37.77" height="2.83" transform="translate(206.29 2210.59) rotate(-86.42)"/><rect class="cls-2" x="1270.89" y="923.42" width="31.69" height="2.82" transform="translate(-261.47 1262.58) rotate(-48.01)"/><polygon class="cls-2" points="1409.21 1030.02 1385.65 997.04 1383.35 998.68 1406.91 1031.66 1409.21 1030.02"/><rect class="cls-2" x="1462" y="686.67" width="28.76" height="2.83" transform="translate(-128.01 969.28) rotate(-34.93)"/><rect class="cls-2" x="1737.62" y="707.48" width="2.83" height="29.52" transform="translate(272.26 1903.1) rotate(-61.39)"/><rect class="cls-2" x="1440.8" y="766.65" width="2.82" height="36.04" transform="matrix(0.2, -0.98, 0.98, 0.2, 389.95, 2045)"/><polygon class="cls-2" points="1505.49 878.85 1503.8 876.59 1484.95 890.72 1486.64 892.99 1505.49 878.85"/><rect class="cls-2" x="1466.71" y="963.45" width="2.83" height="33.48" transform="translate(-220.17 1495.77) rotate(-50.71)"/><rect class="cls-2" x="1500.87" y="1013.84" width="2.83" height="22.22" transform="translate(-163.08 1755.68) rotate(-58)"/><rect class="cls-2" x="1457.53" y="925.78" width="28.27" height="2.82"/><polygon class="cls-2" points="1581.57 589.16 1558.02 605.65 1559.63 607.97 1583.19 591.48 1581.57 589.16"/><rect class="cls-2" x="1580.03" y="638.38" width="28.27" height="2.82"/><rect class="cls-2" x="1563.3" y="686.86" width="2.83" height="30.72" transform="translate(132.23 1645.32) rotate(-57.53)"/><rect class="cls-2" x="1554.77" y="822.12" width="24.59" height="2.82" transform="translate(327.98 2087.89) rotate(-73.3)"/><rect class="cls-2" x="1560.94" y="873.93" width="2.83" height="33.48" transform="translate(-116.32 1535.88) rotate(-50.71)"/><rect class="cls-2" x="1569.19" y="959.66" width="2.83" height="22.22" transform="translate(-85.02 1788.15) rotate(-58)"/><rect class="cls-2" x="1772.94" y="829.36" width="28.27" height="2.82"/><polygon class="cls-2" points="1441.85 831.8 1418.29 815.31 1416.67 817.63 1440.23 834.12 1441.85 831.8"/><rect class="cls-2" x="1462.24" y="603.04" width="28.27" height="2.83"/><rect class="cls-2" x="1357.17" y="732.6" width="2.83" height="28.76" transform="matrix(0.57, -0.82, 0.82, 0.57, -32.46, 1431.6)"/><rect class="cls-2" x="1320.9" y="786.79" width="28.27" height="2.83"/><rect class="cls-2" x="1349.12" y="849.22" width="30.71" height="2.83" transform="translate(-243.36 865.54) rotate(-32.47)"/><rect class="cls-2" x="1650.86" y="713.47" width="26.86" height="2.83" transform="translate(-119.77 1028.01) rotate(-33.2)"/><polygon class="cls-2" points="1679.55 667.33 1657.1 650.17 1655.38 652.41 1677.83 669.58 1679.55 667.33"/><polygon class="cls-2" points="1722.78 642.25 1724.88 613.84 1722.06 613.62 1719.96 642.04 1722.78 642.25"/><rect class="cls-2" x="1647.97" y="1015.3" width="2.83" height="28.75" transform="translate(551.99 2634.8) rotate(-87.62)"/><polygon class="cls-2" points="1667.77 990.07 1645.32 972.9 1643.6 975.15 1666.05 992.31 1667.77 990.07"/><rect class="cls-2" x="1715.57" y="935.52" width="2.82" height="30.71" transform="translate(-222.5 649.87) rotate(-20.16)"/><polygon class="cls-2" points="1663.29 822.34 1661.67 820.02 1638.11 836.51 1639.73 838.83 1663.29 822.34"/><polygon class="cls-2" points="1660.54 890.5 1629.91 881.08 1629.08 883.78 1659.71 893.21 1660.54 890.5"/><rect class="cls-2" x="1730.56" y="1014.31" width="2.83" height="30.71" transform="translate(-66.57 1938.06) rotate(-57.53)"/><rect class="cls-2" x="1801.23" y="774.02" width="2.83" height="30.72" transform="translate(168.87 1886.39) rotate(-57.53)"/><polygon class="cls-2" points="1776.4 916.54 1795.25 902.41 1793.55 900.14 1774.71 914.28 1776.4 916.54"/><rect class="cls-2" x="1405.33" y="676.07" width="2.83" height="28.75" transform="translate(658.37 2067.25) rotate(-87.62)"/><polygon class="cls-2" points="1425.13 650.84 1402.68 633.68 1400.96 635.92 1423.41 653.09 1425.13 650.84"/><rect class="cls-2" x="1763.4" y="669.32" width="2.82" height="26.14" transform="translate(750.78 2279.88) rotate(-78.73)"/><rect class="cls-2" x="1350.11" y="936.43" width="2.83" height="30.98" transform="translate(-129.03 216.58) rotate(-8.75)"/><rect class="cls-2" x="1367.64" y="912.82" width="33.73" height="2.82" transform="translate(-160.25 308.92) rotate(-12.04)"/><polygon class="cls-2" points="1554.38 537.1 1516.68 530.04 1516.16 532.82 1553.85 539.88 1554.38 537.1"/><polygon class="cls-2" points="1521.83 727.32 1526.55 760.3 1529.34 759.9 1524.63 726.92 1521.83 727.32"/><polygon class="cls-2" points="1816.23 626.75 1792.67 614.97 1791.41 617.5 1814.97 629.28 1816.23 626.75"/><polygon class="cls-2" points="1333.59 563.33 1302.96 537.41 1301.14 539.57 1331.76 565.49 1333.59 563.33"/><polygon class="cls-2" points="1253.39 690.42 1251.77 688.1 1228.21 704.59 1229.83 706.91 1253.39 690.42"/><polygon class="cls-2" points="1338.23 652.7 1357.08 638.57 1355.39 636.3 1336.54 650.44 1338.23 652.7"/><rect class="cls-2" x="1590.28" y="442.53" width="30.72" height="2.83" transform="translate(327.5 1512.36) rotate(-55.35)"/><rect class="cls-2" x="1809.36" y="727.57" width="30.72" height="2.83" transform="translate(187.14 1814.97) rotate(-55.33)"/><rect class="cls-2" x="1515.93" y="644.53" width="27.28" height="2.83" transform="translate(528.7 1970.74) rotate(-75.82)"/><rect class="cls-2" x="1388.72" y="950.78" width="27.28" height="2.83" transform="translate(136.74 2079.8) rotate(-75.88)"/><polygon class="cls-2" points="1507.85 815.25 1506.15 812.98 1487.31 827.12 1489 829.38 1507.85 815.25"/><rect class="cls-2" x="1238.21" y="879.72" width="2.82" height="36.04" transform="translate(116.2 1937.22) rotate(-78.69)"/><rect class="cls-2" x="1841.7" y="922.28" width="2.83" height="32.04" transform="translate(-210.19 1186.15) rotate(-33.86)"/><rect class="cls-2" x="1423.41" y="736.12" width="27.06" height="2.82" transform="translate(378.72 1957.75) rotate(-76.24)"/><polygon class="cls-2" points="1630.34 761.06 1628.65 758.8 1609.81 772.93 1611.5 775.2 1630.34 761.06"/><polygon class="cls-2" points="1207.82 481.41 1219.92 478.62 1219.28 475.87 1207.82 478.51 1207.82 481.41"/><polygon class="cls-2" points="1208.63 589.12 1207.82 587.97 1207.82 589.69 1208.63 589.12"/><rect class="cls-2" x="1207.82" y="636.02" width="25.91" height="2.82"/><polygon class="cls-2" points="1225.16 786.98 1223.46 784.71 1207.82 796.45 1207.82 799.98 1225.16 786.98"/><polygon class="cls-2" points="1219.36 1003.97 1219.84 1001.18 1207.82 999.06 1207.82 1001.93 1219.36 1003.97"/><polygon class="cls-2" points="1852.77 411.28 1849.74 411.28 1846.92 418.78 1849.58 419.78 1852.77 411.28"/><polygon class="cls-2" points="1801.27 420.83 1804.05 420.29 1802.33 411.28 1799.45 411.28 1801.27 420.83"/><polygon class="cls-2" points="1657.88 428.55 1660.71 428.66 1661.37 411.28 1658.55 411.28 1657.88 428.55"/><polygon class="cls-2" points="1510.2 414.37 1512.52 412.76 1511.5 411.28 1508.06 411.28 1510.2 414.37"/><polygon class="cls-2" points="1356.9 414.02 1359.24 415.61 1362.18 411.28 1358.76 411.28 1356.9 414.02"/><polygon class="cls-2" points="1252.72 428.19 1255.01 426.55 1244.04 411.28 1240.57 411.28 1252.72 428.19"/><polygon class="cls-2" points="1731.71 431.08 1744.91 411.28 1741.51 411.28 1729.36 429.51 1731.71 431.08"/><polygon class="cls-2" points="568.55 363.06 547.35 379.55 549.08 381.77 570.29 365.28 568.55 363.06"/><rect class="cls-2" x="1188.74" y="6.05" width="2.83" height="30.72" transform="translate(533.13 1014) rotate(-57.53)"/><polygon class="cls-2" points="1204.62 120.4 1206.31 122.66 1207.82 121.53 1207.82 117.99 1204.62 120.4"/><rect class="cls-2" x="1186.38" y="193.13" width="2.83" height="33.48" transform="translate(272.64 995.61) rotate(-50.67)"/><polygon class="cls-2" points="1179.31 318.45 1207.82 323.48 1207.82 320.61 1179.8 315.66 1179.31 318.45"/><polygon class="cls-2" points="1128.6 308.74 1126.86 306.52 1105.65 323.01 1107.39 325.23 1128.6 308.74"/><rect class="cls-2" x="1177.2" y="155.45" width="28.27" height="2.82"/><polygon class="cls-2" points="1181.61 391.88 1178.96 390.89 1171.29 411.28 1174.32 411.28 1181.61 391.88"/><polygon class="cls-2" points="1116.91 389.95 1120.99 411.28 1123.88 411.28 1119.69 389.42 1116.91 389.95"/><rect class="cls-2" x="1056.15" y="155.81" width="2.83" height="32.04" transform="matrix(0.83, -0.56, 0.56, 0.83, 83.48, 618.06)"/><polygon class="cls-2" points="980.52 400.31 980.09 411.28 982.92 411.28 983.34 400.42 980.52 400.31"/><rect class="cls-2" x="904.76" y="381.28" width="30.72" height="2.83" transform="translate(81.95 921.71) rotate(-55.33)"/><polygon class="cls-2" points="818.33 395.01 829.61 411.28 833.05 411.28 820.66 393.4 818.33 395.01"/><rect class="cls-2" x="997.84" y="103.23" width="33.48" height="2.82" transform="translate(264.59 795.89) rotate(-48.55)"/><polygon class="cls-2" points="690.95 395.63 680.31 411.28 683.73 411.28 693.29 397.23 690.95 395.63"/><rect class="cls-2" x="600.47" y="379.35" width="40.66" height="2.82" transform="translate(117.66 907.28) rotate(-77.82)"/><polygon class="cls-2" points="558.59 406.38 562.11 411.28 565.59 411.28 560.88 404.74 558.59 406.38"/><rect class="cls-2" x="770.58" y="377.31" width="28.27" height="2.83" transform="translate(376.13 1148.32) rotate(-87.8)"/><rect class="cls-2" x="610.41" y="143.72" width="2.82" height="38.06" transform="translate(-16.69 238.86) rotate(-21.8)"/><rect class="cls-2" x="568.84" y="74.18" width="41.21" height="2.82" transform="matrix(0.51, -0.86, 0.86, 0.51, 221.36, 542.14)"/><rect class="cls-2" x="582.34" y="315.64" width="37.77" height="2.83" transform="translate(247.28 897.33) rotate(-86.42)"/><rect class="cls-2" x="592.44" y="244.97" width="31.69" height="2.82" transform="translate(18.23 533.69) rotate(-48.01)"/><polygon class="cls-2" points="704.9 320.23 728.46 353.21 730.76 351.57 707.2 318.59 704.9 320.23"/><rect class="cls-2" x="783.55" y="8.22" width="28.76" height="2.83" transform="translate(138.71 459.32) rotate(-34.99)"/><rect class="cls-2" x="1059.17" y="29.03" width="2.83" height="29.52" transform="translate(514.28 953.91) rotate(-61.39)"/><rect class="cls-2" x="762.35" y="88.2" width="2.82" height="36.04" transform="translate(509.82 834.32) rotate(-78.69)"/><polygon class="cls-2" points="827.04 200.4 825.35 198.13 806.5 212.27 808.19 214.53 827.04 200.4"/><rect class="cls-2" x="788.26" y="285" width="2.83" height="33.48" transform="translate(56.09 721.85) rotate(-50.71)"/><rect class="cls-2" x="822.42" y="335.39" width="2.83" height="22.22" transform="translate(93.38 861.47) rotate(-58)"/><rect class="cls-2" x="779.08" y="247.32" width="28.27" height="2.82"/><rect class="cls-2" x="884.85" y="8.41" width="2.83" height="30.72" transform="translate(390.41 758.72) rotate(-57.53)"/><rect class="cls-2" x="876.32" y="143.67" width="24.59" height="2.82" transform="translate(494.32 954.54) rotate(-73.3)"/><rect class="cls-2" x="882.49" y="195.48" width="2.83" height="33.48" transform="translate(159.94 761.95) rotate(-50.71)"/><rect class="cls-2" x="890.74" y="281.21" width="2.83" height="22.22" transform="matrix(0.53, -0.85, 0.85, 0.53, 171.43, 893.94)"/><rect class="cls-2" x="1094.49" y="150.91" width="28.27" height="2.82"/><polygon class="cls-2" points="739.84 136.86 738.22 139.18 761.78 155.67 763.4 153.35 739.84 136.86"/><rect class="cls-2" x="678.72" y="54.15" width="2.83" height="28.76" transform="matrix(0.57, -0.82, 0.82, 0.57, 233.97, 586.42)"/><rect class="cls-2" x="642.44" y="108.34" width="28.27" height="2.83"/><rect class="cls-2" x="670.67" y="170.76" width="30.72" height="2.83" transform="translate(14.93 395.56) rotate(-32.5)"/><rect class="cls-2" x="972.41" y="35.02" width="26.86" height="2.83" transform="translate(140.98 545.76) rotate(-33.2)"/><rect class="cls-2" x="969.52" y="336.84" width="2.83" height="28.75" transform="translate(579.63 1306.7) rotate(-87.62)"/><polygon class="cls-2" points="989.32 311.62 966.87 294.45 965.15 296.7 987.6 313.86 989.32 311.62"/><rect class="cls-2" x="1037.12" y="257.07" width="2.82" height="30.71" transform="translate(-30.27 374.54) rotate(-20.16)"/><rect class="cls-2" x="957.87" y="149.56" width="28.76" height="2.83" transform="translate(89.17 584.84) rotate(-34.99)"/><polygon class="cls-2" points="950.63 205.33 981.26 214.75 982.09 212.05 951.46 202.63 950.63 205.33"/><rect class="cls-2" x="1052.11" y="335.85" width="2.83" height="30.71" transform="matrix(0.54, -0.84, 0.84, 0.54, 191.61, 1051.47)"/><rect class="cls-2" x="1122.78" y="95.57" width="2.83" height="30.72" transform="translate(427.06 999.81) rotate(-57.53)"/><polygon class="cls-2" points="1096.26 235.83 1097.95 238.09 1116.79 223.96 1115.1 221.69 1096.26 235.83"/><rect class="cls-2" x="726.88" y="-2.38" width="2.83" height="28.75" transform="translate(686.01 739.16) rotate(-87.62)"/><rect class="cls-2" x="1084.95" y="-9.13" width="2.82" height="26.14" transform="translate(870.26 1068.6) rotate(-78.73)"/><rect class="cls-2" x="671.65" y="257.98" width="2.83" height="30.99" transform="translate(-33.87 105.99) rotate(-8.78)"/><rect class="cls-2" x="689.18" y="234.37" width="33.73" height="2.82" transform="translate(-33.73 153.17) rotate(-12.09)"/><polygon class="cls-2" points="843.38 48.86 848.09 81.84 850.89 81.45 846.18 48.47 843.38 48.86"/><polygon class="cls-2" points="551.38 28.46 574.94 11.97 573.32 9.65 549.76 26.14 551.38 28.46"/><rect class="cls-2" x="1130.91" y="49.12" width="30.72" height="2.83" transform="translate(452.95 964.75) rotate(-55.35)"/><rect class="cls-2" x="710.27" y="272.33" width="27.28" height="2.83" transform="translate(281.21 908.56) rotate(-75.82)"/><polygon class="cls-2" points="808.86 148.66 810.55 150.93 829.39 136.79 827.7 134.53 808.86 148.66"/><rect class="cls-2" x="559.76" y="201.27" width="2.82" height="36.04" transform="translate(236.08 726.56) rotate(-78.69)"/><rect class="cls-2" x="1163.25" y="243.83" width="2.83" height="32.04" transform="translate(52.78 693.05) rotate(-33.86)"/><rect class="cls-2" x="744.95" y="57.67" width="27.06" height="2.82" transform="translate(520.65 781.73) rotate(-76.24)"/><polygon class="cls-2" points="950.2 80.35 931.35 94.48 933.05 96.75 951.89 82.61 950.2 80.35"/><polygon class="cls-2" points="1072.11 402.81 1069.75 401.24 1063.06 411.28 1066.46 411.28 1072.11 402.81"/><polygon class="cls-2" points="545.01 106.26 529.37 117.99 529.37 121.53 546.71 108.53 545.01 106.26"/><polygon class="cls-2" points="540.9 325.51 541.39 322.73 529.37 320.61 529.37 323.48 540.9 325.51"/><polygon class="cls-2" points="582.72 511.44 556.8 530.28 558.47 532.57 584.38 513.72 582.72 511.44"/><polygon class="cls-2" points="549.08 1060.22 570.29 1043.73 568.55 1041.51 547.35 1058 549.08 1060.22"/><polygon class="cls-2" points="1188.66 482.94 1189.29 485.69 1207.82 481.41 1207.82 478.51 1188.66 482.94"/><polygon class="cls-2" points="1185.07 605.61 1207.82 589.69 1207.82 587.97 1207.01 586.8 1183.45 603.29 1185.07 605.61"/><rect class="cls-2" x="1205.47" y="636.02" width="2.36" height="2.82"/><rect class="cls-2" x="1188.74" y="684.5" width="2.83" height="30.72" transform="translate(-39.26 1328.21) rotate(-57.53)"/><polygon class="cls-2" points="1207.82 799.98 1207.82 796.45 1204.62 798.85 1206.31 801.11 1207.82 799.98"/><rect class="cls-2" x="1186.38" y="871.58" width="2.83" height="33.48" transform="translate(-251.88 1245.12) rotate(-50.71)"/><polygon class="cls-2" points="1207.82 999.06 1179.8 994.11 1179.31 996.9 1207.82 1001.93 1207.82 999.06"/><polygon class="cls-2" points="1126.86 984.97 1105.65 1001.46 1107.39 1003.69 1128.6 987.2 1126.86 984.97"/><rect class="cls-2" x="1177.2" y="833.9" width="28.27" height="2.82"/><rect class="cls-2" x="1065.57" y="546.86" width="2.83" height="32.04" transform="translate(-132.73 689.25) rotate(-33.83)"/><polygon class="cls-2" points="776.44 538.66 792.02 562.82 794.4 561.28 778.81 537.13 776.44 538.66"/><rect class="cls-2" x="928.32" y="506.13" width="30.72" height="2.83" transform="matrix(0.57, -0.82, 0.82, 0.57, -10.41, 995.25)"/><rect class="cls-2" x="1056.15" y="834.26" width="2.83" height="32.04" transform="translate(-294.35 732.99) rotate(-33.84)"/><polygon class="cls-2" points="989.02 594.87 973.43 570.71 971.06 572.24 986.65 596.41 989.02 594.87"/><rect class="cls-2" x="997.84" y="781.68" width="33.48" height="2.82" transform="translate(-243.97 1025.28) rotate(-48.55)"/><rect class="cls-2" x="612.76" y="449.88" width="2.82" height="35.88" transform="translate(-57.76 848.05) rotate(-66.8)"/><polygon class="cls-2" points="572.72 576.07 570.37 606.7 573.18 606.92 575.54 576.29 572.72 576.07"/><rect class="cls-2" x="610.41" y="822.18" width="2.82" height="38.06" transform="translate(-268.66 287.39) rotate(-21.8)"/><rect class="cls-2" x="568.84" y="752.63" width="41.21" height="2.82" transform="translate(-360.49 870.87) rotate(-59)"/><rect class="cls-2" x="778.54" y="464.05" width="31.69" height="2.82" transform="translate(-83.01 744.55) rotate(-48.01)"/><polygon class="cls-2" points="874.75 480.68 876.57 478.52 845.95 452.61 844.13 454.77 874.75 480.68"/><rect class="cls-2" x="1016.77" y="445.13" width="2.83" height="35.96" transform="translate(90.14 1087.54) rotate(-58.39)"/><rect class="cls-2" x="996.67" y="524.12" width="35.96" height="2.83" transform="translate(35.3 1114.24) rotate(-58.39)"/><rect class="cls-2" x="1087.76" y="486.43" width="51.67" height="2.83" transform="translate(-102.11 499.94) rotate(-24.23)"/><rect class="cls-2" x="1134.55" y="538.26" width="28.76" height="2.83" transform="translate(-102 755.22) rotate(-34.94)"/><rect class="cls-2" x="704.64" y="456.04" width="2.82" height="28.27"/><rect class="cls-2" x="646.98" y="504.1" width="30.98" height="2.83" transform="translate(-69.48 107.2) rotate(-8.79)"/><rect class="cls-2" x="718.77" y="545.38" width="2.83" height="30.98" transform="translate(-76.91 116.03) rotate(-8.75)"/><rect class="cls-2" x="726.88" y="498.21" width="33.73" height="2.82" transform="translate(-88.18 166.93) rotate(-12.1)"/><polygon class="cls-2" points="641.61 593.89 615.7 612.74 617.36 615.02 643.28 596.17 641.61 593.89"/><rect class="cls-2" x="582.34" y="994.09" width="37.77" height="2.83" transform="translate(-429.85 1533.46) rotate(-86.42)"/><rect class="cls-2" x="592.44" y="923.42" width="31.69" height="2.82" transform="translate(-486.06 758.29) rotate(-48.01)"/><polygon class="cls-2" points="730.76 1030.02 707.2 997.04 704.9 998.68 728.46 1031.66 730.76 1030.02"/><rect class="cls-2" x="783.55" y="686.67" width="28.76" height="2.83" transform="translate(-250.23 580.82) rotate(-34.93)"/><rect class="cls-2" x="1059.17" y="707.48" width="2.83" height="29.52" transform="translate(-81.32 1307.49) rotate(-61.39)"/><rect class="cls-2" x="762.35" y="766.65" width="2.82" height="36.04" transform="translate(-155.45 1379.72) rotate(-78.69)"/><polygon class="cls-2" points="827.04 878.85 825.35 876.59 806.5 890.72 808.19 892.99 827.04 878.85"/><rect class="cls-2" x="788.26" y="963.45" width="2.83" height="33.48" transform="translate(-469 970.68) rotate(-50.71)"/><rect class="cls-2" x="822.42" y="1013.84" width="2.83" height="22.22" transform="translate(-481.95 1180.35) rotate(-58)"/><rect class="cls-2" x="779.08" y="925.78" width="28.27" height="2.82"/><polygon class="cls-2" points="903.12 589.16 879.56 605.65 881.18 607.97 904.74 591.48 903.12 589.16"/><rect class="cls-2" x="901.58" y="638.38" width="28.27" height="2.82"/><rect class="cls-2" x="884.85" y="686.86" width="2.83" height="30.72" transform="translate(-181.98 1072.93) rotate(-57.53)"/><rect class="cls-2" x="876.32" y="822.12" width="24.59" height="2.82" transform="translate(-155.52 1438.05) rotate(-73.3)"/><rect class="cls-2" x="882.49" y="873.93" width="2.83" height="33.48" transform="translate(-365.16 1010.78) rotate(-50.71)"/><rect class="cls-2" x="890.74" y="959.66" width="2.83" height="22.22" transform="translate(-403.9 1212.82) rotate(-58)"/><rect class="cls-2" x="1094.49" y="829.36" width="28.27" height="2.82"/><polygon class="cls-2" points="763.4 831.8 739.84 815.31 738.22 817.63 761.78 834.12 763.4 831.8"/><rect class="cls-2" x="783.79" y="603.04" width="28.27" height="2.83"/><rect class="cls-2" x="678.72" y="732.6" width="2.83" height="28.76" transform="translate(-321.84 875.8) rotate(-55.01)"/><rect class="cls-2" x="642.44" y="786.79" width="28.27" height="2.83"/><rect class="cls-2" x="670.67" y="849.21" width="30.72" height="2.83" transform="translate(-349.43 501.29) rotate(-32.47)"/><rect class="cls-2" x="972.41" y="713.47" width="26.86" height="2.83" transform="translate(-230.52 656.51) rotate(-33.2)"/><polygon class="cls-2" points="1001.1 667.33 978.65 650.17 976.93 652.41 999.38 669.58 1001.1 667.33"/><polygon class="cls-2" points="1044.33 642.25 1046.42 613.84 1043.61 613.62 1041.51 642.04 1044.33 642.25"/><rect class="cls-2" x="969.52" y="1015.3" width="2.83" height="28.75" transform="translate(-98.24 1956.93) rotate(-87.62)"/><polygon class="cls-2" points="989.32 990.07 966.87 972.9 965.15 975.15 987.6 992.31 989.32 990.07"/><rect class="cls-2" x="1037.12" y="935.52" width="2.82" height="30.71" transform="matrix(0.94, -0.34, 0.34, 0.94, -264.05, 416.09)"/><rect class="cls-2" x="957.87" y="828.01" width="28.76" height="2.83" transform="translate(-299.76 706.1) rotate(-34.93)"/><polygon class="cls-2" points="982.09 890.5 951.46 881.08 950.63 883.78 981.26 893.21 982.09 890.5"/><rect class="cls-2" x="1052.11" y="1014.31" width="2.83" height="30.71" transform="translate(-380.78 1365.68) rotate(-57.53)"/><rect class="cls-2" x="1122.78" y="774.02" width="2.83" height="30.72" transform="matrix(0.54, -0.84, 0.84, 0.54, -145.33, 1314.01)"/><polygon class="cls-2" points="1097.95 916.54 1116.79 902.41 1115.1 900.14 1096.26 914.28 1097.95 916.54"/><rect class="cls-2" x="726.88" y="676.07" width="2.83" height="28.75" transform="translate(8.15 1389.39) rotate(-87.62)"/><polygon class="cls-2" points="746.68 650.84 724.23 633.68 722.51 635.92 744.96 653.09 746.68 650.84"/><rect class="cls-2" x="1084.95" y="669.32" width="2.82" height="26.14" transform="translate(204.88 1614.5) rotate(-78.73)"/><rect class="cls-2" x="671.65" y="936.43" width="2.83" height="30.99" transform="translate(-136.92 113.42) rotate(-8.75)"/><rect class="cls-2" x="689.18" y="912.82" width="33.73" height="2.82" transform="translate(-175.18 167.39) rotate(-12.04)"/><polygon class="cls-2" points="875.92 537.1 838.23 530.04 837.71 532.82 875.4 539.88 875.92 537.1"/><polygon class="cls-2" points="843.38 727.32 848.09 760.3 850.89 759.9 846.18 726.92 843.38 727.32"/><polygon class="cls-2" points="1137.78 626.75 1114.22 614.97 1112.96 617.5 1136.52 629.28 1137.78 626.75"/><polygon class="cls-2" points="655.13 563.33 624.51 537.41 622.69 539.57 653.31 565.49 655.13 563.33"/><polygon class="cls-2" points="574.94 690.42 573.32 688.1 549.76 704.59 551.38 706.91 574.94 690.42"/><polygon class="cls-2" points="659.78 652.7 678.63 638.57 676.93 636.3 658.09 650.44 659.78 652.7"/><rect class="cls-2" x="911.83" y="442.53" width="30.72" height="2.83" transform="translate(34.81 954.25) rotate(-55.35)"/><rect class="cls-2" x="1130.91" y="727.57" width="30.72" height="2.83" transform="translate(-105.35 1256.99) rotate(-55.33)"/><rect class="cls-2" x="837.48" y="644.53" width="27.28" height="2.83" transform="translate(16.39 1312.94) rotate(-75.82)"/><rect class="cls-2" x="710.27" y="950.78" width="27.28" height="2.83" transform="translate(-376.15 1421.86) rotate(-75.88)"/><polygon class="cls-2" points="829.39 815.25 827.7 812.98 808.86 827.12 810.55 829.38 829.39 815.25"/><rect class="cls-2" x="559.76" y="879.72" width="2.82" height="36.04" transform="translate(-429.2 1271.95) rotate(-78.69)"/><rect class="cls-2" x="1163.25" y="922.28" width="2.83" height="32.04" transform="translate(-325.27 808.13) rotate(-33.86)"/><rect class="cls-2" x="744.95" y="736.12" width="27.06" height="2.82" transform="translate(-138.33 1298.77) rotate(-76.24)"/><polygon class="cls-2" points="951.89 761.06 950.2 758.8 931.35 772.93 933.05 775.2 951.89 761.06"/><polygon class="cls-2" points="529.37 481.41 541.47 478.62 540.83 475.87 529.37 478.51 529.37 481.41"/><polygon class="cls-2" points="530.18 589.12 529.37 587.97 529.37 589.69 530.18 589.12"/><rect class="cls-2" x="529.37" y="636.02" width="25.91" height="2.82"/><polygon class="cls-2" points="546.71 786.98 545.01 784.71 529.37 796.45 529.37 799.98 546.71 786.98"/><polygon class="cls-2" points="540.9 1003.97 541.39 1001.18 529.37 999.06 529.37 1001.93 540.9 1003.97"/><polygon class="cls-2" points="1174.32 411.28 1171.29 411.28 1168.47 418.78 1171.12 419.78 1174.32 411.28"/><polygon class="cls-2" points="1122.82 420.83 1125.6 420.29 1123.88 411.28 1120.99 411.28 1122.82 420.83"/><polygon class="cls-2" points="979.43 428.55 982.25 428.66 982.92 411.28 980.09 411.28 979.43 428.55"/><polygon class="cls-2" points="831.75 414.37 834.07 412.76 833.05 411.28 829.61 411.28 831.75 414.37"/><polygon class="cls-2" points="678.45 414.02 680.79 415.61 683.73 411.28 680.31 411.28 678.45 414.02"/><polygon class="cls-2" points="574.27 428.19 576.56 426.55 565.59 411.28 562.11 411.28 574.27 428.19"/><polygon class="cls-2" points="1053.26 431.08 1066.46 411.28 1063.06 411.28 1050.91 429.51 1053.26 431.08"/><rect class="cls-2" x="510.29" y="6.05" width="2.83" height="30.72" transform="translate(218.92 441.62) rotate(-57.53)"/><polygon class="cls-2" points="526.17 120.4 527.86 122.66 529.37 121.53 529.37 117.99 526.17 120.4"/><rect class="cls-2" x="507.93" y="193.13" width="2.83" height="33.48" transform="translate(24.22 470.88) rotate(-50.68)"/><polygon class="cls-2" points="500.86 318.45 529.37 323.48 529.37 320.61 501.34 315.66 500.86 318.45"/><polygon class="cls-2" points="450.14 308.74 448.4 306.52 427.2 323.01 428.94 325.23 450.14 308.74"/><rect class="cls-2" x="498.74" y="155.45" width="28.27" height="2.82"/><polygon class="cls-2" points="503.16 391.88 500.51 390.89 492.84 411.28 495.87 411.28 503.16 391.88"/><polygon class="cls-2" points="438.46 389.95 442.54 411.28 445.43 411.28 441.24 389.42 438.46 389.95"/><rect class="cls-2" x="377.7" y="155.81" width="2.83" height="32.04" transform="translate(-31.46 240.23) rotate(-33.84)"/><polygon class="cls-2" points="302.06 400.31 301.64 411.28 304.47 411.28 304.89 400.42 302.06 400.31"/><rect class="cls-2" x="226.31" y="381.28" width="30.72" height="2.83" transform="translate(-210.55 363.74) rotate(-55.33)"/><polygon class="cls-2" points="139.88 395.01 151.16 411.28 154.59 411.28 142.21 393.4 139.88 395.01"/><rect class="cls-2" x="319.39" y="103.23" width="33.48" height="2.82" transform="translate(35.21 287.33) rotate(-48.55)"/><polygon class="cls-2" points="12.5 395.63 1.86 411.28 5.28 411.28 14.83 397.23 12.5 395.63"/><rect class="cls-2" x="92.13" y="377.31" width="28.27" height="2.83" transform="translate(-276.26 470.37) rotate(-87.8)"/><polygon class="cls-2" points="26.45 320.23 50 353.21 52.3 351.57 28.75 318.59 26.45 320.23"/><rect class="cls-2" x="105.09" y="8.22" width="28.76" height="2.83" transform="translate(16.07 70.25) rotate(-34.99)"/><rect class="cls-2" x="380.72" y="29.03" width="2.83" height="29.52" transform="translate(160.71 358.3) rotate(-61.39)"/><rect class="cls-2" x="83.9" y="88.2" width="2.82" height="36.04" transform="translate(-35.57 169.04) rotate(-78.69)"/><polygon class="cls-2" points="148.59 200.4 146.89 198.13 128.05 212.27 129.74 214.53 148.59 200.4"/><rect class="cls-2" x="109.81" y="285" width="2.83" height="33.48" transform="translate(-192.74 196.75) rotate(-50.71)"/><rect class="cls-2" x="143.97" y="335.39" width="2.83" height="22.22" transform="translate(-225.5 286.14) rotate(-58)"/><rect class="cls-2" x="100.63" y="247.32" width="28.27" height="2.82"/><rect class="cls-2" x="206.4" y="8.41" width="2.83" height="30.72" transform="translate(76.19 186.33) rotate(-57.53)"/><rect class="cls-2" x="197.87" y="143.67" width="24.59" height="2.82" transform="translate(10.81 304.7) rotate(-73.3)"/><rect class="cls-2" x="204.04" y="195.48" width="2.83" height="33.48" transform="translate(-88.9 236.85) rotate(-50.71)"/><rect class="cls-2" x="212.28" y="281.21" width="2.83" height="22.22" transform="translate(-147.45 318.61) rotate(-58)"/><rect class="cls-2" x="416.04" y="150.91" width="28.27" height="2.82"/><polygon class="cls-2" points="61.39 136.86 59.77 139.18 83.33 155.67 84.94 153.35 61.39 136.86"/><rect class="cls-2" x="293.96" y="35.02" width="26.86" height="2.83" transform="translate(30.23 174.26) rotate(-33.2)"/><rect class="cls-2" x="291.07" y="336.84" width="2.83" height="28.75" transform="translate(-70.6 628.84) rotate(-87.62)"/><polygon class="cls-2" points="310.87 311.62 288.42 294.45 286.7 296.7 309.15 313.86 310.87 311.62"/><rect class="cls-2" x="358.67" y="257.07" width="2.82" height="30.71" transform="translate(-71.82 140.76) rotate(-20.16)"/><rect class="cls-2" x="279.42" y="149.56" width="28.76" height="2.83" transform="translate(-33.47 195.77) rotate(-34.99)"/><polygon class="cls-2" points="272.18 205.33 302.8 214.75 303.63 212.05 273.01 202.63 272.18 205.33"/><rect class="cls-2" x="373.66" y="335.85" width="2.83" height="30.71" transform="translate(-122.6 479.09) rotate(-57.53)"/><rect class="cls-2" x="444.33" y="95.57" width="2.83" height="30.72" transform="translate(112.85 427.43) rotate(-57.53)"/><polygon class="cls-2" points="417.8 235.83 419.5 238.09 438.34 223.96 436.65 221.69 417.8 235.83"/><rect class="cls-2" x="48.43" y="-2.38" width="2.83" height="28.75" transform="translate(35.78 61.29) rotate(-87.62)"/><rect class="cls-2" x="406.5" y="-9.13" width="2.82" height="26.14" transform="translate(324.35 403.22) rotate(-78.73)"/><rect class="cls-2" x="10.73" y="234.37" width="33.73" height="2.82" transform="translate(-48.79 11.02) rotate(-12.09)"/><polygon class="cls-2" points="164.93 48.86 169.64 81.84 172.44 81.45 167.73 48.47 164.93 48.86"/><rect class="cls-2" x="452.46" y="49.12" width="30.72" height="2.83" transform="translate(160.25 406.64) rotate(-55.35)"/><rect class="cls-2" x="31.82" y="272.33" width="27.28" height="2.83" transform="translate(-231.08 250.77) rotate(-75.82)"/><polygon class="cls-2" points="130.4 148.66 132.1 150.93 150.94 136.79 149.25 134.53 130.4 148.66"/><rect class="cls-2" x="484.8" y="243.83" width="2.83" height="32.04" transform="translate(-62.31 315.01) rotate(-33.86)"/><rect class="cls-2" x="66.5" y="57.67" width="27.06" height="2.82" transform="translate(3.61 122.76) rotate(-76.24)"/><polygon class="cls-2" points="271.75 80.35 252.9 94.48 254.59 96.75 273.44 82.61 271.75 80.35"/><polygon class="cls-2" points="393.66 402.81 391.3 401.24 384.61 411.28 388.01 411.28 393.66 402.81"/><polygon class="cls-2" points="510.21 482.94 510.84 485.69 529.37 481.41 529.37 478.51 510.21 482.94"/><polygon class="cls-2" points="506.62 605.61 529.37 589.69 529.37 587.97 528.56 586.8 505 603.29 506.62 605.61"/><rect class="cls-2" x="527.01" y="636.02" width="2.36" height="2.82"/><rect class="cls-2" x="510.29" y="684.5" width="2.83" height="30.72" transform="translate(-353.46 755.82) rotate(-57.53)"/><polygon class="cls-2" points="529.37 799.98 529.37 796.45 526.17 798.85 527.86 801.11 529.37 799.98"/><rect class="cls-2" x="507.93" y="871.58" width="2.83" height="33.48" transform="translate(-500.71 720.02) rotate(-50.71)"/><polygon class="cls-2" points="529.37 999.06 501.34 994.11 500.86 996.9 529.37 1001.93 529.37 999.06"/><polygon class="cls-2" points="448.4 984.97 427.2 1001.46 428.94 1003.69 450.14 987.2 448.4 984.97"/><rect class="cls-2" x="498.74" y="833.9" width="28.27" height="2.82"/><rect class="cls-2" x="387.12" y="546.86" width="2.83" height="32.04" transform="translate(-247.58 311.57) rotate(-33.83)"/><polygon class="cls-2" points="97.98 538.66 113.57 562.82 115.95 561.28 100.36 537.13 97.98 538.66"/><rect class="cls-2" x="249.86" y="506.13" width="30.72" height="2.83" transform="translate(-303.1 437.14) rotate(-55.35)"/><rect class="cls-2" x="377.7" y="834.26" width="2.83" height="32.04" transform="translate(-409.29 355.17) rotate(-33.84)"/><polygon class="cls-2" points="310.57 594.87 294.98 570.71 292.61 572.24 308.2 596.41 310.57 594.87"/><rect class="cls-2" x="319.39" y="781.68" width="33.48" height="2.82" transform="translate(-473.35 516.72) rotate(-48.55)"/><rect class="cls-2" x="100.09" y="464.05" width="31.69" height="2.82" transform="translate(-307.6 240.26) rotate(-48.01)"/><polygon class="cls-2" points="196.3 480.68 198.12 478.52 167.5 452.61 165.68 454.77 196.3 480.68"/><rect class="cls-2" x="338.32" y="445.13" width="2.83" height="35.96" transform="matrix(0.52, -0.85, 0.85, 0.52, -232.73, 509.73)"/><rect class="cls-2" x="318.22" y="524.12" width="35.96" height="2.83" transform="translate(-287.58 536.43) rotate(-58.39)"/><rect class="cls-2" x="409.31" y="486.43" width="51.67" height="2.83" transform="translate(-161.87 221.53) rotate(-24.23)"/><rect class="cls-2" x="456.1" y="538.26" width="28.76" height="2.83" transform="translate(-224.27 366.69) rotate(-34.94)"/><rect class="cls-2" x="26.18" y="456.04" width="2.82" height="28.27"/><rect class="cls-2" x="40.32" y="545.38" width="2.83" height="30.98" transform="translate(-84.8 12.87) rotate(-8.75)"/><rect class="cls-2" x="48.42" y="498.21" width="33.73" height="2.82" transform="translate(-103.24 24.77) rotate(-12.1)"/><polygon class="cls-2" points="52.3 1030.02 28.75 997.04 26.45 998.68 50 1031.66 52.3 1030.02"/><rect class="cls-2" x="105.09" y="686.67" width="28.76" height="2.83" transform="translate(-372.45 192.36) rotate(-34.93)"/><rect class="cls-2" x="380.72" y="707.48" width="2.83" height="29.52" transform="translate(-434.9 711.88) rotate(-61.39)"/><rect class="cls-2" x="83.9" y="766.65" width="2.82" height="36.04" transform="translate(-700.85 714.44) rotate(-78.69)"/><polygon class="cls-2" points="148.59 878.85 146.89 876.59 128.05 890.72 129.74 892.99 148.59 878.85"/><rect class="cls-2" x="109.81" y="963.45" width="2.83" height="33.48" transform="translate(-717.83 445.58) rotate(-50.71)"/><rect class="cls-2" x="143.97" y="1013.84" width="2.83" height="22.22" transform="translate(-800.83 605.02) rotate(-58)"/><rect class="cls-2" x="100.63" y="925.78" width="28.27" height="2.82"/><rect class="cls-2" x="199.32" y="597.15" width="28.76" height="2.83" transform="translate(-304.62 230.75) rotate(-34.99)"/><rect class="cls-2" x="223.12" y="638.38" width="28.27" height="2.82"/><rect class="cls-2" x="206.4" y="686.86" width="2.83" height="30.72" transform="translate(-496.19 500.54) rotate(-57.53)"/><rect class="cls-2" x="197.87" y="822.12" width="24.59" height="2.82" transform="translate(-639.03 788.21) rotate(-73.3)"/><rect class="cls-2" x="204.04" y="873.93" width="2.83" height="33.48" transform="translate(-614 485.69) rotate(-50.71)"/><rect class="cls-2" x="212.28" y="959.66" width="2.83" height="22.22" transform="translate(-722.77 637.49) rotate(-58)"/><rect class="cls-2" x="416.04" y="829.36" width="28.27" height="2.82"/><polygon class="cls-2" points="84.94 831.8 61.39 815.31 59.77 817.63 83.33 834.12 84.94 831.8"/><rect class="cls-2" x="105.34" y="603.04" width="28.27" height="2.83"/><rect class="cls-2" x="293.96" y="713.47" width="26.86" height="2.83" transform="translate(-341.27 285.01) rotate(-33.2)"/><polygon class="cls-2" points="322.65 667.33 300.19 650.17 298.48 652.41 320.93 669.58 322.65 667.33"/><polygon class="cls-2" points="365.88 642.25 367.97 613.84 365.16 613.62 363.06 642.04 365.88 642.25"/><rect class="cls-2" x="291.07" y="1015.3" width="2.83" height="28.75" transform="translate(-748.47 1279.07) rotate(-87.62)"/><polygon class="cls-2" points="310.87 990.07 288.42 972.9 286.7 975.15 309.15 992.31 310.87 990.07"/><rect class="cls-2" x="358.67" y="935.52" width="2.82" height="30.71" transform="translate(-305.6 182.31) rotate(-20.16)"/><rect class="cls-2" x="279.42" y="828.01" width="28.76" height="2.83" transform="translate(-421.98 317.64) rotate(-34.93)"/><polygon class="cls-2" points="303.63 890.5 273.01 881.08 272.18 883.78 302.8 893.21 303.63 890.5"/><rect class="cls-2" x="373.66" y="1014.31" width="2.83" height="30.71" transform="translate(-694.98 793.3) rotate(-57.53)"/><rect class="cls-2" x="444.33" y="774.02" width="2.83" height="30.72" transform="translate(-459.53 741.63) rotate(-57.53)"/><polygon class="cls-2" points="419.5 916.54 438.34 902.41 436.65 900.14 417.8 914.28 419.5 916.54"/><rect class="cls-2" x="48.43" y="676.07" width="2.83" height="28.75" transform="translate(-642.08 711.52) rotate(-87.62)"/><polygon class="cls-2" points="68.23 650.84 45.78 633.68 44.05 635.92 66.51 653.09 68.23 650.84"/><rect class="cls-2" x="406.5" y="669.32" width="2.82" height="26.14" transform="translate(-341.02 949.12) rotate(-78.73)"/><rect class="cls-2" x="10.73" y="912.82" width="33.73" height="2.82" transform="translate(-190.1 25.87) rotate(-12.04)"/><polygon class="cls-2" points="197.47 537.1 159.78 530.04 159.26 532.82 196.95 539.88 197.47 537.1"/><polygon class="cls-2" points="164.93 727.32 169.64 760.3 172.44 759.9 167.73 726.92 164.93 727.32"/><polygon class="cls-2" points="459.33 626.75 435.77 614.97 434.51 617.5 458.07 629.28 459.33 626.75"/><rect class="cls-2" x="233.37" y="442.53" width="30.72" height="2.83" transform="matrix(0.57, -0.82, 0.82, 0.57, -257.89, 396.14)"/><rect class="cls-2" x="452.46" y="727.57" width="30.72" height="2.83" transform="translate(-397.85 699.02) rotate(-55.33)"/><rect class="cls-2" x="159.03" y="644.53" width="27.28" height="2.83" transform="translate(-495.89 655.15) rotate(-75.82)"/><rect class="cls-2" x="31.82" y="950.78" width="27.28" height="2.83" transform="translate(-889.04 763.92) rotate(-75.88)"/><polygon class="cls-2" points="150.94 815.25 149.25 812.98 130.4 827.12 132.1 829.38 150.94 815.25"/><rect class="cls-2" x="484.8" y="922.28" width="2.83" height="32.04" transform="translate(-440.36 430.09) rotate(-33.86)"/><rect class="cls-2" x="66.5" y="736.12" width="27.06" height="2.82" transform="translate(-655.37 639.8) rotate(-76.24)"/><polygon class="cls-2" points="273.44 761.06 271.75 758.8 252.9 772.93 254.59 775.2 273.44 761.06"/><polygon class="cls-2" points="495.87 411.28 492.84 411.28 490.02 418.78 492.67 419.78 495.87 411.28"/><polygon class="cls-2" points="444.37 420.83 447.15 420.29 445.43 411.28 442.54 411.28 444.37 420.83"/><polygon class="cls-2" points="300.98 428.55 303.8 428.66 304.47 411.28 301.64 411.28 300.98 428.55"/><polygon class="cls-2" points="153.29 414.37 155.62 412.76 154.59 411.28 151.16 411.28 153.29 414.37"/><polygon class="cls-2" points="0 414.02 2.34 415.61 5.28 411.28 1.86 411.28 0 414.02"/><polygon class="cls-2" points="374.81 431.08 388.01 411.28 384.61 411.28 372.45 429.51 374.81 431.08"/></g></g></g></svg>