<svg xmlns="http://www.w3.org/2000/svg" viewBox="0 0 691.56 656"><defs><style>.cls-1{isolation:isolate;}.cls-16,.cls-2{fill:#fefefe;}.cls-2{opacity:0.03;}.cls-3{fill:#444172;}.cls-4{fill:#837db2;}.cls-5{fill:#6c6399;}.cls-36,.cls-6,.cls-7{fill:#d0d2d3;}.cls-37,.cls-39,.cls-7{opacity:0.2;}.cls-8{fill:#393963;}.cls-9{fill:#bababa;}.cls-10,.cls-14,.cls-15,.cls-20,.cls-22,.cls-25,.cls-31,.cls-34,.cls-35{opacity:0.5;}.cls-10,.cls-14,.cls-15,.cls-20,.cls-29,.cls-34,.cls-35{mix-blend-mode:multiply;}.cls-11,.cls-25{fill:#a5a5a5;}.cls-12{fill:#e9eefa;}.cls-13,.cls-14{fill:#9ea7ab;}.cls-15,.cls-17{fill:#d3dee2;}.cls-18{fill:#929497;}.cls-19,.cls-20{fill:#bbbdbf;}.cls-21{fill:#bcbec0;}.cls-22{fill:#fff;mix-blend-mode:soft-light;}.cls-23{opacity:0.7;}.cls-24,.cls-28,.cls-29{opacity:0.3;}.cls-26{fill:#8e8e8e;}.cls-27{fill:#afafaf;}.cls-28,.cls-39{fill:#f7f6f2;}.cls-29{fill:#1d995b;}.cls-30{opacity:0.6;}.cls-32{fill:#f9fcfb;}.cls-33{fill:#fff8a1;}.cls-34{fill:#f2adc9;}.cls-35{fill:#41453b;}.cls-36{opacity:0.1;}.cls-38{opacity:0.81;}</style></defs><title>Asset 37</title><g class="cls-1"><g id="Layer_2" data-name="Layer 2"><g id="Layer_1-2" data-name="Layer 1"><path class="cls-2" d="M645.26,626.56H560l9.71-5c8.13-4.21,1.65-10.87-10.57-10.87H128.28a23.91,23.91,0,0,0-10.57,2.19l-13.45,7c-4.62,2.39-4.52,5.57-1.34,7.87H67.82a3.92,3.92,0,0,0-3.38,1.93L61,635.5a3.94,3.94,0,0,0,3.38,5.94h89a3.93,3.93,0,0,0,3.38-1.93l3.49-5.9a3.84,3.84,0,0,0,.43-2.93H354.2a19.87,19.87,0,0,0-10.57,2.76l-13.45,8.82c-8.12,5.32-1.65,13.74,10.57,13.74H540.28a19.78,19.78,0,0,0,10.57-2.76l13.45-8.81a8.84,8.84,0,0,0,3-3h73.55a3.63,3.63,0,0,0,3.13-1.8L648.4,632A3.64,3.64,0,0,0,645.26,626.56Z"/><rect class="cls-3" x="365.67" y="54.87" width="275" height="359.54"/><rect class="cls-4" x="375.2" y="64.39" width="255.95" height="340.49"/><polygon class="cls-5" points="451.02 274.58 451.02 251.03 440.52 251.03 440.52 234.2 426.02 234.2 426.02 251.03 415.51 251.03 415.51 274.58 403.87 274.58 403.87 397.63 480.42 397.63 480.42 274.58 451.02 274.58"/><rect class="cls-6" x="460.04" y="289.29" width="11.95" height="16.18"/><rect class="cls-6" x="436.17" y="289.29" width="11.95" height="16.18"/><rect class="cls-6" x="460.04" y="320.73" width="11.95" height="16.18"/><rect class="cls-6" x="412.3" y="320.73" width="11.95" height="16.18"/><rect class="cls-6" x="460.04" y="352.18" width="11.95" height="16.18"/><rect class="cls-6" x="436.17" y="352.18" width="11.95" height="16.18"/><rect class="cls-6" x="412.3" y="352.18" width="11.95" height="16.18"/><path class="cls-5" d="M576.72,219.05c-41.35,0-53.17,28.24-53.17,28.24V405.08h96.89V179.47S618.07,219.05,576.72,219.05Z"/><rect class="cls-6" x="594.88" y="251.75" width="14.02" height="18.99"/><rect class="cls-6" x="564.98" y="251.75" width="14.03" height="18.99"/><rect class="cls-6" x="535.08" y="251.75" width="14.03" height="18.99"/><rect class="cls-6" x="564.98" y="292.28" width="14.03" height="18.99"/><rect class="cls-6" x="535.08" y="292.28" width="14.03" height="18.99"/><rect class="cls-6" x="594.88" y="332.81" width="14.02" height="18.99"/><rect class="cls-6" x="564.98" y="332.81" width="14.03" height="18.99"/><rect class="cls-6" x="594.88" y="373.34" width="14.02" height="18.99"/><rect class="cls-6" x="564.98" y="373.34" width="14.03" height="18.99"/><rect class="cls-6" x="535.08" y="373.34" width="14.03" height="18.99"/><path class="cls-5" d="M375.2,156.39a19.58,19.58,0,0,1,7.17-1.35,19.78,19.78,0,0,1,7.74,1.57,19.89,19.89,0,0,1,12.19-13.94c0-.45-.07-.89-.07-1.34a27.06,27.06,0,1,1,54.11,0,19.86,19.86,0,0,1,19.34,15.36,19.87,19.87,0,0,1,27.39,14.21l19,5.92a2.17,2.17,0,0,1-.65,4.24H375.2Z"/><polygon class="cls-5" points="631.14 78.04 378.68 92.38 603.79 100.34 463.51 118.97 631.14 118.97 631.14 78.04"/><polygon class="cls-7" points="375.2 341.19 375.2 385.46 631.14 129.51 631.14 85.24 375.2 341.19"/><polygon class="cls-7" points="375.2 224.38 375.2 255.17 565.98 64.39 535.18 64.39 375.2 224.38"/><polygon class="cls-7" points="631.14 267.23 631.14 219.12 445.38 404.88 493.5 404.88 631.14 267.23"/><rect class="cls-8" x="373.27" y="232.45" width="259.81" height="17.19"/><rect class="cls-3" x="373.27" y="226.04" width="259.81" height="17.19"/><rect class="cls-9" y="589.19" width="691.56" height="25.99"/><g class="cls-10"><path class="cls-11" d="M691.56,610.49c-6.25,0-9.43-4-12.24-7.43s-5.16-6.4-10.08-6.4-7.31,3-10.09,6.4-6,7.43-12.23,7.43-9.43-4-12.24-7.43-5.16-6.4-10.08-6.4-7.31,3-10.08,6.4-6,7.43-12.23,7.43-9.42-4-12.23-7.43-5.16-6.4-10.08-6.4-7.31,3-10.08,6.4-6,7.43-12.23,7.43-9.42-4-12.23-7.43-5.16-6.4-10.08-6.4-7.31,3-10.08,6.4-6,7.43-12.23,7.43-9.42-4-12.23-7.43-5.16-6.4-10.08-6.4-7.31,3-10.08,6.4-6,7.43-12.23,7.43-9.42-4-12.23-7.43-5.16-6.4-10.08-6.4-7.3,3-10.07,6.4-6,7.43-12.23,7.43-9.42-4-12.23-7.43-5.16-6.4-10.07-6.4-7.31,3-10.08,6.4-6,7.43-12.23,7.43-9.42-4-12.23-7.43-5.16-6.4-10.08-6.4-7.31,3-10.08,6.4-6,7.43-12.23,7.43-9.42-4-12.23-7.43-5.16-6.4-10.08-6.4-7.31,3-10.07,6.4-6,7.43-12.23,7.43-9.43-4-12.23-7.43-5.17-6.4-10.08-6.4-7.31,3-10.08,6.4-6,7.43-12.23,7.43-9.42-4-12.23-7.43-5.16-6.4-10.07-6.4-7.31,3-10.08,6.4-6,7.43-12.23,7.43-9.42-4-12.23-7.43-5.16-6.4-10.08-6.4-7.31,3-10.08,6.4-6,7.43-12.22,7.43-9.43-4-12.23-7.43-5.17-6.4-10.08-6.4-7.31,3-10.08,6.4-6,7.43-12.23,7.43-9.42-4-12.22-7.43-5.17-6.4-10.08-6.4-7.31,3-10.08,6.4-6,7.43-12.23,7.43-9.42-4-12.23-7.43-5.16-6.4-10.07-6.4-7.31,3-10.08,6.4-6,7.43-12.23,7.43-9.42-4-12.23-7.43-5.16-6.4-10.07-6.4v-2.77c6.24,0,9.42,4,12.23,7.43s5.16,6.4,10.07,6.4,7.31-3,10.08-6.4,6-7.43,12.23-7.43,9.42,4,12.23,7.43,5.16,6.4,10.07,6.4,7.31-3,10.08-6.4,6-7.43,12.23-7.43,9.42,4,12.23,7.43,5.16,6.4,10.07,6.4,7.31-3,10.08-6.4,6-7.43,12.23-7.43,9.42,4,12.23,7.43,5.16,6.4,10.08,6.4,7.3-3,10.07-6.4,6-7.43,12.23-7.43,9.42,4,12.23,7.43,5.16,6.4,10.08,6.4,7.3-3,10.07-6.4,6-7.43,12.24-7.43,9.42,4,12.23,7.43,5.16,6.4,10.07,6.4,7.31-3,10.08-6.4,6-7.43,12.23-7.43,9.42,4,12.23,7.43,5.16,6.4,10.08,6.4,7.3-3,10.07-6.4,6-7.43,12.23-7.43,9.42,4,12.23,7.43,5.16,6.4,10.08,6.4,7.31-3,10.08-6.4,6-7.43,12.23-7.43,9.42,4,12.23,7.43,5.16,6.4,10.08,6.4,7.31-3,10.08-6.4,6-7.43,12.23-7.43,9.42,4,12.22,7.43,5.17,6.4,10.08,6.4,7.31-3,10.08-6.4,6-7.43,12.22-7.43,9.43,4,12.24,7.43,5.16,6.4,10.07,6.4,7.31-3,10.08-6.4,6-7.43,12.23-7.43,9.42,4,12.23,7.43,5.17,6.4,10.08,6.4,7.31-3,10.08-6.4,6-7.43,12.23-7.43,9.42,4,12.23,7.43,5.16,6.4,10.08,6.4,7.31-3,10.08-6.4,6-7.43,12.23-7.43,9.42,4,12.23,7.43,5.16,6.4,10.08,6.4,7.31-3,10.08-6.4,6-7.43,12.23-7.43,9.43,4,12.24,7.43,5.16,6.4,10.08,6.4,7.31-3,10.08-6.4,6-7.43,12.24-7.43,9.42,4,12.23,7.43,5.17,6.4,10.09,6.4Z"/></g><polygon class="cls-12" points="502.37 378.03 465.82 378.03 465.82 315.92 502.37 318.53 502.37 378.03"/><rect class="cls-4" x="462.38" y="321.22" width="36.55" height="59.5"/><rect class="cls-3" x="500.96" y="318.53" width="17.27" height="69.24"/><rect class="cls-6" x="503.57" y="369.9" width="12.05" height="5.12" rx="1.6" ry="1.6"/><rect class="cls-6" x="503.57" y="378.16" width="12.05" height="5.12" rx="1.6" ry="1.6"/><polygon class="cls-3" points="500.96 318.53 460.08 355.85 460.08 387.77 500.96 387.77 500.96 318.53"/><path class="cls-8" d="M504.49,367V318.53H501v69.24h17.28v-3.91A17.27,17.27,0,0,1,504.49,367Z"/><polygon class="cls-8" points="500.96 318.53 480.52 367.13 460.08 378.16 460.08 387.77 500.96 387.77 500.96 318.53"/><polygon class="cls-12" points="466.3 378.03 429.74 378.03 429.74 314.5 466.3 318.53 466.3 378.03"/><rect class="cls-4" x="426.31" y="321.22" width="36.55" height="59.5"/><rect class="cls-3" x="464.89" y="318.53" width="17.27" height="69.24"/><path class="cls-8" d="M468.41,367V318.53h-3.52v69.24h17.27v-3.91A17.27,17.27,0,0,1,468.41,367Z"/><rect class="cls-6" x="467.5" y="369.9" width="12.05" height="5.12" rx="1.6" ry="1.6"/><rect class="cls-6" x="467.5" y="378.16" width="12.05" height="5.12" rx="1.6" ry="1.6"/><polygon class="cls-3" points="464.89 318.53 424 355.85 424 387.77 464.89 387.77 464.89 318.53"/><polygon class="cls-8" points="464.89 318.53 444.45 367.13 424 378.16 424 387.77 464.89 387.77 464.89 318.53"/><path class="cls-13" d="M230,380.56l-6.24-39.92a6,6,0,0,0-6-5.12H207.44a6.05,6.05,0,0,0-6,5.12l-11,39.92a6.05,6.05,0,0,0,6,7h27.65A6.05,6.05,0,0,0,230,380.56Z"/><path class="cls-14" d="M193.51,369.47l-3.06,11.09a6.05,6.05,0,0,0,6,7h27.65a6.05,6.05,0,0,0,6-7l-2.66-17c-7.66-6.79-15.69-13.2-18.88-14C208.5,349.52,204.24,364.87,193.51,369.47Z"/><path class="cls-6" d="M238.46,380.56l-3.85-39.92a6,6,0,0,0-6-5.12H215.86a6.05,6.05,0,0,0-6,5.12l-6.23,39.92a6,6,0,0,0,6,7h22.87A6.05,6.05,0,0,0,238.46,380.56Z"/><path class="cls-15" d="M209.62,387.55h22.87a6.05,6.05,0,0,0,6-7l-2.64-27.39s-2.41,28.41-32.17,27.39A6,6,0,0,0,209.62,387.55Z"/><path class="cls-3" d="M233.15,372.66A10.64,10.64,0,1,1,222.51,362,10.64,10.64,0,0,1,233.15,372.66Z"/><path class="cls-4" d="M222.51,380.57a7.91,7.91,0,1,1,7.91-7.91A7.92,7.92,0,0,1,222.51,380.57Z"/><path class="cls-16" d="M222.51,377.81a5.16,5.16,0,1,1,5.16-5.15A5.16,5.16,0,0,1,222.51,377.81Z"/><path class="cls-3" d="M231.25,348.93a8.74,8.74,0,1,1-8.74-8.74A8.74,8.74,0,0,1,231.25,348.93Z"/><path class="cls-4" d="M222.51,355.43a6.5,6.5,0,1,1,6.5-6.5A6.51,6.51,0,0,1,222.51,355.43Z"/><path class="cls-16" d="M222.51,353.17a4.24,4.24,0,1,1,4.23-4.24A4.23,4.23,0,0,1,222.51,353.17Z"/><path class="cls-13" d="M438.59,380.56l-6.23-39.92a6.05,6.05,0,0,0-6-5.12H416a6,6,0,0,0-6,5.12l-11,39.92a6.05,6.05,0,0,0,6,7h27.64A6,6,0,0,0,438.59,380.56Z"/><path class="cls-14" d="M402.06,369.47,399,380.56a6.05,6.05,0,0,0,6,7h27.64a6,6,0,0,0,6-7l-2.66-17c-7.66-6.79-15.69-13.2-18.88-14C417.05,349.52,412.79,364.87,402.06,369.47Z"/><path class="cls-17" d="M447,380.56l-3.84-39.92a6.06,6.06,0,0,0-6-5.12H424.42a6,6,0,0,0-6,5.12l-6.24,39.92a6.05,6.05,0,0,0,6,7H441A6,6,0,0,0,447,380.56Z"/><path class="cls-15" d="M418.17,387.55H441a6,6,0,0,0,6-7l-2.64-27.39S442,381.58,412.2,380.56A6.05,6.05,0,0,0,418.17,387.55Z"/><circle class="cls-3" cx="431.06" cy="372.66" r="10.64" transform="translate(-30.92 706.21) rotate(-76.67)"/><path class="cls-4" d="M431.06,380.57a7.91,7.91,0,1,1,7.91-7.91A7.92,7.92,0,0,1,431.06,380.57Z"/><path class="cls-16" d="M431.06,377.81a5.16,5.16,0,1,1,5.16-5.15A5.16,5.16,0,0,1,431.06,377.81Z"/><path class="cls-3" d="M439.8,348.93a8.74,8.74,0,1,1-8.74-8.74A8.74,8.74,0,0,1,439.8,348.93Z"/><path class="cls-4" d="M431.06,355.43a6.5,6.5,0,1,1,6.5-6.5A6.5,6.5,0,0,1,431.06,355.43Z"/><path class="cls-16" d="M431.06,353.17a4.24,4.24,0,1,1,4.24-4.24A4.24,4.24,0,0,1,431.06,353.17Z"/><path class="cls-8" d="M398.29,251.79h-155a5.14,5.14,0,0,0-5.14,5.13v84.33H403.43V256.92A5.14,5.14,0,0,0,398.29,251.79Z"/><path class="cls-6" d="M238.15,341.25v16.9a7.17,7.17,0,0,0,7.18,7.17H396.25a7.18,7.18,0,0,0,7.18-7.17v-16.9Z"/><polygon class="cls-18" points="335.31 384.71 297.6 384.71 306.21 365.32 342.92 365.32 335.31 384.71"/><polygon class="cls-19" points="338.45 384.71 300.74 384.71 309.35 365.32 346.06 365.32 338.45 384.71"/><path class="cls-20" d="M309.93,377.36A13.26,13.26,0,0,1,322,369.49h22.38l1.64-4.17H309.35l-8.61,19.39h5.93Z"/><path class="cls-3" d="M405,251.79H250a5.14,5.14,0,0,0-5.14,5.13v84.33H410.12V256.92A5.14,5.14,0,0,0,405,251.79Z"/><path class="cls-6" d="M251.33,341.25V258.43a.58.58,0,0,1,.57-.58H403.05a.57.57,0,0,1,.57.58v82.82Z"/><path class="cls-16" d="M244.84,341.25v16.9a7.17,7.17,0,0,0,7.18,7.17H402.94a7.18,7.18,0,0,0,7.18-7.17v-16.9Z"/><path class="cls-21" d="M334.17,353.29a6.69,6.69,0,1,1-6.69-6.69A6.7,6.7,0,0,1,334.17,353.29Z"/><rect class="cls-6" x="297.6" y="384.71" width="54.22" height="3.06"/><rect class="cls-16" x="311.41" y="384.71" width="54.22" height="3.06"/><path class="cls-16" d="M380.08,379.18h0a8.25,8.25,0,0,0-8.25,8.26v.33h16.51v-.33A8.26,8.26,0,0,0,380.08,379.18Z"/><polygon class="cls-22" points="251.33 316.22 251.33 335.52 329 257.85 309.7 257.85 251.33 316.22"/><polygon class="cls-22" points="282.09 341.25 314.25 341.25 397.66 257.85 365.49 257.85 282.09 341.25"/><path class="cls-4" d="M402.73,367a10.43,10.43,0,0,1,.94-7.1,12,12,0,0,1,2.19-3,16.41,16.41,0,0,1,2.87-2.26,1.16,1.16,0,1,1,1.27,1.94l-.09.06-.05-.89c-.94.49-1.87,1.93-2.67,2.61a10.53,10.53,0,0,0-2.11,2.31,9.22,9.22,0,0,0-1.24,2.9,8.73,8.73,0,0,0-.19,3.17v.05a.47.47,0,0,1-.92.17Z"/><g class="cls-23"><path class="cls-8" d="M409.86,356.73l.05,0,.09-.06a1.15,1.15,0,0,0,.34-1.6,5.06,5.06,0,0,1-1.91,1.71c-1.74,1-4.7,3.82-5,6.29,0,.61-.48.62-.9.47a9.88,9.88,0,0,0,.17,3.51.47.47,0,0,0,.92-.17v-.05a8.73,8.73,0,0,1,.19-3.17,9.22,9.22,0,0,1,1.24-2.9,10.53,10.53,0,0,1,2.11-2.31A14.23,14.23,0,0,1,409.86,356.73Z"/></g><path class="cls-4" d="M413.17,362c-4.57-1.34-7.33.48-8.75,2a1.69,1.69,0,0,1-2.46,0c-1.43-1.56-4.18-3.38-8.76-2-7.18,2.09-3.63,19.46,1.15,24.57a5,5,0,0,0,7-1.1c.59-.84,3-.84,3.61,0a5,5,0,0,0,7,1.1C416.8,381.49,420.36,364.12,413.17,362Z"/><g class="cls-24"><path class="cls-3" d="M414.87,363c0,.65.64,17.19-14.61,18.07a22.31,22.31,0,0,1-9.73-2,20.33,20.33,0,0,0,3.82,7.5,5,5,0,0,0,7-1.1c.59-.84,3-.84,3.61,0a5,5,0,0,0,7,1.1C416.36,382,419.66,367.26,414.87,363Z"/></g><path class="cls-22" d="M393.6,363.94c2-1.09,4.45-1.39,6,.33,1.78,1.94-3.72,5.9-6.79,6.14-2.4.19-2.93-2.56-1.82-4.19A7.52,7.52,0,0,1,393.6,363.94Z"/><polygon class="cls-9" points="226.09 617.04 214.87 617.04 232.73 459.94 253.71 459.94 226.09 617.04"/><polygon class="cls-9" points="153.61 617.04 142.39 617.04 160.25 459.94 181.22 459.94 153.61 617.04"/><polygon class="cls-9" points="459.3 617.04 470.52 617.04 452.67 459.94 431.69 459.94 459.3 617.04"/><polygon class="cls-9" points="531.78 617.04 543 617.04 525.15 459.94 504.17 459.94 531.78 617.04"/><path class="cls-9" d="M463.78,459.94H162.17a36.09,36.09,0,0,1,0-72.17H463.78a36.09,36.09,0,0,1,0,72.17Z"/><path class="cls-25" d="M475.16,453.79H173.55A36.06,36.06,0,0,1,151,389.55a36.07,36.07,0,0,0,11.13,70.39H463.78A35.89,35.89,0,0,0,486.29,452,36,36,0,0,1,475.16,453.79Z"/><path class="cls-16" d="M529.48,459.94H227.88a36.09,36.09,0,1,1,0-72.17h301.6a36.09,36.09,0,1,1,0,72.17Z"/><polygon class="cls-26" points="232.73 459.94 214.87 617.04 219.55 617.04 240.89 467.98 252.82 464.95 253.71 459.94 232.73 459.94"/><polygon class="cls-26" points="160.25 459.94 142.39 617.04 147.07 617.04 168.41 467.98 180.34 464.95 181.22 459.94 160.25 459.94"/><polygon class="cls-26" points="431.69 459.94 459.3 617.04 464.11 617.04 443.61 467.68 452.67 459.94 431.69 459.94"/><polygon class="cls-26" points="504.17 459.94 531.78 617.04 536.59 617.04 516.1 467.68 525.15 459.94 504.17 459.94"/><path class="cls-11" d="M199.11,387.77c-2.78,2.55-5.36,5.35-7.87,8.13-7.7,8.55-15,16.6-27.58,15.83a5.53,5.53,0,0,1-4.32-2.07,4.22,4.22,0,0,1-.31-3.78c2.18-6.69,8.32-10.92,14.83-15.39,1.3-.89,2.6-1.79,3.88-2.72h-3.55c-.49.35-1,.69-1.49,1-6.5,4.47-13.22,9.1-15.62,16.44a6.11,6.11,0,0,0,.57,5.57,7.51,7.51,0,0,0,5.88,3c.62,0,1.22.05,1.81.05,12.51,0,20.09-8.4,27.42-16.55a95.93,95.93,0,0,1,9.41-9.5Z"/><path class="cls-11" d="M145.61,448.62c4.58-3.51,10.35-11.13,8.85-17.07-.59-2.36-2.28-4-3.91-5.61a13.83,13.83,0,0,1-3.1-3.8c-2.9-6.2,2.69-16.68,5.74-22.39a105.43,105.43,0,0,1,7.47-11.9c-.88,0-1.76.08-2.63.18a107,107,0,0,0-6.69,10.84c-3.17,5.95-9.08,17-5.74,24.13a15.75,15.75,0,0,0,3.52,4.41c1.49,1.46,2.9,2.84,3.36,4.64,1.2,4.77-3.94,11.75-8.12,14.95a15.93,15.93,0,0,1-6.89,3.09c.6.56,1.2,1.13,1.84,1.66A18.24,18.24,0,0,0,145.61,448.62Z"/><path class="cls-11" d="M131.45,438.6a7.17,7.17,0,0,1-2.58-.87c.39.93.82,1.82,1.28,2.7a8,8,0,0,0,1.07.2,7.34,7.34,0,0,0,.81.05,7.82,7.82,0,0,0,5.79-2.82,11.05,11.05,0,0,0,2.5-8.55,58,58,0,0,0-1.53-8.26c-1.16-4.9-2.26-9.54-.66-15.07a37,37,0,0,1,8.75-14.76,36.6,36.6,0,0,0-5,2.79,36.38,36.38,0,0,0-5.75,11.4c-1.75,6-.59,10.94.64,16.12a57.14,57.14,0,0,1,1.49,8,9,9,0,0,1-2,7A5.57,5.57,0,0,1,131.45,438.6Z"/><path class="cls-11" d="M188.4,433.51c-1.84-8.05-4.13-18.07-15.59-18.11h0a14,14,0,0,0-11,5.88,12.48,12.48,0,0,0-2.26,11.11,22.68,22.68,0,0,0,1.11,2.78,16.7,16.7,0,0,1,1.19,3.21c.49,2.19.12,4.67-1.17,7.82a33.6,33.6,0,0,1-8.72,12.24c.78.23,1.58.43,2.38.61A35.5,35.5,0,0,0,162.54,447c1.45-3.56,1.85-6.43,1.27-9.05a19.31,19.31,0,0,0-1.33-3.6,22.08,22.08,0,0,1-1-2.54,10.48,10.48,0,0,1,1.95-9.29,12.06,12.06,0,0,1,9.37-5.05h0c9.83,0,11.75,8.41,13.64,16.68,2.28,10,10,19.94,15.17,25.81h2.75C199.36,454.5,190.8,444,188.4,433.51Z"/><path class="cls-11" d="M184.5,445.85a73.1,73.1,0,0,0-4-13.65c-.63-1.45-4-8.7-7.76-8.86-1.42-.07-2.68.83-3.65,2.64a8,8,0,0,0-.5,4.66c1.29,11.95-1,20.72-8,29.22.53,0,1,.08,1.58.08h.94c6.58-8.57,8.81-17.68,7.54-29.52a6.13,6.13,0,0,1,.26-3.48c.57-1.06,1.22-1.59,1.76-1.56,1.77.08,4.4,4,6,7.64a70.81,70.81,0,0,1,3.86,13.27c1.05,4.77,2.08,9.39,4.19,13.65H189C186.65,455.61,185.59,450.81,184.5,445.85Z"/><path class="cls-11" d="M180.74,457.64a32.28,32.28,0,0,1-.39-5c-.11-3.68-.23-7.86-2.35-10.4a2.79,2.79,0,0,0-3.33-.85c-1.76.89-1.55,3-1.42,4.24l0,.38c.42,5-2.9,9.62-6.46,13.91h2.64c3.4-4.25,6.3-8.85,5.86-14.08l0-.42c-.1-1-.16-2,.32-2.21.19-.11.6.06.83.34,1.67,2,1.78,5.8,1.88,9.15a31.73,31.73,0,0,0,.43,5.34c.14.66.34,1.25.5,1.88h2.12C181.15,459.18,180.91,458.45,180.74,457.64Z"/><path class="cls-11" d="M169.06,399.79a16.55,16.55,0,0,0-4.09,3.72,2.35,2.35,0,0,0-.31,2.49c.47.87,1.57,1.34,3.2,1.36h.08c2.19,0,4-1.24,5.66-2.33l.49-.33A95.92,95.92,0,0,0,184.9,396c1.24-1.11,2.48-2.22,3.75-3.3,1.93-1.66,3.9-3.27,5.87-4.89h-3.2c-1.33,1.11-2.69,2.2-4,3.33s-2.53,2.22-3.78,3.34A94.84,94.84,0,0,1,173,403l-.5.33c-1.47,1-3,2-4.57,2a4.19,4.19,0,0,1-1.41-.23,1.08,1.08,0,0,1,.21-.47,14.91,14.91,0,0,1,3.58-3.18c.67-.49,1.32-1,1.84-1.4l14.47-12.27h-3.16l-12.63,10.71C170.3,398.89,169.7,399.33,169.06,399.79Z"/><path class="cls-9" d="M208.68,407.4c3.49-3.16,7.94-5.84,14-8.44l1-.43a30,30,0,0,0,7.42-4,11.28,11.28,0,0,0,3.93-6.75h-2.81a8.39,8.39,0,0,1-2.85,4.63,27.2,27.2,0,0,1-6.75,3.62l-1,.43c-6.36,2.72-11.06,5.56-14.78,8.93a28.37,28.37,0,0,0-9.07,16.95c-.76,4.24-1.75,8.24-4.74,10.79.25.94.54,1.86.86,2.76,4.34-3,5.67-8.06,6.56-13.07A25.81,25.81,0,0,1,208.68,407.4Z"/><path class="cls-9" d="M227.82,458.15c-1.42-5.06-6.2-7.23-10.82-9.34-3.3-1.5-6.43-2.92-8.18-5.28-6.14-8.21,2.84-17,11.94-24.68,2.79-2.37,5.76-4.67,8.63-6.89,6.48-5,13.18-10.22,18.55-16.75a21.87,21.87,0,0,0,4.25-7.44h-2.84a20.58,20.58,0,0,1-3.52,5.71c-5.17,6.29-11.75,11.39-18.11,16.32-2.9,2.24-5.89,4.56-8.92,7.14-7.11,6-20.35,17.27-12.17,28.22,2.18,2.92,5.77,4.55,9.24,6.13,4.24,1.93,8.24,3.76,9.33,7.6a6.81,6.81,0,0,1,.11.92c.85.06,1.7.13,2.57.13h.23A8.26,8.26,0,0,0,227.82,458.15Z"/><path class="cls-9" d="M367.75,457c-1.84-5.65-3.34-10.75-3.13-15.93.36-9.18,6.21-17.41,11.26-23.55A154.44,154.44,0,0,1,398.76,395l.29-.23c2.17-1.73,4.42-3.53,5.77-6.12.14-.26.25-.55.37-.83h-3.07a19.82,19.82,0,0,1-4.77,4.82l-.29.23a157,157,0,0,0-23.29,23c-5.32,6.47-11.48,15.17-11.88,25.17-.22,5.63,1.34,11,3.26,16.88.23.7.47,1.41.71,2.11h2.89C368.4,459,368.06,458,367.75,457Z"/><path class="cls-9" d="M304.91,457.11c-1.29-5.69-2.34-10.83-2.19-16.07.26-9.28,4.34-17.55,7.87-23.72a140.63,140.63,0,0,1,15.9-22.54l.2-.23a19.1,19.1,0,0,0,4-6.11c.08-.22.14-.44.2-.67H328a17.45,17.45,0,0,1-3.4,5l-.2.23a144,144,0,0,0-16.21,23c-3.69,6.44-8,15.11-8.23,25-.15,5.56.93,10.88,2.26,16.75.16.74.34,1.49.52,2.23h2.8C305.34,459,305.12,458.05,304.91,457.11Z"/><path class="cls-9" d="M273.76,459.94A62.8,62.8,0,0,0,274,444c-.65-6.11-1.92-12.21-3.15-18.11-1.68-8.06-3.41-16.4-3.51-24.69a40.44,40.44,0,0,1,2.12-13.44h-2.88a41.38,41.38,0,0,0-2,13.47c.1,8.56,1.87,17,3.57,25.22a180.51,180.51,0,0,1,3.11,17.83,59.57,59.57,0,0,1-.33,15.65Z"/><path class="cls-9" d="M393.05,454.93c-.68-13.25,4.58-26.38,13.73-34.27a74.28,74.28,0,0,1,6.69-5c3.56-2.44,7.25-5,10.17-8.36,3.32-3.86,5.37-8.48,7.36-12.95a23.34,23.34,0,0,0,1.94-6.61h-2.73a23,23,0,0,1-1.7,5.5c-1.91,4.29-3.88,8.73-6.94,12.28-2.69,3.12-6.06,5.44-9.64,7.9a80.14,80.14,0,0,0-6.94,5.14c-9.91,8.56-15.39,22.2-14.67,36.48.08,1.62.25,3.24.49,4.87h2.77A47.58,47.58,0,0,1,393.05,454.93Z"/><path class="cls-9" d="M332.15,422.56c2.91-9.26,8.22-18.29,17.29-29.36a28.61,28.61,0,0,0,3.76-5.43h-3.12a36.16,36.16,0,0,1-2.84,3.81c-9.21,11.25-14.67,20.55-17.7,30.17a60.59,60.59,0,0,0,1.09,38.19h2.91A57.87,57.87,0,0,1,332.15,422.56Z"/><path class="cls-9" d="M429.16,452c.7-.49,1.39-1,2.07-1.49A86.79,86.79,0,0,0,453,427.08c2.2-3.5,4.62-8.12,3.72-12.88-.74-3.94-3.51-7-6.18-10-3-3.31-5.76-6.43-5.17-10.18a11.61,11.61,0,0,1,3.1-5.52c.22-.25.48-.47.7-.72h-3.64a12.69,12.69,0,0,0-2.85,5.82c-.79,5,2.57,8.79,5.83,12.42,2.42,2.7,4.93,5.5,5.53,8.7.72,3.83-1.41,7.84-3.34,10.92a84.28,84.28,0,0,1-21.08,22.66l-2,1.47c-4,2.86-8.11,5.84-10.56,10.18h3.22C422.49,456.78,425.86,454.34,429.16,452Z"/><path class="cls-9" d="M475.2,459.94c6.66-21,3-45.23-10.27-63-.91-1.23-1.86-2.5-1.8-3.73a5.45,5.45,0,0,1,1.26-2.71c.68-.95,1.4-1.86,2.15-2.74h-3.47c-.3.39-.61.76-.9,1.15a8,8,0,0,0-1.76,4.18c-.11,2.2,1.25,4,2.37,5.53,12.85,17.26,16.32,40.95,9.55,61.31Z"/><path class="cls-9" d="M499.83,459.94h2.84c2-7.25,3-14.75,4-22.07,2-15.29,3.18-32.52-7.73-43.59-.51-.52-1.05-1-1.59-1.53a16.11,16.11,0,0,1-3.67-4.29,7,7,0,0,1-.23-.69h-2.87a8.47,8.47,0,0,0,.66,1.91,18.33,18.33,0,0,0,4.25,5.06c.51.48,1,1,1.51,1.45,10,10.2,8.86,26.68,7,41.33C503,445,502,452.64,499.83,459.94Z"/><path class="cls-9" d="M558.26,425.67l-.45.95a36.37,36.37,0,0,0-2.66,22.56c.81-.82,1.58-1.67,2.3-2.56a33.68,33.68,0,0,1,2.82-18.84l.44-.92a15.35,15.35,0,0,0,1.8-5.17c.39-3.52-1.43-7.3-5.11-10.63a71.13,71.13,0,0,0-6.18-4.79c-5.38-3.88-10.47-7.55-11.08-13.35a8.8,8.8,0,0,1,.34-3.42c-.87-.28-1.75-.5-2.64-.71a11.72,11.72,0,0,0-.41,4.41c.73,7,6.56,11.22,12.2,15.28a69.84,69.84,0,0,1,5.94,4.61c1.75,1.57,4.62,4.76,4.23,8.3A13.34,13.34,0,0,1,558.26,425.67Z"/><path class="cls-9" d="M533,459.76c.14-1.45.22-2.92.22-4.41,0-11.21-3.79-21.84-7.11-29.84-.64-1.55-1.31-3.09-2-4.64-2.82-6.55-5.74-13.33-6.83-20.38a31.78,31.78,0,0,1,.48-12.72H515a35,35,0,0,0-.39,13.14c1.15,7.39,4.14,14.33,7,21,.66,1.54,1.32,3.07,2,4.6,3.22,7.77,6.92,18.07,6.91,28.79a45.4,45.4,0,0,1-.27,4.56C531.18,459.88,532.11,459.85,533,459.76Z"/><path class="cls-9" d="M292.59,459.94a22.7,22.7,0,0,0-.25-9.46,46,46,0,0,0-3.7-9.09c-.87-1.78-1.78-3.61-2.49-5.44a69.08,69.08,0,0,1-3.29-13.9c-.71-4.27-1.44-8.69-.79-12.95,1-6.34,5-12,8.49-17l3.08-4.35H290.3l-2,2.78c-3.7,5.23-7.89,11.16-9,18.14-.72,4.69.05,9.32.79,13.8a71.1,71.1,0,0,0,3.44,14.45c.75,1.94,1.68,3.83,2.58,5.65a43.66,43.66,0,0,1,3.5,8.54,20.31,20.31,0,0,1,.16,8.81Z"/><path class="cls-6" d="M227.88,401.41a22.45,22.45,0,0,0,0,44.9h301.6a22.45,22.45,0,1,0,0-44.9Z"/><path class="cls-27" d="M529.48,401.41H227.88a22.46,22.46,0,0,0-19.4,11.19,22.44,22.44,0,0,1,5.77-.77h301.6a22.41,22.41,0,0,1,19.4,33.7,22.43,22.43,0,0,0-5.77-44.12Z"/><rect class="cls-4" x="279.67" y="371.05" width="39.02" height="16.72"/><rect class="cls-16" x="290.92" y="376.26" width="16.52" height="8.22"/><rect class="cls-4" x="279.67" y="366.9" width="40.46" height="4.14"/><rect class="cls-3" x="267.15" y="366.9" width="12.52" height="4.14"/><rect class="cls-3" x="268.59" y="371.05" width="11.08" height="16.72"/><rect class="cls-28" x="279.67" y="371.05" width="39.02" height="1.76"/><rect class="cls-28" x="268.59" y="371.05" width="11.08" height="1.76" transform="translate(548.26 743.85) rotate(180)"/><polygon class="cls-29" points="279.67 371.05 268.59 387.77 279.67 387.77 279.67 371.05"/><rect class="cls-4" x="166.72" y="382.98" width="18.21" height="4.64" rx="0.48" ry="0.48"/><g class="cls-30"><path class="cls-3" d="M166.72,384.22v2.14a1.24,1.24,0,0,0,1.24,1.25h1.55a3.3,3.3,0,0,1-.3-1.92l5-.52a21.57,21.57,0,0,0,1.59-1.67c.05-.08,0-.28-.2-.53H168A1.24,1.24,0,0,0,166.72,384.22Z"/></g><path class="cls-8" d="M158.72,334.86a5.41,5.41,0,0,1,2.71.53,5.3,5.3,0,0,1-2,1.93.39.39,0,0,1-.17.11c-.4.12-.89-.36-1.1-1.06s-.06-1.38.34-1.5A.44.44,0,0,1,158.72,334.86Z"/><path class="cls-8" d="M170.69,359.24a7.28,7.28,0,0,1-3.7.28,7.14,7.14,0,0,1,1.88-3.2.7.7,0,0,1,.18-.2c.48-.29,1.29.14,1.81,1s.56,1.76.09,2A.8.8,0,0,1,170.69,359.24Z"/><path class="cls-8" d="M186.73,343.9a7.2,7.2,0,0,0,3.48-1.29,7.15,7.15,0,0,0-3.05-2.12.6.6,0,0,0-.25-.1c-.55-.07-1.1.67-1.23,1.65s.23,1.83.78,1.9A.63.63,0,0,0,186.73,343.9Z"/><path class="cls-8" d="M181,359.24a7.28,7.28,0,0,0,3.7.28,7.14,7.14,0,0,0-1.88-3.2.61.61,0,0,0-.19-.2c-.47-.29-1.28.14-1.8,1s-.56,1.76-.09,2A.8.8,0,0,0,181,359.24Z"/><path class="cls-8" d="M185.58,329.81a7.19,7.19,0,0,0,1.11-3.54,7.19,7.19,0,0,0-3.54,1.11.49.49,0,0,0-.23.14c-.4.39-.15,1.28.55,2s1.58.94,2,.55A.7.7,0,0,0,185.58,329.81Z"/><path class="cls-8" d="M198.8,341.47a6.4,6.4,0,0,0,1.43-3A6.36,6.36,0,0,0,197,339a.6.6,0,0,0-.22.09c-.4.3-.3,1.11.23,1.81s1.27,1,1.67.75A.7.7,0,0,0,198.8,341.47Z"/><path class="cls-6" d="M166.7,342.52a10.93,10.93,0,0,1-1.82.51,12.05,12.05,0,0,1-1.83.21,9.72,9.72,0,0,1-3.85-.62,9.34,9.34,0,0,1-3.48-2.24,11.63,11.63,0,0,1-1.34-1.56c-.39-.54-.7-1.12-1-1.7a3.21,3.21,0,1,1,5.51-3.29,3.39,3.39,0,0,1,.31.67l.09.29c.1.34.17.73.29,1.07a6,6,0,0,0,.43,1,4.53,4.53,0,0,0,1.31,1.55,5.59,5.59,0,0,0,2.06.95,8.36,8.36,0,0,0,1.25.19,10.06,10.06,0,0,0,1.22,0h.31a1.55,1.55,0,0,1,.58,3Z"/><g class="cls-30"><path class="cls-3" d="M156,332.28c.29,2.2,1.12,5.44,3.53,7.36a7.44,7.44,0,0,0,4.76,1.55,13,13,0,0,0,3.24-.45.38.38,0,0,0,.18-.09,1.54,1.54,0,0,0-.55-.81c-2.94.74-5.3.42-7-.95-2.06-1.64-2.83-4.47-3.13-6.5A3,3,0,0,0,156,332.28Z"/></g><g class="cls-30"><path class="cls-3" d="M167.36,341.45a11.27,11.27,0,0,1-8.83-1.25,13.85,13.85,0,0,1-5-6.62,3.15,3.15,0,0,0-.54,1.23,14.17,14.17,0,0,0,5,6.19,11.18,11.18,0,0,0,6.2,1.77,15.77,15.77,0,0,0,2.42-.22l.08,0a1.59,1.59,0,0,0,1-1A.45.45,0,0,0,167.36,341.45Z"/></g><g class="cls-24"><path class="cls-8" d="M166.7,342.52a1.55,1.55,0,0,0-.58-3h-.31a10.06,10.06,0,0,1-1.22,0,8.36,8.36,0,0,1-1.25-.19,6.15,6.15,0,0,1-1.12-.39,12.92,12.92,0,0,0-.41,2.42,11.26,11.26,0,0,1-8.62-4.54,1.77,1.77,0,0,0,.15.31c.34.58.65,1.16,1,1.7a11.63,11.63,0,0,0,1.34,1.56,9.34,9.34,0,0,0,3.48,2.24,9.72,9.72,0,0,0,3.85.62,12.05,12.05,0,0,0,1.83-.21A10.93,10.93,0,0,0,166.7,342.52Z"/></g><path class="cls-6" d="M182.1,349.9a14.44,14.44,0,0,0,1.79-.25,13,13,0,0,0,1.78-.49,8.88,8.88,0,0,0,2.89-1.64,5.2,5.2,0,0,0,1.56-2.29,8.32,8.32,0,0,0,.45-2.81l0-.28a4.2,4.2,0,0,1,8.38.46,4.8,4.8,0,0,1-.21,1.08,22.57,22.57,0,0,1-.94,2.73l-.66,1.33a10.94,10.94,0,0,1-.83,1.26,12,12,0,0,1-4.46,3.82,14.87,14.87,0,0,1-5.17,1.46,16.4,16.4,0,0,1-2.52.07,16.91,16.91,0,0,1-2.54-.27,2.09,2.09,0,0,1,.18-4.15Z"/><g class="cls-30"><path class="cls-3" d="M183.38,351.12a.48.48,0,0,0,.41.54,3.64,3.64,0,0,0,.58,0,8.14,8.14,0,0,0,5-1.79c2.8-2.2,4.51-6.14,5.11-11.69a3.69,3.69,0,0,0-1,.19c-.6,5.11-2.17,8.73-4.69,10.72a7,7,0,0,1-4.85,1.59A.48.48,0,0,0,183.38,351.12Z"/></g><g class="cls-30"><path class="cls-3" d="M193.22,350.64c3.44-3.19,4.48-8.05,4.79-10.92a4.13,4.13,0,0,0-.9-.82c-.21,2.57-1.07,7.81-4.54,11-2.33,2.15-5.46,3.06-9.31,2.7a.49.49,0,0,0-.53.44.48.48,0,0,0,.44.52,16.31,16.31,0,0,0,1.69.08A11.84,11.84,0,0,0,193.22,350.64Z"/></g><g class="cls-24"><path class="cls-8" d="M197.82,346.41a22.57,22.57,0,0,0,.94-2.73,4.8,4.8,0,0,0,.21-1.08,4.32,4.32,0,0,0-.14-1.25c-.68,2.15-3.81,10.5-11.71,10.34.19-.87.39-2.3.55-3.51a9.54,9.54,0,0,1-2,1,13,13,0,0,1-1.78.49,14.44,14.44,0,0,1-1.79.25l-.28,0a2.09,2.09,0,0,0-.18,4.15,16.91,16.91,0,0,0,2.54.27,16.4,16.4,0,0,0,2.52-.07,14.87,14.87,0,0,0,5.17-1.46,12,12,0,0,0,4.46-3.82,10.94,10.94,0,0,0,.83-1.26Z"/></g><path class="cls-4" d="M177.84,321.93s-.49-4.56-2-4.88c-1.53.32-2,4.88-2,4.88a5.5,5.5,0,0,0-4,0c1,3.19,6,3.92,6,3.92s4.93-.73,6-3.92A5.5,5.5,0,0,0,177.84,321.93Z"/><g class="cls-30"><path class="cls-3" d="M181.59,321.85a5.8,5.8,0,0,1-1.31,1.06,7.24,7.24,0,0,1-7.74-.12,5.79,5.79,0,0,1-1.33-1.19,5.67,5.67,0,0,0-1.36.33c1,3.19,6,3.92,6,3.92s4.93-.73,6-3.92Z"/></g><path class="cls-6" d="M187.92,337.64a15.74,15.74,0,0,0-2.63-8.51,11.63,11.63,0,0,0-18.94,0,15.74,15.74,0,0,0-2.63,8.51c-.56,13.09,8.16,24.21,8.16,24.21h7.88S188.48,350.73,187.92,337.64Z"/><g class="cls-30"><path class="cls-3" d="M166.37,339.21c0,8.76,4,18.44,5.88,22.64h1.07c-1.8-3.85-6-13.75-6-22.64a21.82,21.82,0,0,1,5.86-14.67,11.39,11.39,0,0,0-1.74.56A22.46,22.46,0,0,0,166.37,339.21Z"/></g><g class="cls-30"><path class="cls-3" d="M185.27,339.21a22.46,22.46,0,0,0-5.09-14.11,11.76,11.76,0,0,0-1.74-.56,21.82,21.82,0,0,1,5.86,14.67c0,8.89-4.18,18.79-6,22.64h1.06C181.31,357.65,185.27,348,185.27,339.21Z"/></g><g class="cls-30"><path class="cls-3" d="M174.14,361.85h1a138.12,138.12,0,0,1-2.34-22.64,44.38,44.38,0,0,1,2.35-14.92c-.36,0-.71,0-1.07.1a45.61,45.61,0,0,0-2.24,14.82A138,138,0,0,0,174.14,361.85Z"/></g><g class="cls-30"><path class="cls-3" d="M177.5,361.85a138,138,0,0,0,2.32-22.64,45.61,45.61,0,0,0-2.24-14.82c-.36-.05-.72-.08-1.08-.1a44.06,44.06,0,0,1,2.36,14.92,138.12,138.12,0,0,1-2.34,22.64Z"/></g><g class="cls-24"><path class="cls-8" d="M178.32,360a7.3,7.3,0,0,1-6.31-3.59c-2.54-4.32-6.16-12.05-5.79-20.62a15.77,15.77,0,0,1,2.62-8.51,11.35,11.35,0,0,1,1.38-1.6,11.15,11.15,0,0,0-3.87,3.45,15.74,15.74,0,0,0-2.63,8.51c-.56,13.09,8.16,24.21,8.16,24.21h7.88s.52-.66,1.29-1.85Z"/></g><path class="cls-8" d="M181.76,338.34a7.09,7.09,0,0,0,3.16-1.94,7.12,7.12,0,0,0-3.39-1.49.48.48,0,0,0-.26-.05c-.56,0-1,.86-.89,1.85s.57,1.75,1.13,1.71A.57.57,0,0,0,181.76,338.34Z"/><path class="cls-8" d="M176.53,331.93a7.21,7.21,0,0,0,3.16-1.93,7.22,7.22,0,0,0-3.39-1.5.65.65,0,0,0-.27-.05c-.56,0-.95.87-.89,1.85s.57,1.75,1.13,1.72A.62.62,0,0,0,176.53,331.93Z"/><path class="cls-8" d="M181,352.52a7.1,7.1,0,0,0,3.7-.09,7.15,7.15,0,0,0-2.18-3,.72.72,0,0,0-.21-.18c-.5-.24-1.26.27-1.69,1.16s-.39,1.8.11,2.05A.65.65,0,0,0,181,352.52Z"/><path class="cls-8" d="M164.91,343.9a7.17,7.17,0,0,1-3.48-1.29,7.15,7.15,0,0,1,3-2.12.55.55,0,0,1,.25-.1c.55-.07,1.1.67,1.22,1.65s-.22,1.83-.78,1.9A.61.61,0,0,1,164.91,343.9Z"/><path class="cls-8" d="M154.39,333.68A5.33,5.33,0,0,1,155,331a5.44,5.44,0,0,1,1.84,2.06.64.64,0,0,1,.1.18c.1.4-.4.88-1.11,1.06s-1.38,0-1.48-.41A.45.45,0,0,1,154.39,333.68Z"/><path class="cls-8" d="M166.06,329.81a7.19,7.19,0,0,1-1.11-3.54,7.19,7.19,0,0,1,3.54,1.11.49.49,0,0,1,.23.14c.4.39.15,1.28-.55,2s-1.58.94-2,.55A.7.7,0,0,1,166.06,329.81Z"/><path class="cls-8" d="M169.88,338.34a7,7,0,0,1-3.16-1.94,7.12,7.12,0,0,1,3.39-1.49.47.47,0,0,1,.26-.05c.56,0,1,.86.89,1.85s-.57,1.75-1.13,1.71A.57.57,0,0,1,169.88,338.34Z"/><path class="cls-8" d="M175.41,345a7.16,7.16,0,0,1-3.7-.29,7.12,7.12,0,0,1,2.35-2.87.62.62,0,0,1,.22-.17c.51-.21,1.24.34,1.63,1.25s.28,1.83-.24,2A.46.46,0,0,1,175.41,345Z"/><path class="cls-8" d="M176.07,356a7.25,7.25,0,0,1-3.69-.3,7.1,7.1,0,0,1,2.35-2.87.54.54,0,0,1,.21-.16c.51-.22,1.24.34,1.63,1.25s.28,1.82-.23,2A.84.84,0,0,1,176.07,356Z"/><path class="cls-8" d="M170.65,352.52a7.14,7.14,0,0,1-3.71-.09,7.16,7.16,0,0,1,2.19-3,.61.61,0,0,1,.21-.18c.5-.24,1.26.27,1.69,1.16s.39,1.8-.12,2.05A.58.58,0,0,1,170.65,352.52Z"/><path class="cls-8" d="M195.24,339.57a6.32,6.32,0,0,0-1.91-2.69,6.45,6.45,0,0,0-1.12,3.11.58.58,0,0,0,0,.23c.07.49.83.8,1.7.68s1.52-.62,1.45-1.11A.47.47,0,0,0,195.24,339.57Z"/><path class="cls-8" d="M195.19,346.79a6.44,6.44,0,0,0,3.29-.27,6.4,6.4,0,0,0-2.09-2.55.9.9,0,0,0-.19-.15c-.46-.19-1.11.31-1.45,1.12s-.25,1.62.21,1.81A.59.59,0,0,0,195.19,346.79Z"/><path class="cls-8" d="M155.8,338.9a5.4,5.4,0,0,1-2.77,0,5.48,5.48,0,0,1,1.59-2.27.61.61,0,0,1,.15-.13c.37-.19.95.19,1.28.84s.31,1.34-.06,1.53A.41.41,0,0,1,155.8,338.9Z"/><path class="cls-4" d="M175.92,366.9H163.14s.09,10,1.91,15a4.2,4.2,0,0,0,3.14,2.68,40,40,0,0,0,7.73.58,40.19,40.19,0,0,0,7.74-.58,4.2,4.2,0,0,0,3.13-2.68c1.82-5.05,1.91-15,1.91-15Z"/><g class="cls-30"><path class="cls-3" d="M179.35,385.08c.49,0,1-.05,1.41-.09l.73-.08,1-.11.59-.1.64-.12a4.2,4.2,0,0,0,2.72-1.93,25.47,25.47,0,0,1-7.78,1c-8,0-9.85-2-9.85-2-2.08-2.64-2.69-10.7-2.86-14.71h-2.79s.09,10,1.91,15a4.15,4.15,0,0,0,1.21,1.75,4.3,4.3,0,0,0,1.93.93,40,40,0,0,0,7.73.58c1,0,1.87,0,2.68-.05Z"/></g><rect class="cls-4" x="161.27" y="361.68" width="29.1" height="5.87" rx="0.63" ry="0.63"/><g class="cls-30"><path class="cls-3" d="M168,365.92a4.22,4.22,0,0,1-4.22-4.22v0h-.85a1.65,1.65,0,0,0-1.65,1.65v2.58a1.65,1.65,0,0,0,1.65,1.64h25.8a1.65,1.65,0,0,0,1.65-1.63Z"/></g><path class="cls-4" d="M239.6,417.54a7.18,7.18,0,0,0,0,14.36h51.49V417.54Z"/><path class="cls-6" d="M248,430.74s-2.2-1.72-2.2-5.8a9.08,9.08,0,0,1,2.2-6.24h6.23a9.08,9.08,0,0,0-2.2,6.24c0,4.08,2.2,5.8,2.2,5.8Z"/><path class="cls-6" d="M263,417.54h-3.24a11,11,0,0,0-3,7.33,10,10,0,0,0,2.92,7h3.48a8.56,8.56,0,0,1-4.16-7C259,421.45,261.23,419,263,417.54Z"/><path class="cls-6" d="M240.37,424.87c0-3.42,2.22-5.91,3.95-7.33h-3.24a11,11,0,0,0-3,7.33,10,10,0,0,0,2.92,7h3.47A8.57,8.57,0,0,1,240.37,424.87Z"/><g class="cls-31"><path class="cls-5" d="M232.76,422.65a7.07,7.07,0,0,0-.34,2.07h0a7.18,7.18,0,0,0,7.18,7.18h51.49v-4.14H239.6A7.15,7.15,0,0,1,232.76,422.65Z"/></g><path class="cls-32" d="M269.91,419.74h43.6a0,0,0,0,1,0,0v10a0,0,0,0,1,0,0h-43.6a1.82,1.82,0,0,1-1.82-1.82v-6.3A1.82,1.82,0,0,1,269.91,419.74Z"/><path class="cls-9" d="M273.06,419.74h42.69v-2.2h-44.1a7.17,7.17,0,0,0-7.18,7.18h0a7.18,7.18,0,0,0,7.18,7.18h44.1v-2.21H273.06a5,5,0,0,1-5-5h0A5,5,0,0,1,273.06,419.74Z"/><polygon class="cls-4" points="275.88 421.98 275.88 427.76 278.66 426.37 280.83 427.76 280.83 421.98 275.88 421.98"/><path class="cls-5" d="M238.39,431.9a7.17,7.17,0,0,0-7.18,7.18h0a7.17,7.17,0,0,0,7.18,7.18h51.49V431.9Z"/><path class="cls-6" d="M240.85,439.05a11.76,11.76,0,0,1,2.37-7.15h-4.83c-.13,0-.26,0-.39,0a16.15,16.15,0,0,0-1.63,7.11,17.07,17.07,0,0,0,1.59,7.17c.15,0,.28,0,.43,0h4.7A13.08,13.08,0,0,1,240.85,439.05Z"/><path class="cls-6" d="M260,439.05a11.69,11.69,0,0,1,2.38-7.15h-5.2a16.15,16.15,0,0,0-1.66,7.15,17,17,0,0,0,1.62,7.21h5.1A13.08,13.08,0,0,1,260,439.05Z"/><g class="cls-31"><path class="cls-3" d="M231.55,437a7.12,7.12,0,0,0-.34,2.07h0a7.17,7.17,0,0,0,7.18,7.18h51.49v-4.14H238.39A7.15,7.15,0,0,1,231.55,437Z"/></g><path class="cls-32" d="M268.7,434.1h43.6a0,0,0,0,1,0,0v10a0,0,0,0,1,0,0H268.7a1.82,1.82,0,0,1-1.82-1.82v-6.3A1.82,1.82,0,0,1,268.7,434.1Z"/><path class="cls-9" d="M271.85,434.1h42.69v-2.2H270.43a7.18,7.18,0,0,0-7.18,7.18h0a7.18,7.18,0,0,0,7.18,7.18h44.11v-2.21H271.85a5,5,0,0,1-5-5h0A5,5,0,0,1,271.85,434.1Z"/><polygon class="cls-4" points="290.7 437.74 290.7 443.52 293.48 442.13 295.66 443.52 295.66 437.74 290.7 437.74"/><path class="cls-4" d="M384.66,446.26h-56a2.63,2.63,0,0,1-2.63-2.63v-9.1a2.63,2.63,0,0,1,2.63-2.63h56Z"/><g class="cls-31"><path class="cls-5" d="M326.32,437a7.47,7.47,0,0,0-.33,2.07h0a7.17,7.17,0,0,0,7.18,7.18h51.49v-4.14H333.17A7.17,7.17,0,0,1,326.32,437Z"/></g><path class="cls-32" d="M363.47,434.1h43.6a0,0,0,0,1,0,0v10a0,0,0,0,1,0,0h-43.6a1.82,1.82,0,0,1-1.82-1.82v-6.3A1.82,1.82,0,0,1,363.47,434.1Z"/><path class="cls-9" d="M366.62,434.1h42.7v-2.2H365.21a7.18,7.18,0,0,0-7.18,7.18h0a7.18,7.18,0,0,0,7.18,7.18h44.11v-2.21h-42.7a5,5,0,0,1-5-5h0A5,5,0,0,1,366.62,434.1Z"/><polygon class="cls-4" points="365.31 437.74 365.31 443.52 368.09 442.13 370.26 443.52 370.26 437.74 365.31 437.74"/><circle class="cls-3" cx="277.77" cy="124.85" r="57.85"/><circle class="cls-6" cx="277.77" cy="124.85" r="53.37"/><path class="cls-3" d="M305.09,126.52H277.77a1.68,1.68,0,0,1,0-3.35h27.32a1.68,1.68,0,1,1,0,3.35Z"/><path class="cls-3" d="M277.77,126.52a1.67,1.67,0,0,1-1.67-1.67V84.36a1.68,1.68,0,0,1,3.35,0v40.49A1.68,1.68,0,0,1,277.77,126.52Z"/><circle class="cls-3" cx="277.77" cy="76.89" r="2.64"/><path class="cls-3" d="M313.55,92.81a2.64,2.64,0,1,1,0-3.74A2.65,2.65,0,0,1,313.55,92.81Z"/><path class="cls-3" d="M325.73,127.49a2.65,2.65,0,1,1,2.64-2.64A2.64,2.64,0,0,1,325.73,127.49Z"/><path class="cls-3" d="M309.81,160.63a2.64,2.64,0,1,1,3.74,0A2.65,2.65,0,0,1,309.81,160.63Z"/><circle class="cls-3" cx="277.77" cy="172.81" r="2.64"/><path class="cls-3" d="M242,156.89a2.64,2.64,0,1,1,0,3.74A2.65,2.65,0,0,1,242,156.89Z"/><circle class="cls-3" cx="229.82" cy="124.85" r="2.64"/><path class="cls-3" d="M245.73,89.07a2.64,2.64,0,1,1-3.74,0A2.65,2.65,0,0,1,245.73,89.07Z"/><path class="cls-6" d="M176.49,221.79a98.72,98.72,0,0,1,10.33-40.58,44.81,44.81,0,0,1,5.62-9.27,22.74,22.74,0,0,1,2-2,23.3,23.3,0,0,1,2.23-1.64,13.91,13.91,0,0,1,5.24-2.2,9.14,9.14,0,0,1,5.72.78,15.49,15.49,0,0,1,4.38,3.33,42.4,42.4,0,0,1,5.87,8.75.26.26,0,0,1-.1.34.26.26,0,0,1-.32-.08,46.12,46.12,0,0,0-6.5-7.93c-2.48-2.21-5.61-3.74-8.56-2.8a11.37,11.37,0,0,0-4.13,2.12,19.68,19.68,0,0,0-1.86,1.58,20.82,20.82,0,0,0-1.53,1.77,42,42,0,0,0-4.51,8.84c-.64,1.56-1.15,3.21-1.73,4.8s-1,3.27-1.47,4.91c-.94,3.3-2,6.57-3,9.84s-2.19,6.54-3.39,9.8-2.39,6.52-3.81,9.76a.23.23,0,0,1-.32.13A.25.25,0,0,1,176.49,221.79Z"/><path class="cls-6" d="M179.25,231.27a109.14,109.14,0,0,1-1.35-13c-.24-4.33-.26-8.66-.15-13a138,138,0,0,1,3.46-25.82,79.19,79.19,0,0,1,3.72-12.65,41.42,41.42,0,0,1,6.62-11.52,24.47,24.47,0,0,1,10.91-7.55,19.61,19.61,0,0,1,13,.37.24.24,0,0,1-.16.46,19.16,19.16,0,0,0-12.32.59,22.44,22.44,0,0,0-9.51,7.65A38.7,38.7,0,0,0,187.91,168a75.19,75.19,0,0,0-2.85,12.27c-1.37,8.37-1.53,16.92-2.43,25.4s-1.61,17-2.89,25.63a.25.25,0,0,1-.28.21A.26.26,0,0,1,179.25,231.27Z"/><path class="cls-6" d="M173.66,227.87c-1.3-9.86-2.35-19.62-3.66-29.34s-2.23-19.45-4.32-29a134.34,134.34,0,0,0-3.79-14.13c-.71-2.34-1.69-4.56-2.53-6.85a12.71,12.71,0,0,0-3.82-5.42,8.82,8.82,0,0,0-6.22-1.69,15.13,15.13,0,0,0-6.51,2.35,26,26,0,0,0-9.21,11,.24.24,0,0,1-.32.12.25.25,0,0,1-.14-.31,26.08,26.08,0,0,1,8.83-12,17,17,0,0,1,7.12-3.08,11.08,11.08,0,0,1,7.86,1.66,15.31,15.31,0,0,1,5,6.27c1,2.3,2.11,4.56,2.95,6.92a138.19,138.19,0,0,1,4.6,14.29c2.55,9.66,4.7,19.47,5.38,29.43.17,2.49.28,5,.38,7.47s.12,5,0,7.47a114.7,114.7,0,0,1-1.12,14.91.25.25,0,0,1-.28.21A.25.25,0,0,1,173.66,227.87Z"/><path class="cls-6" d="M173.67,231.28c-1.84-7.2-3.23-14.35-4.71-21.46s-2.35-14.3-4.21-21.29a84.85,84.85,0,0,0-3.23-10.25c-1.38-3.23-3.05-6.42-5.54-8.64a7.34,7.34,0,0,0-9-1,15.51,15.51,0,0,0-4.08,3.31,27.18,27.18,0,0,0-3.23,4.34h0a.25.25,0,0,1-.34.08.24.24,0,0,1-.09-.31c1.61-3.3,3.71-6.56,7-8.72a9.35,9.35,0,0,1,5.66-1.73,9.88,9.88,0,0,1,3,.59l1.36.7c.23.12.46.24.68.37l.59.46c3.18,2.49,5.19,5.88,6.91,9.24a93.13,93.13,0,0,1,4.09,10.46A110.85,110.85,0,0,1,173.79,209c.42,3.68.75,7.37.81,11.08a75.46,75.46,0,0,1-.44,11.13.25.25,0,0,1-.28.21A.26.26,0,0,1,173.67,231.28Z"/><path class="cls-6" d="M176.49,229.35a220.84,220.84,0,0,1-3.77-31.55,227,227,0,0,1,.9-31.81,119.76,119.76,0,0,1,2.27-15.88,59.06,59.06,0,0,1,5.51-15.17,37.1,37.1,0,0,1,10.4-12.31,27.3,27.3,0,0,1,14.93-5.42.25.25,0,0,1,.26.23.26.26,0,0,1-.22.26,27,27,0,0,0-14,6.12,35.14,35.14,0,0,0-9.15,12.23c-4.5,9.34-5.68,19.77-6.06,30.19s.19,20.94.09,31.44-.07,21-.63,31.63a.24.24,0,0,1-.26.23A.23.23,0,0,1,176.49,229.35Z"/><path class="cls-4" d="M183.09,230.52c-6.06-13.35,5.46-30.34,5.46-30.34H161.86s11.53,17,5.46,30.34-17.6,18.81-17.6,34.58c0,11.9,14.5,15.17,21.63,16.06a31.08,31.08,0,0,0,7.71,0c7.13-.89,21.63-4.16,21.63-16.06C200.69,249.33,189.16,243.87,183.09,230.52Z"/><g class="cls-30"><path class="cls-3" d="M188.5,275a32.08,32.08,0,0,1-7.71,0c-7.12-.84-21.63-3.94-21.63-15.23,0-15,7.25-20.14,13.32-32.8,4.78-10-.82-22.07-3.64-26.76h-7s11.53,17,5.46,30.34-17.6,18.81-17.6,34.58c0,11.9,14.5,15.17,21.63,16.06a31.08,31.08,0,0,0,7.71,0c5.21-.65,14.35-2.59,18.89-8.23A48.68,48.68,0,0,1,188.5,275Z"/></g><rect class="cls-9" x="40.48" y="278.25" width="144.17" height="14.79"/><rect class="cls-6" x="64.09" y="278.25" width="144.17" height="14.79"/><rect class="cls-3" x="77.93" y="210.38" width="25.29" height="67.87"/><rect class="cls-4" x="103.22" y="210.38" width="13.6" height="67.87"/><rect class="cls-6" x="103.22" y="217.33" width="13.6" height="7.05" transform="translate(220.04 441.71) rotate(180)"/><rect class="cls-6" x="103.22" y="264.98" width="13.6" height="7.05" transform="translate(220.04 537.01) rotate(180)"/><ellipse class="cls-6" cx="110.02" cy="244.32" rx="4.61" ry="13.22"/><rect class="cls-3" x="52.64" y="210.38" width="25.29" height="67.87"/><rect class="cls-4" x="77.93" y="210.38" width="13.6" height="67.87"/><rect class="cls-6" x="77.93" y="217.33" width="13.6" height="7.05" transform="translate(169.47 441.71) rotate(180)"/><rect class="cls-6" x="77.93" y="264.98" width="13.6" height="7.05" transform="translate(169.47 537.01) rotate(180)"/><path class="cls-6" d="M74.2,253.78V236.62c-3.12,0-5.65-4.47-5.65-10H62c0,5.51-2.53,10-5.65,10v17.16c3.12,0,5.65,4.46,5.65,10h6.53C68.55,258.24,71.08,253.78,74.2,253.78Z"/><path class="cls-33" d="M131.6,265.64a.89.89,0,0,1-.57-.21.91.91,0,0,1-.12-1.27,3.78,3.78,0,0,0,.48-3,12.82,12.82,0,0,1-.29-3.82.9.9,0,1,1,1.78.25,12.45,12.45,0,0,0,.28,3.24,5.58,5.58,0,0,1-.86,4.46A.9.9,0,0,1,131.6,265.64Z"/><polygon class="cls-4" points="142.52 278.25 120.62 278.25 113.86 261.01 149.28 261.01 142.52 278.25"/><polygon class="cls-3" points="146.08 269.17 147.93 264.46 115.22 264.46 117.06 269.17 146.08 269.17"/><path class="cls-34" d="M136.78,276.29a15.76,15.76,0,0,1-14.67-10L120,261h-6.18l6.76,17.24h21.9l.77-2Z"/><path class="cls-6" d="M137.65,252.9a5.66,5.66,0,1,1-11.32,0c0-3.13,5.66-15.88,5.66-15.88S137.65,249.77,137.65,252.9Z"/><path class="cls-3" d="M134.92,254.6a2.93,2.93,0,1,1-5.86,0c0-1.62,2.93-8.22,2.93-8.22S134.92,253,134.92,254.6Z"/><rect class="cls-6" x="404.99" width="3.91" height="112.06"/><path class="cls-5" d="M423.51,97.59H390.38a7.55,7.55,0,0,0-7.54,7.54v10.52h48.22V105.13A7.55,7.55,0,0,0,423.51,97.59Z"/><path class="cls-3" d="M345.82,167.75a61.13,61.13,0,0,1,122.26,0Z"/><path class="cls-35" d="M401.63,154.78c-22.37,0-34-27.06-18.28-43,.26-.27.54-.52.81-.78a61.13,61.13,0,0,0-38.34,56.72H468.08a61.57,61.57,0,0,0-1.39-13Z"/><path class="cls-6" d="M117.65,566.92a1.73,1.73,0,0,1-.32,0,1.59,1.59,0,0,1-1.25-1.87c.93-4.62,22.85-113.14,41.34-127.65,6.76-5.3,11.68-5,14.62-3.81,5,2,7.42,7.64,8.05,12.23.7,5.07-.51,9.49-3.16,11.53a7.56,7.56,0,0,1-6.51,1.67c-4.79-1.09-7.77-6.93-7.89-7.18a1.59,1.59,0,1,1,2.84-1.43c.67,1.32,3,4.88,5.77,5.51A4.49,4.49,0,0,0,175,454.8c1.69-1.31,2.47-4.75,1.95-8.57s-2.38-8.22-6.09-9.72c-3.1-1.25-7.06-.09-11.46,3.36-5,3.93-13.71,18.9-26.67,67.88-7.81,29.5-13.46,57.61-13.51,57.89A1.6,1.6,0,0,1,117.65,566.92Z"/><path class="cls-6" d="M105.77,568a1.58,1.58,0,0,1-1.34-.73c-.7-1.08-1-5.28-2.19-24.35-1.94-31.55-5.55-90.28-13.57-105-3.91-7.14-8.31-10-12.4-8.08-4.34,2.05-7.52,9.36-5.86,13.49.7,1.74,1.66,2.75,2.92,3.08,2.52.68,5.88-1.4,7-2.26a1.59,1.59,0,0,1,2,2.5c-.21.17-5.2,4.05-9.76,2.84-2.27-.6-4-2.27-5.05-5C65.15,438.77,69,429.75,74.91,427c2.72-1.29,9.78-2.94,16.55,9.43,8.37,15.31,11.87,72.26,14,106.3.68,11.05,1.32,21.49,1.77,23a1.59,1.59,0,0,1-1.42,2.31Zm1.33-2.45h0Z"/><path class="cls-3" d="M110.3,576.44c-7.39-6.8-11.31-13.8-14.54-20.82a68.47,68.47,0,0,1-5.38-21.13c-.75-7,0-14,.6-21,.34-3.51.79-7,1.23-10.5s1.1-7,1.74-10.46a196.51,196.51,0,0,1,12.22-41.18c1.33-3.34,3-6.66,4.7-9.92a98.66,98.66,0,0,1,5.48-9.64,103.9,103.9,0,0,1,6.4-9.17,95.35,95.35,0,0,1,7.67-8.4,1.22,1.22,0,0,1,2.05.75v0c1.59,15,2.46,28.42,3.17,41.92s1,26.7.77,39.91c0,3.32-.12,6.61-.2,9.92s-.17,6.62-.36,9.93c-.31,6.62-.44,13.24-1.76,19.83a76.68,76.68,0,0,1-6.75,19.81,73.17,73.17,0,0,1-14.84,20.13l0,0A1.59,1.59,0,0,1,110.3,576.44Z"/><path class="cls-4" d="M109.81,568.3c-.92-11-1.08-22-.91-32.95s.75-22,1.77-32.93a328.37,328.37,0,0,1,4.64-32.69A174.26,174.26,0,0,1,124.38,438c-2.42,10.73-4.16,21.49-5.69,32.3-.34,2.71-.69,5.41-1.08,8.11l-.91,8.13c-.63,5.42-1.19,10.86-1.66,16.29-1.1,10.87-1.86,21.77-2.73,32.68Z"/><path class="cls-36" d="M134.09,536.47c1.32-6.59,1.45-13.21,1.76-19.83.19-3.31.27-6.62.36-9.93s.19-6.6.2-9.92c0-1.27,0-2.54,0-3.81-7.89,10.13-21.79,28.92-25.47,40.14,0,0-10.3-26-17.34-38.65-.5,2.82-1,5.65-1.41,8.47-.44,3.5-.89,7-1.23,10.5-.61,7-1.35,14-.6,21a68.47,68.47,0,0,0,5.38,21.13c3.23,7,7.15,14,14.54,20.82a1.59,1.59,0,0,0,2.17,0l0,0a73.17,73.17,0,0,0,14.84-20.13A76.68,76.68,0,0,0,134.09,536.47Z"/><path class="cls-4" d="M92.66,580.23a50,50,0,0,1-9.34-7A53.55,53.55,0,0,1,76.85,566a46.85,46.85,0,0,1-7.41-15.33c-2.59-10.66-4.94-21.33-7.23-32l-6.79-32a335.29,335.29,0,0,0-8.62-32.92v0a1.19,1.19,0,0,1,.76-1.51,1.13,1.13,0,0,1,.85,0A57.16,57.16,0,0,1,64,462.82a96.06,96.06,0,0,1,12.44,13.91,150.89,150.89,0,0,1,17.79,31.73,200.88,200.88,0,0,1,10.73,34,44,44,0,0,1-.24,18.09,46.48,46.48,0,0,1-3.32,9.53,40.2,40.2,0,0,1-6.55,9.88,1.71,1.71,0,0,1-2.13.33Z"/><g class="cls-30"><path class="cls-3" d="M93,568.3c-1.63-8.28-3.57-16.4-5.71-24.47S82.77,527.76,80,519.9s-5.53-15.71-8.73-23.41-6.69-15.3-10.09-23.05a144.21,144.21,0,0,1,13.2,21.63c2,3.73,3.61,7.66,5.33,11.53.86,1.94,1.52,3.95,2.29,5.92s1.51,4,2.16,6a178.2,178.2,0,0,1,6.38,24.58A124.94,124.94,0,0,1,93,568.3Z"/></g><path class="cls-4" d="M123.52,576.15a40.48,40.48,0,0,1-5.88-10.82,44,44,0,0,1-2.38-9.9,38.85,38.85,0,0,1,2-17.53,161.37,161.37,0,0,1,7.2-15.43c2.67-5,5.5-9.93,8.64-14.68a161.71,161.71,0,0,1,21.55-26.66q3.08-3,6.31-5.95c2.27-1.87,4.45-3.77,6.81-5.54a81.2,81.2,0,0,1,7.26-5.11,78.29,78.29,0,0,1,7.87-4.53,1.47,1.47,0,0,1,2,.66,1.37,1.37,0,0,1,.15.81v0a151.07,151.07,0,0,1-3.27,17.31c-1.25,5.55-2.79,10.83-4.25,16.11-3.1,10.44-6.49,20.51-10.18,30.34-1.86,4.91-3.74,9.79-5.74,14.59s-3.95,9.64-6.13,14.35a39.49,39.49,0,0,1-10.27,12.69,51.33,51.33,0,0,1-8.06,5.39A56.34,56.34,0,0,1,126,576.92l-.08,0A2.22,2.22,0,0,1,123.52,576.15Z"/><g class="cls-37"><path class="cls-3" d="M104.94,542.42c0-.23-.11-.45-.16-.68a42.36,42.36,0,0,1-2.3,7.63,35.86,35.86,0,0,1-5.35,9.09,1.53,1.53,0,0,1-1.88.4l0,0a44.5,44.5,0,0,1-8.64-5.76,49,49,0,0,1-6.1-6.15,41.73,41.73,0,0,1-7.31-13.28c-2.81-9.36-5.4-18.73-7.94-28.09l-7.57-28.14c-2.25-8-4.54-16-7.59-24.41-.55-.27-1.1-.53-1.66-.77a1.13,1.13,0,0,0-.85,0,1.19,1.19,0,0,0-.76,1.51v0a335.29,335.29,0,0,1,8.62,32.92l6.79,32c2.29,10.66,4.64,21.33,7.23,32A46.85,46.85,0,0,0,76.85,566a53.55,53.55,0,0,0,6.47,7.27,50,50,0,0,0,9.34,7l0,0a1.71,1.71,0,0,0,2.13-.33,40.2,40.2,0,0,0,6.55-9.88,46.48,46.48,0,0,0,3.32-9.53A44,44,0,0,0,104.94,542.42Z"/></g><g class="cls-30"><path class="cls-3" d="M124.38,568.3a172.28,172.28,0,0,1,8.34-23.79c1.57-3.9,3.4-7.66,5.14-11.48s3.74-7.5,5.67-11.22q5.88-11.11,12.81-21.63A177.75,177.75,0,0,1,171.45,480c-3.23,7.82-6.95,15.29-10.66,22.75s-7.53,14.84-11.46,22.16-7.88,14.64-12,21.87S129,561.22,124.38,568.3Z"/></g><g class="cls-37"><path class="cls-3" d="M184.66,460.36c-.36,1.32-.72,2.63-1.07,3.95-1.44,5.3-3.15,10.33-4.78,15.37-3.42,9.95-7.11,19.53-11.09,28.87-2,4.66-4,9.29-6.15,13.85s-4.21,9.13-6.51,13.59a38.07,38.07,0,0,1-10.45,11.82,49.49,49.49,0,0,1-8,4.87,54.55,54.55,0,0,1-10.94,4l-.08,0a2.18,2.18,0,0,1-2.3-.86,39.3,39.3,0,0,1-5.21-10.69,43.89,43.89,0,0,1-1.36-5.55,38.85,38.85,0,0,0-1.47,15.84,44,44,0,0,0,2.38,9.9,40.48,40.48,0,0,0,5.88,10.82,2.22,2.22,0,0,0,2.41.79l.08,0a56.34,56.34,0,0,0,11.13-4.62,51.33,51.33,0,0,0,8.06-5.39,39.49,39.49,0,0,0,10.27-12.69c2.18-4.71,4.17-9.51,6.13-14.35s3.88-9.68,5.74-14.59c3.69-9.83,7.08-19.9,10.18-30.34,1.46-5.28,3-10.56,4.25-16.11A151.07,151.07,0,0,0,185,461.52v0a1.37,1.37,0,0,0-.15-.81A1.4,1.4,0,0,0,184.66,460.36Z"/></g><path class="cls-6" d="M137.14,573.9a1.52,1.52,0,0,1-.51-.09,1.59,1.59,0,0,1-1-2c.52-1.53,13.1-37.55,35.07-49,8.76-4.58,14-3.33,16.82-1.48,3.33,2.19,5.12,6.34,4.78,11.13s-2.93,9.18-6.58,10.9a10.22,10.22,0,0,1-8.65.46c-5-2.17-7.06-8.27-7.14-8.53a1.59,1.59,0,1,1,3-1s1.7,5,5.39,6.6a7.08,7.08,0,0,0,6-.43c2.63-1.23,4.49-4.46,4.76-8.24.26-3.61-1-6.69-3.35-8.23-3-2-7.75-1.43-13.59,1.63-20.86,10.92-33.42,46.9-33.54,47.26A1.6,1.6,0,0,1,137.14,573.9Z"/><path class="cls-6" d="M84,569.72a1.6,1.6,0,0,1-1.49-1C82.37,568.24,64.88,523,46,513c-4.12-2.18-7.71-2.05-10.39.4-3.66,3.35-4.69,10.31-2.35,15.85,1.54,3.65,5.81,9.69,17.07,9a1.61,1.61,0,0,1,1.68,1.5,1.59,1.59,0,0,1-1.5,1.68c-9.67.56-17-3.44-20.19-11-2.87-6.81-1.52-15.17,3.14-19.44,2.15-2,6.83-4.68,14-.86,20,10.59,37.31,55.49,38,57.39a1.6,1.6,0,0,1-.92,2.06A1.63,1.63,0,0,1,84,569.72Z"/><polygon class="cls-5" points="143.1 633.49 76.52 633.49 61.22 572.04 158.4 572.04 143.1 633.49"/><g class="cls-38"><path class="cls-3" d="M115.07,622.19A34.12,34.12,0,0,1,82,596.32l-6-24.28H61.21l15.31,61.45H143.1l2.82-11.3Z"/></g><path class="cls-5" d="M59.09,563.47H160.53a4.75,4.75,0,0,1,4.75,4.75v7.63a4.75,4.75,0,0,1-4.75,4.75H59.09a4.75,4.75,0,0,1-4.75-4.75v-7.63A4.76,4.76,0,0,1,59.09,563.47Z"/><g class="cls-38"><path class="cls-3" d="M71,576.12a4.76,4.76,0,0,1-4.75-4.76v-7.63a2.3,2.3,0,0,1,0-.26H59.09a4.76,4.76,0,0,0-4.76,4.75v7.63a4.76,4.76,0,0,0,4.76,4.76H160.53a4.74,4.74,0,0,0,4.73-4.49Z"/></g><path class="cls-3" d="M540.69,540c-3,1-7.34,1.16-10.6,1.08a2.38,2.38,0,0,1-2.31-2.11c-.16-1.35-.39-3.08-.68-5.09a2.23,2.23,0,0,1,2.21-2.55,30.46,30.46,0,0,1,5.68.45c8.42,1.5,16.51-1.65,17.09-5.22s-2.68-6.48-12.07-2.85a28.46,28.46,0,0,1-12.5,1.74,2.19,2.19,0,0,1-2-1.85c-.21-1.29-.42-2.6-.64-3.93a1.7,1.7,0,0,1,1.22-1.93c2.93-.79,6.58-1.55,9-1.25,4.66.57,15.18.66,15.18-5.68s-10.44-5.24-13.49-2.95a32.64,32.64,0,0,1-11.5,4.47A1.69,1.69,0,0,1,523.4,511c-.24-1.33-.47-2.65-.72-4l-.51-2.72a7.78,7.78,0,0,1-.4-2.3c.37-2.12,4.15-2,5.64-1.91,1.94.06,3.77.87,5.7,1a17.62,17.62,0,0,0,4.81-.26c2.63-.51,6.05-1.95,5.75-5.18-.54-5.59-9.14-5.83-15.4-2.8a20.33,20.33,0,0,1-4.45,1.56,3.72,3.72,0,0,1-4.38-2.67c-.09-.34-.18-.66-.26-.95-.31-.79-.59-1.57-.85-2.32a3.66,3.66,0,0,1,3.45-4.86,10.08,10.08,0,0,1,2.84.44c5.79,1.82,9.89,1.08,11.41-1.43,1.23-5.64-6.21-6.75-13.18-5.78a12.78,12.78,0,0,1-4,0,3.67,3.67,0,0,1-3-3.9c.53-7.45,4-10.35,4-10.35,3.19-3.23,8-4.75,13-5.25a3.71,3.71,0,0,1,3.61,1.89,10.83,10.83,0,0,1,1.47,4.9c.18,5.44.84,8.55,4.42,7.59,2.39-.65,1.92-4.54,1.67-6.31a32,32,0,0,0-1.19-5.12c-.47-1.48-.31-2.84,1.64-2.51,1.45.24,2.88.56,4.31.93a3.7,3.7,0,0,1,2.78,3.32,15.35,15.35,0,0,1-1.19,7.53c-2.7,5.57-3.43,13.73,1.29,14.29s5-7.47,4-13.46a20.07,20.07,0,0,1,0-4.24,3.73,3.73,0,0,1,5.2-3.1c2.75,1.22,5.45,2.54,8.15,3.89a5.16,5.16,0,0,1,2.84,4.88c-.21,3.61-1.12,7.52-3.58,10.48-6.08,7.31-4.71,16.45.95,16.39s7.74-7.94,7.56-15.39a15.26,15.26,0,0,1,1-4.24,5.22,5.22,0,0,1,7.77-2.46c.94.63,1.86,1.27,2.78,1.92a4.36,4.36,0,0,1,1.67,4.6c-.18.71-.38,1.42-.61,2.12-2.18,6.71-8.64,10.44-11.54,16.62-1.9,4.05-1.22,10.67,4.55,10a7.83,7.83,0,0,0,4.33-2c4.6-4.15,4-10.93,6.88-16.06.13-.24.89-1.38,1.85-2.8a4.39,4.39,0,0,1,6.75-.67l0,0a67.59,67.59,0,0,1,4.14,5.35,5.06,5.06,0,0,1,.24,5.43c-2.31,4-5.84,8.29-11,10.12-11.19,4-15.23,10-12.23,15s12.07,1.32,17.47-5.81a29.28,29.28,0,0,1,8.66-7.13,3.88,3.88,0,0,1,5.76,2.57,46.23,46.23,0,0,1,.91,9.05,6,6,0,0,1-3.5,5.42c-4.78,2.28-9.74,2-14.85,2.58-3.22.37-6.49,1.77-7.34,5.19-1.17,4.71,3.79,9.22,16.32,2.92a14.27,14.27,0,0,1,2.39-1.1,2.46,2.46,0,0,1,3.1,3.31,48.38,48.38,0,0,1-18.58,21.32c-20.24,10.8-35.18,9.1-45.67,3a1.33,1.33,0,0,1,.23-2.39,14.67,14.67,0,0,1,3.28-.84c8-1.61,18.79-5.62,17.1-11.21s-9.76-4.32-16.13,1.25c-3.45,3-8.45,4.56-12.33,5.35a2.44,2.44,0,0,1-2.36-.79,49,49,0,0,1-5.07-7.11,2.45,2.45,0,0,1,1.72-3.67,51.19,51.19,0,0,1,10.18-.63c8.57.43,12.13-3.09,11.1-7.2C553.39,533.84,546.16,538.16,540.69,540Z"/><path class="cls-4" d="M522.94,464.17c-.39.93,1.75,1.85,2.35,2.25,2.61,1.77,5.07,3.75,7.49,5.77a103.86,103.86,0,0,1,13.12,13.57l1.51,1.83,1.4,1.89c.93,1.28,1.9,2.52,2.79,3.82,1.71,2.64,3.53,5.22,5,8,.78,1.36,1.61,2.7,2.35,4.09l2.13,4.18,1.07,2.09c.3.65.55,1.36.84,2.11l1.68,4.48c4.53,12,9.78,23.8,16.66,34.82,1.72,2.76,3.55,5.45,5.53,8.06a81.06,81.06,0,0,0,6.35,7.55,54.71,54.71,0,0,0,16.1,12,3.1,3.1,0,0,0,2.67-5.6l-.08,0-.06,0a48.74,48.74,0,0,1-14.63-10.31,74.76,74.76,0,0,1-6.17-6.87c-1.94-2.41-3.78-4.93-5.51-7.53-7-10.4-12.48-21.81-17.32-33.51l-1.82-4.41c-.31-.73-.61-1.51-1-2.29L564.27,508l-2.35-4.25c-.8-1.41-1.69-2.75-2.54-4.12-1.64-2.78-3.58-5.36-5.42-8-1-1.31-2-2.55-3-3.82l-1.5-1.89-1.59-1.82a106.45,106.45,0,0,0-13.83-13.44c-2.54-2-5.11-3.92-7.83-5.64-.69-.45-2.23-1.91-3.07-1.15A.83.83,0,0,0,522.94,464.17Z"/><path class="cls-4" d="M657.52,531.29c3,.18,7-.75,10-1.63a2.27,2.27,0,0,0,1.59-2.51c-.19-1.27-.41-2.91-.64-4.82a2.12,2.12,0,0,0-2.65-1.79,29.82,29.82,0,0,0-5.09,1.81c-7.33,3.46-15.52,2.57-16.93-.56s.85-6.58,10.34-5.58A27,27,0,0,0,666,514.72a2.08,2.08,0,0,0,1.36-2.19q-.2-1.84-.39-3.75a1.61,1.61,0,0,0-1.59-1.46c-2.88,0-6.41.2-8.57,1.07-4.13,1.68-13.73,4.36-15.3-1.45s8.27-7.37,11.62-6a30.71,30.71,0,0,0,11.63,1.26,1.61,1.61,0,0,0,1.43-1.74c-.11-1.26-.22-2.53-.32-3.8-.07-.88-.14-1.75-.2-2.62a7.38,7.38,0,0,0-.21-2.21c-.86-1.84-4.28-.75-5.63-.34-1.76.53-3.24,1.72-5,2.33a17.22,17.22,0,0,1-4.48.95c-2.52.18-6-.29-6.53-3.32-.89-5.25,6.92-7.59,13.4-6.37a19.23,19.23,0,0,0,4.46.33,3.53,3.53,0,0,0,3.35-3.52c0-.33,0-.65,0-.94.08-.8.15-1.58.2-2.33a3.47,3.47,0,0,0-4.36-3.6,10.1,10.1,0,0,0-2.49,1.1c-4.86,3.1-8.79,3.44-10.8,1.51-2.51-4.86,4-7.7,10.64-8.54a12.29,12.29,0,0,0,3.68-1,3.5,3.5,0,0,0,1.78-4.32c-2.32-6.68-6.25-8.47-6.25-8.47-3.71-2.17-8.5-2.37-13.16-1.6a3.53,3.53,0,0,0-2.85,2.61,10.26,10.26,0,0,0-.12,4.85c1.17,5,1.34,8-2.18,8-2.35,0-2.87-3.68-3.09-5.36a30.68,30.68,0,0,1-.17-5c.07-1.48-.42-2.68-2.12-1.9-1.27.59-2.5,1.23-3.71,1.92a3.51,3.51,0,0,0-1.73,3.73,14.48,14.48,0,0,0,2.95,6.59c3.85,4.44,6.53,11.73,2.34,13.4s-6.45-5.59-7-11.34a19,19,0,0,0-1.07-3.87,3.54,3.54,0,0,0-5.53-1.55c-2.21,1.79-4.36,3.66-6.49,5.56a4.91,4.91,0,0,0-1.4,5.18c1.09,3.25,2.89,6.6,5.86,8.7,7.37,5.2,8.38,13.9,3.19,15.24s-9.05-5.35-10.72-12.22a14.67,14.67,0,0,0-2-3.62,5,5,0,0,0-7.73-.34c-.7.81-1.38,1.62-2.06,2.45a4.12,4.12,0,0,0-.4,4.62c.34.61.7,1.21,1.08,1.79,3.65,5.61,10.49,7.43,14.67,12.37,2.74,3.24,3.75,9.46-1.69,10.3a7.43,7.43,0,0,1-4.46-.78c-5.24-2.66-6.39-9-10.26-13-.18-.19-1.16-1-2.38-2.11a4.16,4.16,0,0,0-6.35,1.06l0,0q-1.42,3-2.47,5.92a4.81,4.81,0,0,0,1.12,5c3.11,3.13,7.4,6.15,12.57,6.55,11.22.87,16.42,5.4,14.91,10.76s-10.72,4.18-17.42-1a27.68,27.68,0,0,0-9.69-4.39,3.68,3.68,0,0,0-4.64,3.78,43.58,43.58,0,0,0,1.4,8.51,5.74,5.74,0,0,0,4.54,4.09c4.94.91,9.42-.57,14.23-1.3,3-.46,6.38,0,8,2.94,2.24,4-1.19,9.38-14.22,6.7a13.1,13.1,0,0,0-2.45-.41,2.33,2.33,0,0,0-2,3.78A45.86,45.86,0,0,0,615,566.91c21.19,4.88,34.44-.36,42.53-8.57a1.26,1.26,0,0,0-.79-2.13,13.77,13.77,0,0,0-3.22,0c-7.7.5-18.59-.51-18.42-6s7.87-6.36,15.07-2.84c3.9,1.9,8.87,2.09,12.61,1.86a2.36,2.36,0,0,0,2-1.31,46.41,46.41,0,0,0,2.88-7.76,2.32,2.32,0,0,0-2.47-2.94,49.89,49.89,0,0,0-9.49,1.94c-7.73,2.51-11.86.17-11.93-3.85C644.37,528.77,652.05,531,657.52,531.29Z"/><path class="cls-3" d="M655,457.48c.58.76-1.15,2.13-1.6,2.65-2,2.26-3.71,4.68-5.43,7.12a99.3,99.3,0,0,0-8.66,15.67l-.93,2L637.6,487c-.53,1.4-1.11,2.77-1.6,4.18-.92,2.85-1.94,5.65-2.65,8.55-.38,1.45-.81,2.88-1.15,4.33l-.92,4.35-.46,2.18c-.11.67-.17,1.38-.25,2.14l-.43,4.51a186.27,186.27,0,0,1-6.65,36q-1.34,4.43-3.07,8.75a76.52,76.52,0,0,1-4,8.47,51.64,51.64,0,0,1-11.76,15,2.94,2.94,0,0,1-3.82-4.46l.06,0,0,0a46.39,46.39,0,0,0,10.84-13.05,69.81,69.81,0,0,0,3.95-7.82q1.79-4,3.19-8.25a182.56,182.56,0,0,0,7.58-35l.58-4.49c.1-.74.19-1.54.35-2.34l.54-2.25,1.1-4.47c.39-1.48.87-2.93,1.31-4.4.82-2.94,2-5.79,3-8.66.55-1.43,1.19-2.82,1.78-4.23l.91-2.1,1-2.06a101.27,101.27,0,0,1,9.34-15.72,89.34,89.34,0,0,1,5.78-7.09c.52-.58,1.57-2.3,2.51-1.81A.67.67,0,0,1,655,457.48Z"/><polygon class="cls-5" points="628.06 633.63 567.29 633.63 553.33 577.55 642.02 577.55 628.06 633.63"/><g class="cls-38"><path class="cls-3" d="M602.48,623.32a31.13,31.13,0,0,1-30.21-23.62l-5.52-22.15H553.33l14,56.08h60.77l2.57-10.31Z"/></g><rect class="cls-5" x="547.05" y="569.73" width="101.26" height="15.65" rx="4.34" ry="4.34"/><g class="cls-38"><path class="cls-3" d="M562.24,581.27a4.34,4.34,0,0,1-4.34-4.34v-7c0-.09,0-.16,0-.24h-6.53a4.34,4.34,0,0,0-4.34,4.34v7a4.34,4.34,0,0,0,4.34,4.34H644a4.32,4.32,0,0,0,4.31-4.1Z"/></g><polygon class="cls-39" points="463.74 167.74 406.78 167.74 349.82 167.74 237.73 379.54 406.78 379.54 575.83 379.54 463.74 167.74"/><path class="cls-9" d="M456.62,517.82l-4.88,128.66a2.38,2.38,0,0,1-4.75,0l-4.87-128.66a7.26,7.26,0,0,1,14.5-.55Z"/><path class="cls-26" d="M451.47,510.64a6.45,6.45,0,0,0-5.26.48,8.16,8.16,0,0,0-4.06,7.53L447,646.48a2.38,2.38,0,0,0,2.19,2.26l.08-98.86a7.55,7.55,0,0,1,6.42-7.47l.91-23.94C454.86,515.76,453.1,513.06,451.47,510.64Z"/><path class="cls-9" d="M492.35,508.69l39.84,130.25a2.37,2.37,0,0,1-4.48,1.55L478.65,513.43a7.25,7.25,0,1,1,13.53-5.23C492.24,508.36,492.3,508.53,492.35,508.69Z"/><path class="cls-9" d="M420.09,513.43,371,640.49a2.38,2.38,0,0,1-4.49-1.55l39.84-130.25a7.26,7.26,0,0,1,13.88,4.24C420.21,513.1,420.15,513.27,420.09,513.43Z"/><path class="cls-26" d="M415.07,503.77a7.55,7.55,0,0,0-8.81,5.31l-8.13,26.61.09,0a7.2,7.2,0,0,1,4.1,9l-34,97.15a2.36,2.36,0,0,0,2.69-1.43l49.06-127.06c.06-.16.12-.33.17-.5A7.26,7.26,0,0,0,415.07,503.77Z"/><path class="cls-26" d="M483.67,503.77a7.53,7.53,0,0,1,8.8,5.31l8.14,26.61-.1,0a7.2,7.2,0,0,0-4.1,9l34,97.15a2.34,2.34,0,0,1-2.68-1.43L478.65,513.43c-.06-.16-.12-.33-.17-.5A7.25,7.25,0,0,1,483.67,503.77Z"/><path class="cls-8" d="M451.17,535.44c-33.14.89-57.9-6.33-59.45-6.79a5.93,5.93,0,0,1,3.4-11.37c.53.16,54.42,15.79,108-2.91a5.93,5.93,0,1,1,3.91,11.2A185,185,0,0,1,451.17,535.44Z"/><path class="cls-8" d="M375.2,499.93s-.11-13.13,27.85-13.11c14.84-1,33-6,42.24-14.78s63.46,4.18,40.75,22S391.38,516.42,375.2,499.93Z"/><path class="cls-26" d="M383.05,502.33a2.13,2.13,0,0,1-.61-.08,2.36,2.36,0,0,1-1.68-2.9L386,479.52c3-11.47,13-19.48,24.09-19.48h46.51a2.37,2.37,0,0,1,0,4.74H410.11c-9,0-17,6.56-19.51,16l-5.26,19.84A2.37,2.37,0,0,1,383.05,502.33Z"/><path class="cls-4" d="M533.57,379.65s-59.22-17.93-75.34,58.27c-7.78,36.76-35.15,66.06-75.13,57.47-10.83-2.33-16.06,7.39-16.06,17,.23,8.82,75.54,13.17,83.36,13.53,34.76,1.57,76.92-6.67,81.15-48.12,2-19.18-4.95-38.85.24-57.77C534.83,409,550.22,387,533.57,379.65Z"/><g class="cls-23"><path class="cls-3" d="M397.86,505.29c40.42,6.15,66-24.76,71.5-61.92,9-60.37,47.89-64.65,64.31-63.67l-.1-.05s-59.22-17.93-75.34,58.27c-7.78,36.76-35.15,66.06-75.13,57.47-10.83-2.33-16.06,7.39-16.06,17,.06,2.58,6.57,4.78,15.92,6.6C383.79,511,388.52,503.87,397.86,505.29Z"/></g></g></g></g></svg>