<svg xmlns="http://www.w3.org/2000/svg" viewBox="0 0 174.75 270.95"><defs><style>.hls-1{fill:#bababa;}.hls-2{fill:#8e8e8e;}.hls-3{fill:#393963;}.hls-4{fill:#837db2;}.hls-5{opacity:0.7;}.hls-6{fill:#444172;}</style></defs><title>Chair</title><g id="Layer_2" data-name="Layer 2"><g id="Layer_1-2" data-name="Layer 1"><path class="hls-1" d="M90.18,140,85.3,268.67a2.38,2.38,0,0,1-4.75,0L75.68,140a7.26,7.26,0,0,1,14.5-.55Z"/><path class="hls-2" d="M85,132.82a6.49,6.49,0,0,0-5.26.49,8.16,8.16,0,0,0-4.06,7.53l4.84,127.83a2.38,2.38,0,0,0,2.19,2.26l.07-98.86a7.57,7.57,0,0,1,6.43-7.47l.91-23.94C88.42,138,86.66,135.25,85,132.82Z"/><path class="hls-1" d="M125.91,130.88l39.84,130.25a2.38,2.38,0,0,1-4.49,1.55L112.2,135.61a7.26,7.26,0,0,1,13.54-5.22C125.8,130.55,125.86,130.72,125.91,130.88Z"/><path class="hls-1" d="M53.65,135.61,4.59,262.68A2.38,2.38,0,0,1,.1,261.13L39.94,130.88a7.26,7.26,0,0,1,13.88,4.24C53.77,135.28,53.71,135.46,53.65,135.61Z"/><path class="hls-2" d="M48.63,126a7.54,7.54,0,0,0-8.81,5.31l-8.13,26.6.09,0a7.2,7.2,0,0,1,4.1,9.05L1.9,264.1a2.34,2.34,0,0,0,2.69-1.42L53.65,135.61c.06-.15.12-.33.17-.49A7.25,7.25,0,0,0,48.63,126Z"/><path class="hls-2" d="M117.23,126a7.53,7.53,0,0,1,8.8,5.31l8.14,26.6-.1,0A7.2,7.2,0,0,0,130,167l34,97.14a2.34,2.34,0,0,1-2.69-1.42L112.2,135.61c0-.15-.12-.33-.17-.49A7.26,7.26,0,0,1,117.23,126Z"/><path class="hls-3" d="M84.73,157.63c-33.14.89-57.9-6.33-59.45-6.79a5.93,5.93,0,0,1,3.39-11.37c.54.16,54.43,15.79,108-2.91a5.93,5.93,0,1,1,3.91,11.2A185,185,0,0,1,84.73,157.63Z"/><path class="hls-3" d="M8.76,122.12S8.65,109,36.61,109c14.84-1,33-6,42.24-14.77s63.46,4.18,40.74,22S24.94,138.61,8.76,122.12Z"/><path class="hls-2" d="M16.61,124.52a2.13,2.13,0,0,1-.61-.08,2.37,2.37,0,0,1-1.69-2.9l5.27-19.83c3-11.47,13-19.48,24.09-19.48H90.18a2.37,2.37,0,0,1,0,4.74H43.67c-9,0-17,6.56-19.51,16L18.9,122.76A2.37,2.37,0,0,1,16.61,124.52Z"/><path class="hls-4" d="M167.13,1.84S107.91-16.09,91.79,60.11C84,96.87,56.64,126.17,16.66,117.58,5.83,115.25.59,125,.59,134.62c.24,8.82,75.55,13.17,83.37,13.53,34.76,1.57,76.92-6.67,81.15-48.12,1.95-19.18-5-38.85.24-57.77C168.39,31.18,183.78,9.19,167.13,1.84Z"/><g class="hls-5"><path class="hls-6" d="M31.42,127.48c40.42,6.15,66-24.76,71.5-61.92,9-60.37,47.89-64.65,64.31-63.67l-.1,0S107.91-16.09,91.79,60.11C84,96.87,56.64,126.17,16.66,117.58,5.83,115.25.59,125,.59,134.62c.07,2.58,6.58,4.77,15.93,6.6C17.35,133.14,22.08,126.06,31.42,127.48Z"/></g></g></g></svg>