<svg xmlns="http://www.w3.org/2000/svg" viewBox="0 0 439.48 229.27"><defs><style>.cls-1{fill:#bababa;}.cls-2,.cls-5{fill:#a5a5a5;}.cls-2{opacity:0.5;}.cls-3{fill:#fefefe;}.cls-4{fill:#8e8e8e;}.cls-6{fill:#d0d2d3;}.cls-7{fill:#afafaf;}</style></defs><title>Desk</title><g id="Layer_2" data-name="Layer 2"><g id="Layer_1-2" data-name="Layer 1"><polygon class="cls-1" points="100.01 229.26 88.79 229.26 106.64 72.17 127.62 72.17 100.01 229.26"/><polygon class="cls-1" points="27.53 229.26 16.31 229.26 34.16 72.17 55.14 72.17 27.53 229.26"/><polygon class="cls-1" points="333.21 229.26 344.44 229.26 326.58 72.17 305.6 72.17 333.21 229.26"/><polygon class="cls-1" points="405.69 229.26 416.92 229.26 399.06 72.17 378.08 72.17 405.69 229.26"/><path class="cls-1" d="M337.69,72.17H36.09A36.09,36.09,0,1,1,36.09,0h301.6a36.09,36.09,0,1,1,0,72.17Z"/><path class="cls-2" d="M349.07,66H47.47A36.06,36.06,0,0,1,25,1.78,36.07,36.07,0,0,0,36.09,72.17h301.6a35.92,35.92,0,0,0,22.52-7.93A36,36,0,0,1,349.07,66Z"/><path class="cls-3" d="M403.4,72.17H101.79a36.09,36.09,0,0,1,0-72.17H403.4a36.09,36.09,0,0,1,0,72.17Z"/><polygon class="cls-4" points="106.64 72.17 88.79 229.26 93.47 229.26 114.81 80.21 126.74 77.18 127.62 72.17 106.64 72.17"/><polygon class="cls-4" points="34.16 72.17 16.31 229.26 20.98 229.26 42.33 80.21 54.26 77.18 55.14 72.17 34.16 72.17"/><polygon class="cls-4" points="305.6 72.17 333.21 229.26 338.03 229.26 317.53 79.91 326.58 72.17 305.6 72.17"/><polygon class="cls-4" points="378.08 72.17 405.69 229.26 410.51 229.26 390.01 79.91 399.06 72.17 378.08 72.17"/><path class="cls-5" d="M73,0c-2.79,2.55-5.37,5.35-7.88,8.13-7.69,8.55-15,16.6-27.58,15.83a5.53,5.53,0,0,1-4.32-2.07,4.22,4.22,0,0,1-.31-3.78c2.18-6.69,8.33-10.92,14.84-15.4C49.07,1.82,50.37.92,51.65,0H48.11L46.62,1C40.11,5.5,33.39,10.13,31,17.47A6.14,6.14,0,0,0,31.56,23a7.51,7.51,0,0,0,5.89,3c.61,0,1.21.05,1.81.05,12.5,0,20.08-8.4,27.41-16.55A97,97,0,0,1,76.08,0Z"/><path class="cls-5" d="M19.52,60.85c4.58-3.51,10.36-11.13,8.85-17.07-.59-2.36-2.27-4-3.91-5.61a14.32,14.32,0,0,1-3.1-3.8c-2.9-6.2,2.69-16.68,5.74-22.39A105.57,105.57,0,0,1,34.58.08c-.89,0-1.77.08-2.64.18A107,107,0,0,0,25.25,11.1c-3.17,5.94-9.08,17-5.74,24.13A15.56,15.56,0,0,0,23,39.63c1.5,1.47,2.91,2.85,3.36,4.65C27.6,49.05,22.45,56,18.28,59.23a16,16,0,0,1-6.9,3.09c.6.56,1.2,1.13,1.84,1.66A18.24,18.24,0,0,0,19.52,60.85Z"/><path class="cls-5" d="M5.36,50.83A7.44,7.44,0,0,1,2.78,50c.39.93.83,1.82,1.29,2.7a7.9,7.9,0,0,0,1.06.2,7.65,7.65,0,0,0,.81,0,7.82,7.82,0,0,0,5.79-2.82,11.06,11.06,0,0,0,2.51-8.55,59.38,59.38,0,0,0-1.54-8.26c-1.16-4.9-2.26-9.54-.66-15.07A37.07,37.07,0,0,1,20.79,3.45a35.89,35.89,0,0,0-5,2.79,36.61,36.61,0,0,0-5.76,11.4c-1.74,6.05-.58,10.94.65,16.12a57.16,57.16,0,0,1,1.48,8,9,9,0,0,1-2,7A5.59,5.59,0,0,1,5.36,50.83Z"/><path class="cls-5" d="M62.32,45.74c-1.84-8.05-4.13-18.07-15.59-18.11h0a14,14,0,0,0-11,5.88,12.47,12.47,0,0,0-2.26,11.1,23.84,23.84,0,0,0,1.11,2.79,16.87,16.87,0,0,1,1.19,3.2c.49,2.2.12,4.68-1.16,7.83a33.63,33.63,0,0,1-8.73,12.24c.79.23,1.58.43,2.39.61a35.71,35.71,0,0,0,8.23-12.07c1.45-3.56,1.85-6.43,1.27-9.05a19.28,19.28,0,0,0-1.32-3.6,22.18,22.18,0,0,1-1-2.54,10.51,10.51,0,0,1,2-9.29,12.08,12.08,0,0,1,9.37-5h0c9.83,0,11.75,8.41,13.64,16.68,2.28,10,10,19.94,15.18,25.81h2.74C73.27,66.73,64.72,56.25,62.32,45.74Z"/><path class="cls-5" d="M58.41,58.08a72.14,72.14,0,0,0-4-13.65c-.62-1.45-4-8.7-7.76-8.86-1.42-.07-2.68.82-3.65,2.64a7.93,7.93,0,0,0-.49,4.66c1.28,12-1,20.72-8,29.22.53,0,1,.08,1.58.08H37c6.57-8.57,8.8-17.68,7.53-29.52a6.21,6.21,0,0,1,.26-3.48c.57-1.06,1.22-1.59,1.76-1.56,1.77.07,4.4,4,6,7.64a71.52,71.52,0,0,1,3.85,13.27c1.05,4.77,2.08,9.39,4.19,13.65h2.33C60.57,67.84,59.5,63,58.41,58.08Z"/><path class="cls-5" d="M54.66,69.87a31,31,0,0,1-.4-5c-.1-3.67-.22-7.85-2.34-10.39a2.81,2.81,0,0,0-3.34-.85c-1.76.89-1.55,3-1.42,4.24l0,.38c.41,5-2.91,9.62-6.47,13.91h2.64c3.4-4.25,6.3-8.85,5.86-14.08l0-.42c-.1-1-.15-2,.32-2.21.2-.11.6.06.84.34,1.66,2,1.77,5.8,1.87,9.14a32.94,32.94,0,0,0,.43,5.35c.14.66.34,1.25.51,1.88h2.11C55.06,71.41,54.82,70.68,54.66,69.87Z"/><path class="cls-5" d="M43,12a16,16,0,0,0-4.09,3.72,2.35,2.35,0,0,0-.31,2.49c.46.87,1.57,1.34,3.2,1.36h.08c2.18,0,4-1.24,5.65-2.33l.49-.33A96,96,0,0,0,58.82,8.19C60.05,7.08,61.3,6,62.56,4.88,64.49,3.23,66.47,1.62,68.44,0h-3.2c-1.34,1.11-2.69,2.2-4,3.33S58.7,5.55,57.45,6.66a93.7,93.7,0,0,1-10.57,8.57l-.51.33c-1.46,1-3,2-4.56,2a4,4,0,0,1-1.41-.23s0-.14.21-.47a14.66,14.66,0,0,1,3.57-3.18c.68-.49,1.32-1,1.84-1.4L60.5,0H57.33L44.7,10.7C44.21,11.12,43.61,11.56,43,12Z"/><path class="cls-1" d="M82.59,19.63c3.49-3.16,8-5.84,14-8.45l1-.42a29.56,29.56,0,0,0,7.42-4A11.25,11.25,0,0,0,109,0h-2.81a8.45,8.45,0,0,1-2.85,4.63,26.92,26.92,0,0,1-6.76,3.61l-1,.44c-6.37,2.72-11.07,5.56-14.79,8.93-4.92,4.46-7.8,9.84-9.07,17C70.93,38.8,69.94,42.8,67,45.35c.25.94.53,1.86.85,2.76,4.35-3,5.67-8.06,6.56-13.07A25.81,25.81,0,0,1,82.59,19.63Z"/><path class="cls-1" d="M101.74,70.38c-1.43-5.06-6.21-7.24-10.82-9.34-3.31-1.5-6.43-2.93-8.19-5.28-6.13-8.21,2.85-17,11.94-24.68,2.79-2.37,5.76-4.67,8.63-6.89,6.48-5,13.18-10.22,18.55-16.75A21.71,21.71,0,0,0,126.1,0h-2.83a20.82,20.82,0,0,1-3.52,5.71C114.57,12,108,17.1,101.63,22c-2.89,2.24-5.89,4.56-8.92,7.14-7.11,6-20.34,17.27-12.17,28.22,2.18,2.92,5.77,4.55,9.25,6.13,4.23,1.93,8.24,3.75,9.32,7.6a6.81,6.81,0,0,1,.11.92c.85.06,1.7.13,2.57.13H102A8.9,8.9,0,0,0,101.74,70.38Z"/><path class="cls-1" d="M241.66,69.22c-1.84-5.65-3.34-10.76-3.13-15.93.37-9.19,6.21-17.41,11.26-23.55A154.92,154.92,0,0,1,272.67,7.18L273,7c2.17-1.73,4.42-3.53,5.78-6.12.13-.26.25-.55.36-.83H276a20,20,0,0,1-4.78,4.82l-.29.23a157.49,157.49,0,0,0-23.29,23c-5.32,6.47-11.48,15.17-11.88,25.17-.22,5.63,1.35,11,3.26,16.88.23.7.47,1.41.71,2.11h2.89C242.31,71.18,242,70.19,241.66,69.22Z"/><path class="cls-1" d="M178.82,69.34c-1.29-5.69-2.34-10.83-2.19-16.07.26-9.28,4.34-17.55,7.87-23.72A140.18,140.18,0,0,1,200.4,7l.2-.23a18.88,18.88,0,0,0,4-6.12c.08-.21.14-.44.21-.66h-2.89a17.41,17.41,0,0,1-3.39,5l-.2.23a143.54,143.54,0,0,0-16.22,23c-3.68,6.44-7.95,15.11-8.22,25-.16,5.56.92,10.88,2.25,16.75.17.74.34,1.48.52,2.23h2.81C179.25,71.22,179,70.28,178.82,69.34Z"/><path class="cls-1" d="M147.67,72.17a61.89,61.89,0,0,0,.27-15.93,182.57,182.57,0,0,0-3.14-18.11c-1.68-8.06-3.42-16.4-3.52-24.69A40.71,40.71,0,0,1,143.4,0h-2.88a41.12,41.12,0,0,0-2,13.47c.09,8.56,1.86,17,3.57,25.21,1.21,5.84,2.47,11.87,3.1,17.84a59.59,59.59,0,0,1-.32,15.65Z"/><path class="cls-1" d="M267,67.16c-.67-13.25,4.59-26.38,13.73-34.27a75.73,75.73,0,0,1,6.69-5c3.57-2.44,7.25-5,10.17-8.36,3.32-3.86,5.38-8.48,7.36-12.95A23.11,23.11,0,0,0,306.85,0h-2.73a23,23,0,0,1-1.7,5.5c-1.91,4.29-3.88,8.73-6.94,12.28-2.68,3.12-6.06,5.44-9.64,7.89a78.63,78.63,0,0,0-6.93,5.15C269,39.38,263.51,53,264.23,67.29c.09,1.63.26,3.25.49,4.88h2.78A47.61,47.61,0,0,1,267,67.16Z"/><path class="cls-1" d="M206.06,34.79c2.92-9.26,8.22-18.29,17.29-29.36A28.16,28.16,0,0,0,227.11,0H224a36.29,36.29,0,0,1-2.85,3.81C211.94,15.06,206.49,24.36,203.46,34a60.53,60.53,0,0,0,1.08,38.19h2.92A57.88,57.88,0,0,1,206.06,34.79Z"/><path class="cls-1" d="M303.08,64.2l2.06-1.49a86.82,86.82,0,0,0,21.77-23.4c2.2-3.5,4.61-8.12,3.71-12.88-.74-3.94-3.5-7-6.18-10-3-3.31-5.75-6.43-5.17-10.18.33-2.12,1.76-4,3.1-5.52.22-.26.48-.47.71-.72h-3.65a12.69,12.69,0,0,0-2.85,5.82c-.79,5,2.58,8.79,5.83,12.42,2.43,2.7,4.93,5.5,5.53,8.7.73,3.82-1.4,7.84-3.34,10.92a84.12,84.12,0,0,1-21.08,22.66c-.66.49-1.35,1-2,1.47-4,2.86-8.11,5.84-10.56,10.18h3.22C296.4,69,299.77,66.57,303.08,64.2Z"/><path class="cls-1" d="M349.11,72.17c6.66-21,3-45.23-10.26-63C337.93,8,337,6.68,337,5.45a5.48,5.48,0,0,1,1.27-2.71c.67-1,1.39-1.86,2.14-2.74H337c-.29.39-.61.76-.89,1.15a7.85,7.85,0,0,0-1.77,4.18c-.1,2.2,1.25,4,2.38,5.53,12.85,17.26,16.32,41,9.54,61.31Z"/><path class="cls-1" d="M373.74,72.17h2.85c2-7.25,3-14.75,4-22.07,2-15.29,3.18-32.53-7.73-43.59-.51-.53-1.05-1-1.59-1.53A15.88,15.88,0,0,1,367.57.69a5.1,5.1,0,0,1-.24-.69h-2.86a8.47,8.47,0,0,0,.66,1.91A18.12,18.12,0,0,0,369.37,7c.51.48,1,1,1.51,1.45,10.05,10.19,8.87,26.68,7,41.33C376.88,57.21,375.87,64.87,373.74,72.17Z"/><path class="cls-1" d="M432.17,37.9l-.45,1a36.29,36.29,0,0,0-2.65,22.56c.8-.82,1.57-1.67,2.3-2.56A33.5,33.5,0,0,1,434.19,40l.44-.92a15.8,15.8,0,0,0,1.8-5.17c.38-3.53-1.44-7.3-5.12-10.63a71,71,0,0,0-6.17-4.79c-5.39-3.88-10.48-7.55-11.09-13.35a9,9,0,0,1,.34-3.42c-.86-.28-1.75-.5-2.64-.71a11.9,11.9,0,0,0-.41,4.41c.74,7,6.57,11.22,12.2,15.28a68.21,68.21,0,0,1,5.94,4.6c1.75,1.58,4.62,4.76,4.24,8.31A13.46,13.46,0,0,1,432.17,37.9Z"/><path class="cls-1" d="M406.93,72a42.87,42.87,0,0,0,.23-4.42c0-11.2-3.8-21.83-7.12-29.83-.64-1.55-1.3-3.09-2-4.64-2.82-6.55-5.73-13.34-6.83-20.38A31.78,31.78,0,0,1,391.72,0h-2.79a35,35,0,0,0-.39,13.14c1.15,7.39,4.14,14.33,7,21,.66,1.53,1.32,3.07,1.95,4.6,3.22,7.77,6.92,18.07,6.91,28.79a42.63,42.63,0,0,1-.27,4.56C405.09,72.11,406,72.08,406.93,72Z"/><path class="cls-1" d="M166.5,72.17a22.75,22.75,0,0,0-.25-9.47,46.2,46.2,0,0,0-3.7-9.09c-.87-1.77-1.77-3.6-2.49-5.44a69.51,69.51,0,0,1-3.29-13.89c-.7-4.27-1.43-8.69-.78-13,1-6.34,5-12,8.49-17L167.55,0h-3.34l-2,2.78c-3.7,5.23-7.89,11.16-9,18.14-.71,4.69.05,9.32.79,13.8a71.1,71.1,0,0,0,3.44,14.45c.76,1.94,1.69,3.83,2.59,5.65a43,43,0,0,1,3.49,8.54,20.16,20.16,0,0,1,.16,8.81Z"/><path class="cls-6" d="M101.79,13.64a22.45,22.45,0,1,0,0,44.9H403.4a22.45,22.45,0,1,0,0-44.9Z"/><path class="cls-7" d="M403.4,13.64H101.79A22.44,22.44,0,0,0,82.4,24.83a22.3,22.3,0,0,1,5.76-.77h301.6a22.41,22.41,0,0,1,19.4,33.7,22.43,22.43,0,0,0-5.76-44.12Z"/></g></g></svg>