<svg xmlns="http://www.w3.org/2000/svg" viewBox="0 0 171.96 135.98"><defs><style>.ccls-1{isolation:isolate;}.ccls-2{fill:#393963;}.ccls-3{fill:#d0d2d3;}.ccls-4{fill:#929497;}.ccls-5,.ccls-6{fill:#bbbdbf;}.ccls-10,.ccls-6{opacity:0.5;}.ccls-6{mix-blend-mode:multiply;}.ccls-7{fill:#444172;}.ccls-8{fill:#fefefe;}.ccls-9{fill:#bcbec0;}.ccls-10{fill:#fff;mix-blend-mode:soft-light;}</style></defs><title>Computer</title><g class="ccls-1"><g id="Layer_2" data-name="Layer 2"><g id="Layer_1-2" data-name="Layer 1"><path class="ccls-2" d="M160.14,0H5.13A5.13,5.13,0,0,0,0,5.13V89.47H165.27V5.13A5.13,5.13,0,0,0,160.14,0Z"/><path class="ccls-3" d="M0,89.47v16.89a7.18,7.18,0,0,0,7.17,7.18H158.1a7.18,7.18,0,0,0,7.17-7.18V89.47Z"/><polygon class="ccls-4" points="97.16 132.93 59.45 132.93 68.06 113.54 104.77 113.54 97.16 132.93"/><polygon class="ccls-5" points="100.29 132.93 62.59 132.93 71.2 113.54 107.91 113.54 100.29 132.93"/><path class="ccls-6" d="M71.78,125.57a13.26,13.26,0,0,1,12.11-7.87h22.38l1.64-4.16H71.2l-8.61,19.39h5.93Z"/><path class="ccls-7" d="M166.83,0h-155A5.13,5.13,0,0,0,6.69,5.13V89.47H172V5.13A5.13,5.13,0,0,0,166.83,0Z"/><path class="ccls-3" d="M13.18,89.47V6.64a.58.58,0,0,1,.57-.58H164.9a.57.57,0,0,1,.57.58V89.47Z"/><path class="ccls-8" d="M6.69,89.47v16.89a7.18,7.18,0,0,0,7.17,7.18H164.79a7.18,7.18,0,0,0,7.17-7.18V89.47Z"/><path class="ccls-9" d="M96,101.5a6.69,6.69,0,1,1-6.69-6.69A6.69,6.69,0,0,1,96,101.5Z"/><rect class="ccls-3" x="59.45" y="132.93" width="54.22" height="3.06"/><rect class="ccls-8" x="73.25" y="132.93" width="54.22" height="3.06"/><path class="ccls-8" d="M141.93,127.4h0a8.25,8.25,0,0,0-8.26,8.25V136h16.51v-.33A8.25,8.25,0,0,0,141.93,127.4Z"/><polygon class="ccls-10" points="13.18 64.44 13.18 83.73 90.85 6.07 71.55 6.07 13.18 64.44"/><polygon class="ccls-10" points="43.93 89.47 76.1 89.47 159.5 6.07 127.34 6.07 43.93 89.47"/></g></g></g></svg>