<svg xmlns="http://www.w3.org/2000/svg" viewBox="0 0 28.12 33.07"><defs><style>.cls-1{isolation:isolate;}.cls-2{fill:#837db2;}.cls-3{opacity:0.7;}.cls-4{fill:#393963;}.cls-5{opacity:0.3;}.cls-6{fill:#444172;}.cls-7{fill:#fff;opacity:0.5;mix-blend-mode:soft-light;}</style></defs><title></title><g class="cls-1"><g id="Layer_2" data-name="Layer 2"><g id="Layer_1-2" data-name="Layer 1"><path class="cls-2" d="M13.6,12.52a10.52,10.52,0,0,1,.94-7.11,12.43,12.43,0,0,1,2.19-2.95A16.54,16.54,0,0,1,19.61.19a1.16,1.16,0,1,1,1.27,1.94l-.1.06-.05-.89c-.94.49-1.86,1.94-2.66,2.61A9.91,9.91,0,0,0,16,6.23a9.27,9.27,0,0,0-1.25,2.9,8.67,8.67,0,0,0-.19,3.16v.06a.47.47,0,0,1-.93.17Z"/><g class="cls-3"><path class="cls-4" d="M20.73,2.22l.05,0,.1-.06a1.17,1.17,0,0,0,.34-1.6,5,5,0,0,1-1.91,1.71c-1.75,1-4.71,3.82-5,6.3,0,.6-.47.61-.9.47a10.14,10.14,0,0,0,.17,3.51.47.47,0,0,0,.93-.17v-.06a8.67,8.67,0,0,1,.19-3.16A9.27,9.27,0,0,1,16,6.23a9.91,9.91,0,0,1,2.11-2.32A14.63,14.63,0,0,1,20.73,2.22Z"/></g><path class="cls-2" d="M24.05,7.51c-4.58-1.33-7.33.49-8.76,2a1.69,1.69,0,0,1-2.46,0C11.41,8,8.65,6.18,4.08,7.51-3.11,9.61.45,27,5.22,32.08a5,5,0,0,0,7-1.1c.59-.84,3-.84,3.61,0a5,5,0,0,0,7,1.1C27.68,27,31.23,9.61,24.05,7.51Z"/><g class="cls-5"><path class="cls-6" d="M25.74,8.5c0,.65.65,17.18-14.6,18.07a22.57,22.57,0,0,1-9.73-2,20.28,20.28,0,0,0,3.81,7.49,5,5,0,0,0,7-1.1c.59-.84,3-.84,3.61,0a5,5,0,0,0,7,1.1C27.24,27.45,30.54,12.74,25.74,8.5Z"/></g><path class="cls-7" d="M4.48,9.43c2-1.1,4.44-1.39,6,.32,1.77,1.94-3.72,5.9-6.79,6.14-2.4.19-2.93-2.56-1.82-4.19A7.51,7.51,0,0,1,4.48,9.43Z"/></g></g></g></svg>