<svg xmlns="http://www.w3.org/2000/svg" viewBox="0 0 275 359.54"><defs><style>.ols-1{fill:#444172;}.ols-2{fill:#837db2;}.ols-3{fill:#6c6399;}.ols-4,.ols-5{fill:#d0d2d3;}.ols-5{opacity:0.2;}.ols-6{fill:#393963;}</style></defs><title>Window</title><g id="Layer_2" data-name="Layer 2"><g id="Layer_1-2" data-name="Layer 1"><rect class="ols-1" width="275" height="359.54"/><rect class="ols-2" x="9.53" y="9.53" width="255.95" height="340.49"/><polygon class="ols-3" points="85.35 219.72 85.35 196.16 74.85 196.16 74.85 179.34 60.35 179.34 60.35 196.16 49.84 196.16 49.84 219.72 38.2 219.72 38.2 342.76 114.75 342.76 114.75 219.72 85.35 219.72"/><rect class="ols-4" x="94.37" y="234.42" width="11.95" height="16.18"/><rect class="ols-4" x="70.5" y="234.42" width="11.95" height="16.18"/><rect class="ols-4" x="94.37" y="265.87" width="11.95" height="16.18"/><rect class="ols-4" x="46.63" y="265.87" width="11.95" height="16.18"/><rect class="ols-4" x="94.37" y="297.31" width="11.95" height="16.18"/><rect class="ols-4" x="70.5" y="297.31" width="11.95" height="16.18"/><rect class="ols-4" x="46.63" y="297.31" width="11.95" height="16.18"/><path class="ols-3" d="M211.05,164.18c-41.35,0-53.17,28.25-53.17,28.25V350.21h96.89V124.61S252.4,164.18,211.05,164.18Z"/><rect class="ols-4" x="229.21" y="196.88" width="14.02" height="18.99"/><rect class="ols-4" x="199.31" y="196.88" width="14.03" height="18.99"/><rect class="ols-4" x="169.41" y="196.88" width="14.03" height="18.99"/><rect class="ols-4" x="199.31" y="237.41" width="14.03" height="18.99"/><rect class="ols-4" x="169.41" y="237.41" width="14.03" height="18.99"/><rect class="ols-4" x="229.21" y="277.94" width="14.02" height="18.99"/><rect class="ols-4" x="199.31" y="277.94" width="14.03" height="18.99"/><rect class="ols-4" x="229.21" y="318.47" width="14.02" height="18.99"/><rect class="ols-4" x="199.31" y="318.47" width="14.03" height="18.99"/><rect class="ols-4" x="169.41" y="318.47" width="14.03" height="18.99"/><path class="ols-3" d="M9.53,101.52a19.79,19.79,0,0,1,14.91.22A19.87,19.87,0,0,1,36.63,87.8c0-.44-.07-.88-.07-1.33a27.06,27.06,0,1,1,54.11,0A19.86,19.86,0,0,1,110,101.83,19.85,19.85,0,0,1,137.4,116l19,5.91a2.18,2.18,0,0,1-.65,4.25H9.53Z"/><polygon class="ols-3" points="265.48 23.18 13.01 37.51 238.12 45.47 97.84 64.1 265.48 64.1 265.48 23.18"/><polygon class="ols-5" points="9.53 286.32 9.53 330.59 265.48 74.64 265.48 30.37 9.53 286.32"/><polygon class="ols-5" points="9.53 169.51 9.53 200.31 200.31 9.53 169.51 9.53 9.53 169.51"/><polygon class="ols-5" points="265.48 212.37 265.48 164.25 79.71 350.01 127.83 350.01 265.48 212.37"/><rect class="ols-6" x="7.6" y="177.58" width="259.81" height="17.19"/><rect class="ols-1" x="7.6" y="171.18" width="259.81" height="17.19"/></g></g></svg>