<svg xmlns="http://www.w3.org/2000/svg" viewBox="0 0 122.26 167.75"><defs><style>.pls-1{isolation:isolate;}.pls-2{fill:#d0d2d3;}.pls-3{fill:#6c6399;}.pls-4{fill:#444172;}.pls-5{fill:#41453b;opacity:0.5;mix-blend-mode:multiply;}</style></defs><title>Lamp</title><g class="pls-1"><g id="Layer_2" data-name="Layer 2"><g id="Layer_1-2" data-name="Layer 1"><rect class="pls-2" x="59.18" width="3.91" height="112.06"/><path class="pls-3" d="M77.7,97.59H44.57A7.55,7.55,0,0,0,37,105.13v10.52H85.25V105.13A7.55,7.55,0,0,0,77.7,97.59Z"/><path class="pls-4" d="M0,167.75a61.13,61.13,0,0,1,122.26,0Z"/><path class="pls-5" d="M55.81,154.78c-22.37,0-34-27.06-18.28-43,.27-.27.55-.52.82-.78A61.12,61.12,0,0,0,0,167.75H122.26a60.92,60.92,0,0,0-1.39-13Z"/></g></g></g></svg>