<svg xmlns="http://www.w3.org/2000/svg" viewBox="0 0 163.54 219.65"><defs><style>.zzls-1,.zzls-4{fill:#d0d2d3;}.zzls-2{fill:#444172;}.zzls-3{fill:#837db2;}.zzls-4{opacity:0.1;}.zzls-5{opacity:0.6;}.zzls-6{opacity:0.2;}.zzls-7{fill:#6c6399;}.zzls-8{opacity:0.81;}</style></defs><title>Asset 36</title><g id="Layer_2" data-name="Layer 2"><g id="Layer_1-2" data-name="Layer 1"><path class="zzls-1" d="M88.84,153.09a1.22,1.22,0,0,1-.32,0,1.58,1.58,0,0,1-1.24-1.87C88.2,146.57,110.12,38,128.61,23.53c6.76-5.3,11.69-5,14.62-3.81,5,2,7.42,7.64,8.05,12.24.7,5.07-.51,9.48-3.15,11.52a7.57,7.57,0,0,1-6.51,1.67c-4.79-1.09-7.78-6.93-7.9-7.18a1.59,1.59,0,0,1,2.84-1.43c.67,1.32,3,4.89,5.77,5.51A4.49,4.49,0,0,0,146.18,41c1.69-1.3,2.47-4.75,1.95-8.57s-2.38-8.21-6.09-9.72c-3.1-1.25-7.06-.09-11.46,3.37-5,3.93-13.7,18.89-26.67,67.87-7.8,29.5-13.46,57.62-13.51,57.9A1.6,1.6,0,0,1,88.84,153.09Z"/><path class="zzls-1" d="M77,154.11a1.57,1.57,0,0,1-1.34-.73c-.7-1.08-1-5.27-2.19-24.35-1.94-31.55-5.54-90.28-13.57-105C56,16.93,51.55,14.06,47.47,16c-4.35,2-7.52,9.37-5.86,13.49.7,1.74,1.65,2.75,2.91,3.09,2.53.67,5.89-1.41,7-2.26a1.59,1.59,0,1,1,2,2.49c-.21.17-5.19,4.05-9.76,2.84-2.26-.6-4-2.27-5.05-5-2.3-5.73,1.53-14.76,7.46-17.56,2.72-1.29,9.77-2.94,16.54,9.44,8.37,15.3,11.87,72.26,14,106.29.68,11,1.32,21.49,1.77,23a1.59,1.59,0,0,1-.56,2.05A1.61,1.61,0,0,1,77,154.11Zm1.34-2.45h0Z"/><path class="zzls-2" d="M81.5,162.61C74.1,155.8,70.18,148.8,67,141.78a68.33,68.33,0,0,1-5.38-21.13c-.75-7.05,0-14.05.6-21.05.34-3.51.79-7,1.23-10.49s1.11-7,1.74-10.47A196.43,196.43,0,0,1,77.36,37.47c1.33-3.35,3-6.66,4.71-9.93a95.29,95.29,0,0,1,5.47-9.63A104.16,104.16,0,0,1,94,8.73,93.72,93.72,0,0,1,101.61.34a1.22,1.22,0,0,1,1.72,0,1.29,1.29,0,0,1,.33.72v0c1.59,15,2.46,28.42,3.17,41.92s1,26.7.78,39.91c0,3.32-.13,6.62-.21,9.92s-.17,6.63-.36,9.93c-.31,6.62-.44,13.24-1.76,19.84a76.61,76.61,0,0,1-6.75,19.8,73,73,0,0,1-14.84,20.13l0,0A1.59,1.59,0,0,1,81.5,162.61Z"/><path class="zzls-3" d="M81,154.47c-.92-11-1.08-22-.91-32.95s.76-22,1.77-32.93A327.54,327.54,0,0,1,86.5,55.9a175.19,175.19,0,0,1,9.08-31.74c-2.43,10.74-4.17,21.5-5.7,32.3-.34,2.71-.69,5.41-1.08,8.11l-.91,8.14Q87,80.84,86.23,89c-1.1,10.86-1.86,21.77-2.73,32.67Z"/><path class="zzls-4" d="M105.28,122.64c1.32-6.6,1.45-13.22,1.76-19.84.19-3.3.27-6.61.36-9.93s.2-6.6.21-9.92c0-1.26,0-2.53,0-3.8-7.89,10.13-21.79,28.91-25.47,40.13,0,0-10.29-26-17.34-38.65-.5,2.82-1,5.65-1.41,8.48-.44,3.49-.89,7-1.23,10.49-.6,7-1.35,14-.6,21.05A68.33,68.33,0,0,0,67,141.78c3.23,7,7.15,14,14.55,20.83a1.59,1.59,0,0,0,2.17,0l0,0a73,73,0,0,0,14.84-20.13A76.61,76.61,0,0,0,105.28,122.64Z"/><path class="zzls-3" d="M63.85,166.4a50.42,50.42,0,0,1-9.34-7A54.1,54.1,0,0,1,48,152.15a47,47,0,0,1-7.41-15.33c-2.58-10.67-4.93-21.34-7.22-32l-6.8-32A333.23,333.23,0,0,0,18,39.89v0A1.19,1.19,0,0,1,19.6,38.4,57.44,57.44,0,0,1,35.18,49,96.12,96.12,0,0,1,47.61,62.9,150.37,150.37,0,0,1,65.4,94.62a202.4,202.4,0,0,1,10.74,34,44,44,0,0,1-.25,18.09,46.27,46.27,0,0,1-3.32,9.53A40.24,40.24,0,0,1,66,166.08a1.74,1.74,0,0,1-2.14.34Z"/><g class="zzls-5"><path class="zzls-2" d="M64.14,154.47c-1.63-8.28-3.57-16.41-5.7-24.48S54,113.93,51.22,106.06s-5.53-15.71-8.73-23.41-6.68-15.3-10.08-23a145.78,145.78,0,0,1,13.2,21.62c2,3.74,3.6,7.66,5.32,11.53.86,1.94,1.52,3.95,2.3,5.93s1.5,4,2.15,6a178.06,178.06,0,0,1,6.38,24.57A124.38,124.38,0,0,1,64.14,154.47Z"/></g><path class="zzls-3" d="M94.71,162.31a40.71,40.71,0,0,1-5.87-10.82,43.5,43.5,0,0,1-2.39-9.9,38.74,38.74,0,0,1,2-17.53,162.44,162.44,0,0,1,7.19-15.43c2.67-5,5.5-9.93,8.65-14.68A160.65,160.65,0,0,1,125.86,67.3q3.08-3.06,6.32-6c2.26-1.87,4.45-3.77,6.8-5.54a81.2,81.2,0,0,1,7.26-5.11,82.67,82.67,0,0,1,7.87-4.53,1.47,1.47,0,0,1,2.12,1.48v0A150.69,150.69,0,0,1,153,65c-1.26,5.55-2.8,10.83-4.26,16.11-3.1,10.44-6.48,20.51-10.18,30.34-1.85,4.91-3.73,9.79-5.74,14.6s-3.95,9.63-6.13,14.34a39.36,39.36,0,0,1-10.27,12.69,51.24,51.24,0,0,1-8,5.4,56.13,56.13,0,0,1-11.14,4.61l-.08,0A2.26,2.26,0,0,1,94.71,162.31Z"/><g class="zzls-6"><path class="zzls-2" d="M76.14,128.58c0-.23-.12-.45-.17-.67a41.71,41.71,0,0,1-2.3,7.62,35.56,35.56,0,0,1-5.35,9.09,1.53,1.53,0,0,1-1.88.4l0,0a44.66,44.66,0,0,1-8.64-5.76,49,49,0,0,1-6.1-6.15,41.93,41.93,0,0,1-7.31-13.28c-2.8-9.36-5.4-18.72-7.94-28.09L28.85,63.59c-2.25-8-4.54-16-7.59-24.42-.55-.26-1.1-.53-1.66-.77A1.19,1.19,0,0,0,18,39.87v0a333.23,333.23,0,0,1,8.62,32.92l6.8,32c2.29,10.65,4.64,21.32,7.22,32A47,47,0,0,0,48,152.15a54.1,54.1,0,0,0,6.47,7.26,50.42,50.42,0,0,0,9.34,7l0,0a1.74,1.74,0,0,0,2.14-.34,40.24,40.24,0,0,0,6.54-9.88,46.27,46.27,0,0,0,3.32-9.53A44,44,0,0,0,76.14,128.58Z"/></g><g class="zzls-5"><path class="zzls-2" d="M95.58,154.47a171.9,171.9,0,0,1,8.33-23.8c1.57-3.89,3.4-7.66,5.14-11.48s3.75-7.49,5.67-11.22q5.88-11.1,12.81-21.63a181.08,181.08,0,0,1,15.11-20.19C139.41,74,135.69,81.44,132,88.9s-7.53,14.84-11.45,22.16-7.89,14.64-12,21.87S100.18,147.38,95.58,154.47Z"/></g><g class="zzls-6"><path class="zzls-2" d="M155.85,46.52l-1.07,3.95c-1.44,5.31-3.14,10.34-4.77,15.38-3.43,10-7.12,19.52-11.09,28.86-2,4.66-4,9.29-6.16,13.85s-4.21,9.13-6.51,13.59A38.17,38.17,0,0,1,115.81,134a50,50,0,0,1-8,4.87,53.94,53.94,0,0,1-10.94,4l-.08,0a2.18,2.18,0,0,1-2.3-.86,39.3,39.3,0,0,1-5.21-10.69,43.47,43.47,0,0,1-1.36-5.55,38.85,38.85,0,0,0-1.47,15.84,43.5,43.5,0,0,0,2.39,9.9,40.71,40.71,0,0,0,5.87,10.82,2.26,2.26,0,0,0,2.41.8l.08,0a56.13,56.13,0,0,0,11.14-4.61,51.24,51.24,0,0,0,8-5.4,39.36,39.36,0,0,0,10.27-12.69c2.18-4.71,4.17-9.51,6.13-14.34s3.89-9.69,5.74-14.6c3.7-9.83,7.08-19.9,10.18-30.34,1.46-5.28,3-10.56,4.26-16.11a150.69,150.69,0,0,0,3.26-17.31v0a1.49,1.49,0,0,0-.14-.82A1.17,1.17,0,0,0,155.85,46.52Z"/></g><path class="zzls-1" d="M108.34,160.06a1.6,1.6,0,0,1-1.51-2.11c.53-1.53,13.1-37.55,35.07-49,8.76-4.58,14-3.33,16.82-1.47,3.33,2.18,5.12,6.34,4.78,11.12s-2.93,9.19-6.58,10.9a10.18,10.18,0,0,1-8.65.46c-5-2.17-7.06-8.27-7.14-8.53a1.59,1.59,0,1,1,3-1s1.7,5,5.39,6.6a7.07,7.07,0,0,0,6-.42c2.62-1.23,4.49-4.47,4.75-8.25.26-3.61-1-6.69-3.34-8.23-3-2-7.75-1.43-13.6,1.63C122.52,122.64,110,158.62,109.84,159A1.59,1.59,0,0,1,108.34,160.06Z"/><path class="zzls-1" d="M55.22,155.89a1.58,1.58,0,0,1-1.48-1c-.18-.45-17.66-45.68-36.56-55.71C13.06,97,9.47,97.1,6.8,99.54c-3.66,3.35-4.7,10.32-2.36,15.85,1.54,3.66,5.81,9.69,17.07,9a1.59,1.59,0,0,1,.19,3.18c-9.67.55-17-3.45-20.2-11C-1.37,109.82,0,101.46,4.65,97.2c2.14-2,6.82-4.69,14-.87,19.95,10.59,37.31,55.49,38,57.39a1.6,1.6,0,0,1-.92,2.06A1.65,1.65,0,0,1,55.22,155.89Z"/><polygon class="zzls-7" points="114.3 219.65 47.71 219.65 32.41 158.2 129.6 158.2 114.3 219.65"/><g class="zzls-8"><path class="zzls-2" d="M86.26,208.35a34.11,34.11,0,0,1-33.1-25.87l-6-24.28H32.41l15.3,61.45H114.3l2.81-11.3Z"/></g><path class="zzls-7" d="M30.28,149.63H131.73a4.75,4.75,0,0,1,4.75,4.75V162a4.75,4.75,0,0,1-4.75,4.75H30.28A4.75,4.75,0,0,1,25.52,162v-7.63A4.76,4.76,0,0,1,30.28,149.63Z"/><g class="zzls-8"><path class="zzls-2" d="M42.17,162.28a4.76,4.76,0,0,1-4.76-4.75v-7.64a2.3,2.3,0,0,1,0-.26H30.28a4.76,4.76,0,0,0-4.76,4.75V162a4.76,4.76,0,0,0,4.76,4.75H131.73a4.74,4.74,0,0,0,4.72-4.49Z"/></g></g></g></svg>