<svg xmlns="http://www.w3.org/2000/svg" viewBox="0 0 84.81 164.19"><defs><style>.mls-1{fill:#d0d2d3;}.mls-2{fill:#837db2;}.mls-3{opacity:0.6;}.mls-4{fill:#444172;}</style></defs><title>Vase</title><g id="Layer_2" data-name="Layer 2"><g id="Layer_1-2" data-name="Layer 1"><path class="mls-1" d="M43.36,104.58A98.72,98.72,0,0,1,53.69,64a44.55,44.55,0,0,1,5.62-9.27,24.06,24.06,0,0,1,2-2,21.45,21.45,0,0,1,2.24-1.64,14.12,14.12,0,0,1,5.23-2.21,9.24,9.24,0,0,1,5.73.79A15.63,15.63,0,0,1,78.91,53a42.4,42.4,0,0,1,5.87,8.75.24.24,0,0,1-.1.33.25.25,0,0,1-.32-.07,46.12,46.12,0,0,0-6.5-7.93c-2.48-2.22-5.61-3.75-8.56-2.8a11.37,11.37,0,0,0-4.13,2.12A19.68,19.68,0,0,0,63.31,55a19.38,19.38,0,0,0-1.53,1.77,42,42,0,0,0-4.51,8.84c-.64,1.56-1.15,3.2-1.73,4.8s-1,3.27-1.48,4.91c-.93,3.3-2,6.57-3,9.84s-2.19,6.54-3.39,9.8-2.39,6.52-3.81,9.76a.24.24,0,0,1-.33.13A.26.26,0,0,1,43.36,104.58Z"/><path class="mls-1" d="M46.12,114.06a107.09,107.09,0,0,1-1.35-13c-.24-4.33-.27-8.66-.16-13a138.75,138.75,0,0,1,3.47-25.82A79.19,79.19,0,0,1,51.8,49.64a41.42,41.42,0,0,1,6.62-11.52,24.37,24.37,0,0,1,10.91-7.55,19.55,19.55,0,0,1,13,.37.25.25,0,0,1,.14.32.24.24,0,0,1-.3.14A19.26,19.26,0,0,0,69.83,32a22.57,22.57,0,0,0-9.5,7.66,38.7,38.7,0,0,0-5.55,11.11A74.17,74.17,0,0,0,51.93,63c-1.38,8.36-1.53,16.92-2.44,25.4s-1.6,17-2.88,25.63a.25.25,0,0,1-.49,0Z"/><path class="mls-1" d="M40.53,110.66c-1.3-9.86-2.35-19.62-3.67-29.34s-2.22-19.46-4.31-29a133.69,133.69,0,0,0-3.79-14.13c-.71-2.34-1.69-4.56-2.53-6.85a12.58,12.58,0,0,0-3.83-5.42,8.74,8.74,0,0,0-6.21-1.69,15.09,15.09,0,0,0-6.51,2.35,25.89,25.89,0,0,0-9.21,11,.25.25,0,0,1-.33.12A.26.26,0,0,1,0,37.36a26.08,26.08,0,0,1,8.83-12A16.91,16.91,0,0,1,16,22.25a11.1,11.1,0,0,1,7.87,1.66,15.28,15.28,0,0,1,5,6.26c1,2.31,2.11,4.57,2.95,6.93a138.19,138.19,0,0,1,4.6,14.29c2.55,9.65,4.7,19.47,5.38,29.43.17,2.49.28,5,.38,7.47s.12,5,0,7.47A114.7,114.7,0,0,1,41,110.67a.25.25,0,0,1-.28.21A.25.25,0,0,1,40.53,110.66Z"/><path class="mls-1" d="M40.54,114.06c-1.84-7.19-3.23-14.34-4.71-21.45s-2.35-14.3-4.21-21.29a88.56,88.56,0,0,0-3.23-10.25c-1.38-3.23-3.05-6.42-5.54-8.64a7.34,7.34,0,0,0-9-1,15.51,15.51,0,0,0-4.08,3.31,27.18,27.18,0,0,0-3.23,4.34h0a.25.25,0,0,1-.34.08.24.24,0,0,1-.09-.31c1.61-3.3,3.71-6.56,7-8.72a9.35,9.35,0,0,1,5.66-1.73,9.65,9.65,0,0,1,3,.59l1.36.7c.23.12.46.24.68.37l.59.46c3.18,2.49,5.18,5.88,6.91,9.24a90.47,90.47,0,0,1,4.08,10.46,110.16,110.16,0,0,1,5.29,21.61c.42,3.68.74,7.37.81,11.08A75.46,75.46,0,0,1,41,114a.25.25,0,0,1-.28.21A.26.26,0,0,1,40.54,114.06Z"/><path class="mls-1" d="M43.36,112.14a219.42,219.42,0,0,1-3.77-31.55,225.45,225.45,0,0,1,.9-31.81A119.76,119.76,0,0,1,42.76,32.9a59.06,59.06,0,0,1,5.51-15.17A37,37,0,0,1,58.67,5.42,27.27,27.27,0,0,1,73.6,0a.25.25,0,0,1,.26.23.26.26,0,0,1-.22.26,26.85,26.85,0,0,0-14,6.12,35.14,35.14,0,0,0-9.15,12.23C46,28.18,44.77,38.61,44.39,49s.19,20.94.08,31.44-.06,21-.63,31.63a.24.24,0,0,1-.48,0Z"/><path class="mls-2" d="M50,113.31C43.89,100,55.42,83,55.42,83H28.73s11.52,17,5.46,30.34-17.6,18.81-17.6,34.58c0,11.9,14.5,15.17,21.63,16.06a31.08,31.08,0,0,0,7.71,0c7.13-.89,21.63-4.16,21.63-16.06C67.56,132.12,56,126.66,50,113.31Z"/><g class="mls-3"><path class="mls-4" d="M55.37,157.76a33.14,33.14,0,0,1-7.71,0C40.54,156.92,26,153.82,26,142.53c0-15,7.25-20.14,13.31-32.8,4.79-10-.81-22.07-3.63-26.76h-7s11.52,17,5.46,30.34-17.6,18.81-17.6,34.58c0,11.9,14.5,15.17,21.63,16.06a31.08,31.08,0,0,0,7.71,0c5.21-.65,14.35-2.59,18.89-8.23A48.68,48.68,0,0,1,55.37,157.76Z"/></g></g></g></svg>