<svg xmlns="http://www.w3.org/2000/svg" viewBox="0 0 35.41 41.23"><defs><style>.lls-1{isolation:isolate;}.lls-2{fill:#fff8a1;}.lls-3{fill:#837db2;}.lls-4{fill:#444172;}.lls-5{fill:#f2adc9;opacity:0.5;mix-blend-mode:multiply;}.lls-6{fill:#d0d2d3;}</style></defs><title>Kandle</title><g class="lls-1"><g id="Layer_2" data-name="Layer 2"><g id="Layer_1-2" data-name="Layer 1"><path class="lls-2" d="M17.74,28.62a.92.92,0,0,1-.58-.21A.9.9,0,0,1,17,27.15a3.82,3.82,0,0,0,.48-3,13.79,13.79,0,0,1-.29-3.83.9.9,0,1,1,1.79.25,12,12,0,0,0,.28,3.25,5.55,5.55,0,0,1-.87,4.46A.9.9,0,0,1,17.74,28.62Z"/><polygon class="lls-3" points="28.66 41.23 6.76 41.23 0 23.99 35.41 23.99 28.66 41.23"/><polygon class="lls-4" points="32.21 32.16 34.06 27.44 1.35 27.44 3.2 32.16 32.21 32.16"/><path class="lls-5" d="M22.92,39.27a15.75,15.75,0,0,1-14.67-10L6.18,24H0L6.76,41.23h21.9l.76-2Z"/><path class="lls-6" d="M23.79,15.88a5.67,5.67,0,0,1-11.33,0C12.46,12.75,18.13,0,18.13,0S23.79,12.75,23.79,15.88Z"/><path class="lls-4" d="M21.06,17.58a2.94,2.94,0,1,1-5.87,0c0-1.62,2.94-8.22,2.94-8.22S21.06,16,21.06,17.58Z"/></g></g></g></svg>