<svg xmlns="http://www.w3.org/2000/svg" viewBox="0 0 64.18 67.87"><defs><style>.kls-1{fill:#444172;}.kls-2{fill:#837db2;}.kls-3{fill:#d0d2d3;}</style></defs><title>Books</title><g id="Layer_2" data-name="Layer 2"><g id="Layer_1-2" data-name="Layer 1"><rect class="kls-1" x="25.29" width="25.29" height="67.87"/><rect class="kls-2" x="50.58" width="13.6" height="67.87"/><rect class="kls-3" x="50.58" y="6.95" width="13.6" height="7.05" transform="translate(114.76 20.95) rotate(180)"/><rect class="kls-3" x="50.58" y="54.6" width="13.6" height="7.05" transform="translate(114.76 116.25) rotate(180)"/><ellipse class="kls-3" cx="57.38" cy="33.94" rx="4.61" ry="13.22"/><rect class="kls-1" width="25.29" height="67.87"/><rect class="kls-2" x="25.29" width="13.6" height="67.87"/><rect class="kls-3" x="25.29" y="6.95" width="13.6" height="7.05" transform="translate(64.18 20.95) rotate(180)"/><rect class="kls-3" x="25.29" y="54.6" width="13.6" height="7.05" transform="translate(64.18 116.25) rotate(180)"/><path class="kls-3" d="M21.56,43.4V26.24c-3.12,0-5.65-4.47-5.65-10H9.38c0,5.51-2.53,10-5.65,10V43.4c3.12,0,5.65,4.46,5.65,10h6.53C15.91,47.86,18.44,43.4,21.56,43.4Z"/></g></g></svg>