<svg xmlns="http://www.w3.org/2000/svg" viewBox="0 0 588.51 45.35"><defs><style>.dls-1{fill:#fefefe;opacity:0.03;}</style></defs><title></title><g id="Layer_2" data-name="Layer 2"><g id="Layer_1-2" data-name="Layer 1"><path class="dls-1" d="M584.87,15.91H499.63l9.72-5C517.47,6.66,511,0,498.78,0H67.88A23.94,23.94,0,0,0,57.31,2.19l-13.45,7c-4.61,2.4-4.51,5.58-1.33,7.88H7.42A3.93,3.93,0,0,0,4,19L.55,24.85a3.93,3.93,0,0,0,3.39,5.93H93a4,4,0,0,0,3.39-1.92L99.85,23a3.89,3.89,0,0,0,.43-2.93H293.81a19.76,19.76,0,0,0-10.57,2.76L269.79,31.6c-8.13,5.33-1.65,13.75,10.57,13.75H479.88a19.76,19.76,0,0,0,10.57-2.76l13.45-8.81a8.66,8.66,0,0,0,3-3h73.55a3.66,3.66,0,0,0,3.14-1.8L588,21.39A3.64,3.64,0,0,0,584.87,15.91Z"/></g></g></svg>